{"glyphs":{"0":{"ha":758,"x_min":29,"x_max":769,"o":"m 310 -14 q 572 105 468 -14 q 722 392 675 224 q 769 715 769 561 q 702 960 769 871 q 501 1049 635 1049 q 256 951 364 1049 q 89 689 149 853 q 29 333 29 525 q 93 79 29 172 q 310 -14 157 -14 m 328 90 q 236 299 236 90 q 275 607 236 450 q 375 865 314 764 q 500 967 436 967 q 560 909 539 967 q 581 764 581 851 q 545 447 581 604 q 451 190 510 290 q 328 90 393 90 "},"1":{"ha":440,"x_min":29,"x_max":450,"o":"m 213 867 l 29 0 l 229 0 l 450 1039 q 256 951 338 972 q 97 931 174 931 l 81 867 l 213 867 "},"2":{"ha":683,"x_min":-17,"x_max":656,"o":"m 435 -17 q 526 5 483 -17 q 595 65 569 26 q 621 151 621 103 q 603 238 621 186 l 599 240 q 532 185 564 201 q 463 169 500 169 q 406 176 438 169 q 369 183 375 182 q 301 196 338 190 q 232 201 265 201 q 146 190 186 201 q 229 296 175 246 q 375 415 283 346 q 524 536 468 486 q 617 650 579 586 q 656 789 656 714 q 581 974 656 907 q 386 1042 507 1042 q 229 1007 296 1042 q 128 918 163 972 q 94 806 94 864 q 123 700 94 739 q 194 661 151 661 q 249 674 221 661 q 300 708 276 686 l 300 714 q 252 767 271 731 q 233 851 233 804 q 264 931 233 899 q 343 964 294 964 q 422 918 396 964 q 447 793 447 872 q 414 655 447 721 q 332 534 381 589 q 204 403 283 479 q 86 282 129 329 q 13 178 43 235 q -17 64 -17 122 q -8 -1 -17 32 l -3 -1 q 150 39 72 39 q 219 32 186 39 q 304 10 253 25 q 377 -10 347 -3 q 435 -17 407 -17 "},"3":{"ha":714,"x_min":8,"x_max":692,"o":"m 285 -7 q 488 46 399 -7 q 627 181 578 99 q 676 350 676 264 q 633 490 676 429 q 501 579 589 550 q 643 696 594 626 q 692 838 692 765 q 662 939 692 893 q 574 1013 632 985 q 433 1040 515 1040 q 288 1014 353 1040 q 184 940 222 988 q 146 829 146 892 q 174 742 146 774 q 246 711 203 711 q 351 758 300 711 q 312 794 325 765 q 299 857 299 824 q 328 935 299 906 q 408 965 358 965 q 487 934 460 965 q 514 851 514 903 q 486 747 514 801 q 404 647 458 692 q 276 581 350 601 q 415 476 368 549 q 461 318 461 403 q 435 188 461 242 q 367 107 408 133 q 282 81 326 81 q 197 114 232 81 q 163 207 163 147 q 188 308 163 264 q 285 357 214 353 q 176 428 271 428 q 52 374 96 428 q 8 229 8 319 q 97 42 8 90 q 285 -7 186 -7 "},"4":{"ha":661,"x_min":-3,"x_max":663,"o":"m 663 436 q 640 513 663 474 l 636 515 q 549 450 597 468 l 617 772 l 528 772 l 415 449 q 354 460 403 451 q 271 468 306 468 q 206 460 240 468 q 147 443 172 453 l 146 447 q 302 592 222 508 q 437 762 382 676 q 492 910 492 847 q 457 997 492 963 q 360 1031 422 1031 q 290 1021 319 1031 q 301 935 301 976 q 221 675 301 811 q -3 368 140 539 l -3 361 l 26 307 l 32 307 q 182 336 90 336 q 250 329 218 336 q 338 307 282 322 l 364 299 l 260 0 l 453 0 l 514 286 q 621 340 579 299 q 663 436 663 382 "},"5":{"ha":718,"x_min":21,"x_max":697,"o":"m 274 -7 q 480 41 390 -7 q 619 175 569 89 q 668 374 668 261 q 602 583 668 506 q 422 660 536 660 q 250 617 340 660 l 306 868 q 376 856 342 863 q 461 840 417 847 q 538 833 506 833 q 659 878 621 833 q 697 994 697 922 q 694 1040 697 1010 q 453 1001 579 1001 q 219 1019 376 1001 l 113 493 l 131 481 q 313 543 239 543 q 425 491 385 543 q 465 343 465 439 q 414 158 465 231 q 282 86 363 86 q 204 114 233 86 q 175 190 175 142 q 209 278 175 244 q 300 319 243 313 q 201 390 286 390 q 71 337 121 390 q 21 196 21 283 q 86 46 21 99 q 274 -7 151 -7 "},"6":{"ha":694,"x_min":22,"x_max":708,"o":"m 306 -7 q 487 49 403 -7 q 621 197 571 106 q 671 392 671 289 q 613 567 671 503 q 458 632 554 632 q 324 599 381 632 q 242 501 267 565 l 238 500 q 300 734 257 629 q 398 899 343 839 q 510 958 453 958 q 563 935 544 958 q 582 881 582 913 q 570 833 582 856 q 536 800 558 811 q 564 768 544 781 q 607 756 583 756 q 679 792 650 756 q 708 883 708 829 q 653 997 708 954 q 507 1040 599 1040 q 263 949 374 1040 q 87 702 151 858 q 22 360 22 546 q 91 80 22 167 q 306 -7 160 -7 m 335 101 q 225 304 225 101 q 383 533 225 533 q 465 498 435 533 q 494 388 494 463 q 471 244 494 310 q 410 140 447 178 q 335 101 374 101 "},"7":{"ha":644,"x_min":79,"x_max":724,"o":"m 243 -6 q 340 21 292 -6 q 315 164 315 92 q 356 355 315 251 q 450 551 396 458 q 588 772 504 643 q 691 940 658 882 q 724 1029 724 997 l 722 1035 q 535 1006 613 1006 q 468 1011 499 1006 q 393 1029 438 1017 q 328 1045 356 1040 q 269 1050 300 1050 q 132 1006 185 1050 q 79 889 79 963 q 97 804 79 844 l 101 803 q 165 858 133 842 q 238 875 197 875 q 297 868 267 875 q 332 860 326 861 q 419 844 383 844 q 464 850 440 844 q 513 863 488 856 q 483 795 513 836 q 383 671 453 754 q 242 495 297 569 q 146 333 188 421 q 104 163 104 246 q 142 40 104 85 q 243 -6 179 -6 "},"8":{"ha":693,"x_min":-3,"x_max":697,"o":"m 493 608 q 697 856 697 719 q 665 956 697 911 q 574 1026 632 1001 q 442 1051 515 1051 q 287 1018 357 1051 q 176 927 217 985 q 136 800 136 869 q 169 681 136 736 q 261 564 201 626 q 61 430 125 503 q -3 260 -3 357 q 37 120 -3 181 q 147 26 76 60 q 306 -8 217 -8 q 490 35 406 -8 q 623 151 574 78 q 672 310 672 224 q 647 422 672 369 q 587 514 622 474 q 493 608 551 554 m 457 985 q 524 956 500 985 q 549 879 549 928 q 518 767 549 825 q 436 663 488 708 q 360 755 386 711 q 333 849 333 799 q 369 947 333 908 q 457 985 404 985 m 313 88 q 217 134 253 88 q 181 258 181 181 q 216 398 181 333 q 318 507 251 463 q 428 378 390 435 q 465 256 465 321 q 420 138 465 188 q 313 88 375 88 "},"9":{"ha":679,"x_min":18,"x_max":683,"o":"m 219 -4 q 454 87 347 -4 q 622 333 561 178 q 683 676 683 489 q 618 949 683 857 q 425 1042 553 1042 q 233 989 322 1042 q 91 848 144 936 q 38 658 38 760 q 96 483 38 547 q 251 418 154 418 q 385 451 329 418 q 467 549 442 485 l 471 550 q 415 315 454 421 q 324 150 376 210 q 214 90 271 90 q 162 110 179 90 q 144 158 144 129 q 156 203 144 182 q 189 238 168 225 q 163 269 183 257 q 118 282 143 282 q 47 244 76 282 q 18 153 18 207 q 73 39 18 82 q 219 -4 128 -4 m 311 519 q 240 554 267 519 q 214 663 214 589 q 237 800 214 733 q 299 909 260 867 q 383 951 338 951 q 485 775 485 951 q 443 588 485 656 q 311 519 401 519 "},"\u0000":{"ha":833,"x_min":0,"x_max":0,"o":""},"\r":{"ha":833,"x_min":0,"x_max":0,"o":""}," ":{"ha":301,"x_min":0,"x_max":0,"o":""},"A":{"ha":928,"x_min":13,"x_max":961,"o":"m 303 -158 q 283 -81 283 -133 q 334 205 283 26 q 464 554 385 383 q 556 539 513 550 q 650 504 599 528 l 543 0 l 743 0 l 961 1022 q 851 1042 918 1042 q 609 927 736 1042 q 368 632 482 813 q 296 636 325 636 q 151 613 217 636 q 49 551 86 590 q 13 465 13 513 q 36 406 13 426 q 99 385 60 385 q 154 399 132 385 q 176 439 176 414 q 170 468 176 454 q 158 482 164 482 q 211 533 171 517 q 321 554 251 550 q 173 239 229 396 q 117 -11 117 82 q 145 -110 117 -78 q 213 -150 174 -142 q 303 -158 251 -158 m 743 943 l 663 565 q 493 614 593 594 q 619 824 554 738 q 743 943 683 911 "},"Á":{"ha":928,"x_min":13,"x_max":1069,"o":"m 924 1389 l 797 1126 l 901 1126 l 1069 1389 l 924 1389 m 303 -158 q 283 -81 283 -133 q 334 205 283 26 q 464 554 385 383 q 556 539 513 550 q 650 504 599 528 l 543 0 l 743 0 l 961 1022 q 851 1042 918 1042 q 609 927 736 1042 q 368 632 482 813 q 296 636 325 636 q 151 613 217 636 q 49 551 86 590 q 13 465 13 513 q 36 406 13 426 q 99 385 60 385 q 154 399 132 385 q 176 439 176 414 q 170 468 176 454 q 158 482 164 482 q 211 533 171 517 q 321 554 251 550 q 173 239 229 396 q 117 -11 117 82 q 145 -110 117 -78 q 213 -150 174 -142 q 303 -158 251 -158 m 743 943 l 663 565 q 493 614 593 594 q 619 824 554 738 q 743 943 683 911 "},"Ă":{"ha":928,"x_min":13,"x_max":1146,"o":"m 853 1132 q 991 1157 926 1132 q 1097 1226 1056 1182 q 1146 1325 1138 1271 l 1026 1325 q 976 1243 1019 1276 q 874 1210 932 1210 q 794 1240 822 1210 q 765 1325 765 1269 l 640 1325 q 695 1181 640 1231 q 853 1132 750 1132 m 303 -158 q 283 -81 283 -133 q 334 205 283 26 q 464 554 385 383 q 556 539 513 550 q 650 504 599 528 l 543 0 l 743 0 l 961 1022 q 851 1042 918 1042 q 609 927 736 1042 q 368 632 482 813 q 296 636 325 636 q 151 613 217 636 q 49 551 86 590 q 13 465 13 513 q 36 406 13 426 q 99 385 60 385 q 154 399 132 385 q 176 439 176 414 q 170 468 176 454 q 158 482 164 482 q 211 533 171 517 q 321 554 251 550 q 173 239 229 396 q 117 -11 117 82 q 145 -110 117 -78 q 213 -150 174 -142 q 303 -158 251 -158 m 743 943 l 663 565 q 493 614 593 594 q 619 824 554 738 q 743 943 683 911 "},"Ắ":{"ha":928,"x_min":13,"x_max":1110,"o":"m 936 1389 l 850 1203 l 925 1203 l 1044 1389 l 936 1389 m 865 1088 q 981 1108 926 1088 q 1069 1166 1035 1129 q 1110 1247 1104 1203 l 1011 1247 q 967 1179 1004 1207 q 882 1151 931 1151 q 815 1176 839 1151 q 790 1247 790 1201 l 688 1247 q 733 1128 688 1169 q 865 1088 778 1088 m 303 -158 q 283 -81 283 -133 q 334 205 283 26 q 464 554 385 383 q 556 539 513 550 q 650 504 599 528 l 543 0 l 743 0 l 961 1022 q 851 1042 918 1042 q 609 927 736 1042 q 368 632 482 813 q 296 636 325 636 q 151 613 217 636 q 49 551 86 590 q 13 465 13 513 q 36 406 13 426 q 99 385 60 385 q 154 399 132 385 q 176 439 176 414 q 170 468 176 454 q 158 482 164 482 q 211 533 171 517 q 321 554 251 550 q 173 239 229 396 q 117 -11 117 82 q 145 -110 117 -78 q 213 -150 174 -142 q 303 -158 251 -158 m 743 943 l 663 565 q 493 614 593 594 q 619 824 554 738 q 743 943 683 911 "},"Ặ":{"ha":928,"x_min":13,"x_max":1146,"o":"m 853 1132 q 991 1157 926 1132 q 1097 1226 1056 1182 q 1146 1325 1138 1271 l 1026 1325 q 976 1243 1019 1276 q 874 1210 932 1210 q 794 1240 822 1210 q 765 1325 765 1269 l 640 1325 q 695 1181 640 1231 q 853 1132 750 1132 m 303 -158 q 283 -81 283 -133 q 334 205 283 26 q 464 554 385 383 q 556 539 513 550 q 650 504 599 528 l 543 0 l 743 0 l 961 1022 q 851 1042 918 1042 q 609 927 736 1042 q 368 632 482 813 q 296 636 325 636 q 151 613 217 636 q 49 551 86 590 q 13 465 13 513 q 36 406 13 426 q 99 385 60 385 q 154 399 132 385 q 176 439 176 414 q 170 468 176 454 q 158 482 164 482 q 211 533 171 517 q 321 554 251 550 q 173 239 229 396 q 117 -11 117 82 q 145 -110 117 -78 q 213 -150 174 -142 q 303 -158 251 -158 m 743 943 l 663 565 q 493 614 593 594 q 619 824 554 738 q 743 943 683 911 m 518 -321 q 597 -289 564 -321 q 629 -211 629 -257 q 597 -133 629 -165 q 518 -100 564 -100 q 440 -133 472 -100 q 407 -211 407 -165 q 440 -289 407 -257 q 518 -321 472 -321 "},"Ằ":{"ha":928,"x_min":13,"x_max":1110,"o":"m 801 1389 l 864 1201 l 940 1201 l 914 1389 l 801 1389 m 865 1088 q 981 1108 926 1088 q 1069 1166 1035 1129 q 1110 1247 1104 1203 l 1011 1247 q 967 1179 1004 1207 q 882 1151 931 1151 q 815 1176 839 1151 q 790 1247 790 1201 l 688 1247 q 733 1128 688 1169 q 865 1088 778 1088 m 303 -158 q 283 -81 283 -133 q 334 205 283 26 q 464 554 385 383 q 556 539 513 550 q 650 504 599 528 l 543 0 l 743 0 l 961 1022 q 851 1042 918 1042 q 609 927 736 1042 q 368 632 482 813 q 296 636 325 636 q 151 613 217 636 q 49 551 86 590 q 13 465 13 513 q 36 406 13 426 q 99 385 60 385 q 154 399 132 385 q 176 439 176 414 q 170 468 176 454 q 158 482 164 482 q 211 533 171 517 q 321 554 251 550 q 173 239 229 396 q 117 -11 117 82 q 145 -110 117 -78 q 213 -150 174 -142 q 303 -158 251 -158 m 743 943 l 663 565 q 493 614 593 594 q 619 824 554 738 q 743 943 683 911 "},"Ẳ":{"ha":928,"x_min":13,"x_max":1110,"o":"m 847 1189 l 894 1186 l 897 1226 q 974 1253 944 1229 q 1003 1311 1003 1276 q 974 1367 1003 1346 q 900 1389 946 1389 q 849 1382 875 1389 q 807 1364 824 1375 l 832 1325 q 890 1340 858 1340 q 936 1306 936 1340 q 890 1268 936 1268 q 847 1274 878 1268 l 847 1189 m 865 1088 q 981 1108 926 1088 q 1069 1166 1035 1129 q 1110 1247 1104 1203 l 1031 1247 q 978 1180 1025 1208 q 882 1151 932 1151 q 803 1177 836 1151 q 771 1247 771 1203 l 688 1247 q 733 1128 688 1169 q 865 1088 778 1088 m 303 -158 q 283 -81 283 -133 q 334 205 283 26 q 464 554 385 383 q 556 539 513 550 q 650 504 599 528 l 543 0 l 743 0 l 961 1022 q 851 1042 918 1042 q 609 927 736 1042 q 368 632 482 813 q 296 636 325 636 q 151 613 217 636 q 49 551 86 590 q 13 465 13 513 q 36 406 13 426 q 99 385 60 385 q 154 399 132 385 q 176 439 176 414 q 170 468 176 454 q 158 482 164 482 q 211 533 171 517 q 321 554 251 550 q 173 239 229 396 q 117 -11 117 82 q 145 -110 117 -78 q 213 -150 174 -142 q 303 -158 251 -158 m 743 943 l 663 565 q 493 614 593 594 q 619 824 554 738 q 743 943 683 911 "},"Ẵ":{"ha":928,"x_min":13,"x_max":1110,"o":"m 951 1278 q 1022 1292 988 1278 q 1081 1331 1057 1307 q 1108 1376 1104 1354 l 1103 1378 q 1042 1356 1082 1356 q 969 1371 1013 1356 q 924 1384 943 1379 q 879 1389 904 1389 q 781 1364 824 1389 q 717 1292 739 1339 l 722 1290 q 786 1315 750 1315 q 863 1297 817 1315 q 951 1278 915 1278 m 865 1088 q 981 1108 926 1088 q 1069 1166 1035 1129 q 1110 1247 1104 1203 l 1011 1247 q 967 1179 1004 1207 q 882 1151 931 1151 q 815 1176 839 1151 q 790 1247 790 1201 l 688 1247 q 733 1128 688 1169 q 865 1088 778 1088 m 303 -158 q 283 -81 283 -133 q 334 205 283 26 q 464 554 385 383 q 556 539 513 550 q 650 504 599 528 l 543 0 l 743 0 l 961 1022 q 851 1042 918 1042 q 609 927 736 1042 q 368 632 482 813 q 296 636 325 636 q 151 613 217 636 q 49 551 86 590 q 13 465 13 513 q 36 406 13 426 q 99 385 60 385 q 154 399 132 385 q 176 439 176 414 q 170 468 176 454 q 158 482 164 482 q 211 533 171 517 q 321 554 251 550 q 173 239 229 396 q 117 -11 117 82 q 145 -110 117 -78 q 213 -150 174 -142 q 303 -158 251 -158 m 743 943 l 663 565 q 493 614 593 594 q 619 824 554 738 q 743 943 683 911 "},"Ǎ":{"ha":928,"x_min":13,"x_max":1189,"o":"m 782 1389 l 865 1126 l 894 1126 l 1189 1389 l 1128 1389 l 910 1278 l 826 1389 l 782 1389 m 303 -158 q 283 -81 283 -133 q 334 205 283 26 q 464 554 385 383 q 556 539 513 550 q 650 504 599 528 l 543 0 l 743 0 l 961 1022 q 851 1042 918 1042 q 609 927 736 1042 q 368 632 482 813 q 296 636 325 636 q 151 613 217 636 q 49 551 86 590 q 13 465 13 513 q 36 406 13 426 q 99 385 60 385 q 154 399 132 385 q 176 439 176 414 q 170 468 176 454 q 158 482 164 482 q 211 533 171 517 q 321 554 251 550 q 173 239 229 396 q 117 -11 117 82 q 145 -110 117 -78 q 213 -150 174 -142 q 303 -158 251 -158 m 743 943 l 663 565 q 493 614 593 594 q 619 824 554 738 q 743 943 683 911 "},"Â":{"ha":928,"x_min":13,"x_max":1061,"o":"m 949 1389 l 654 1126 l 715 1126 l 932 1238 l 1015 1126 l 1061 1126 l 978 1389 l 949 1389 m 303 -158 q 283 -81 283 -133 q 334 205 283 26 q 464 554 385 383 q 556 539 513 550 q 650 504 599 528 l 543 0 l 743 0 l 961 1022 q 851 1042 918 1042 q 609 927 736 1042 q 368 632 482 813 q 296 636 325 636 q 151 613 217 636 q 49 551 86 590 q 13 465 13 513 q 36 406 13 426 q 99 385 60 385 q 154 399 132 385 q 176 439 176 414 q 170 468 176 454 q 158 482 164 482 q 211 533 171 517 q 321 554 251 550 q 173 239 229 396 q 117 -11 117 82 q 145 -110 117 -78 q 213 -150 174 -142 q 303 -158 251 -158 m 743 943 l 663 565 q 493 614 593 594 q 619 824 554 738 q 743 943 683 911 "},"Ấ":{"ha":928,"x_min":13,"x_max":1194,"o":"m 1099 1389 l 1013 1203 l 1074 1203 l 1194 1389 l 1099 1389 m 926 1319 l 679 1126 l 761 1126 l 914 1226 l 958 1126 l 1021 1126 l 951 1319 l 926 1319 m 303 -158 q 283 -81 283 -133 q 334 205 283 26 q 464 554 385 383 q 556 539 513 550 q 650 504 599 528 l 543 0 l 743 0 l 961 1022 q 851 1042 918 1042 q 609 927 736 1042 q 368 632 482 813 q 296 636 325 636 q 151 613 217 636 q 49 551 86 590 q 13 465 13 513 q 36 406 13 426 q 99 385 60 385 q 154 399 132 385 q 176 439 176 414 q 170 468 176 454 q 158 482 164 482 q 211 533 171 517 q 321 554 251 550 q 173 239 229 396 q 117 -11 117 82 q 145 -110 117 -78 q 213 -150 174 -142 q 303 -158 251 -158 m 743 943 l 663 565 q 493 614 593 594 q 619 824 554 738 q 743 943 683 911 "},"Ậ":{"ha":928,"x_min":13,"x_max":1061,"o":"m 949 1389 l 654 1126 l 715 1126 l 932 1238 l 1015 1126 l 1061 1126 l 978 1389 l 949 1389 m 303 -158 q 283 -81 283 -133 q 334 205 283 26 q 464 554 385 383 q 556 539 513 550 q 650 504 599 528 l 543 0 l 743 0 l 961 1022 q 851 1042 918 1042 q 609 927 736 1042 q 368 632 482 813 q 296 636 325 636 q 151 613 217 636 q 49 551 86 590 q 13 465 13 513 q 36 406 13 426 q 99 385 60 385 q 154 399 132 385 q 176 439 176 414 q 170 468 176 454 q 158 482 164 482 q 211 533 171 517 q 321 554 251 550 q 173 239 229 396 q 117 -11 117 82 q 145 -110 117 -78 q 213 -150 174 -142 q 303 -158 251 -158 m 743 943 l 663 565 q 493 614 593 594 q 619 824 554 738 q 743 943 683 911 m 518 -321 q 597 -289 564 -321 q 629 -211 629 -257 q 597 -133 629 -165 q 518 -100 564 -100 q 440 -133 472 -100 q 407 -211 407 -165 q 440 -289 407 -257 q 518 -321 472 -321 "},"Ầ":{"ha":928,"x_min":13,"x_max":1129,"o":"m 1011 1389 l 1074 1201 l 1129 1201 l 1103 1389 l 1011 1389 m 926 1319 l 679 1126 l 761 1126 l 914 1226 l 958 1126 l 1021 1126 l 951 1319 l 926 1319 m 303 -158 q 283 -81 283 -133 q 334 205 283 26 q 464 554 385 383 q 556 539 513 550 q 650 504 599 528 l 543 0 l 743 0 l 961 1022 q 851 1042 918 1042 q 609 927 736 1042 q 368 632 482 813 q 296 636 325 636 q 151 613 217 636 q 49 551 86 590 q 13 465 13 513 q 36 406 13 426 q 99 385 60 385 q 154 399 132 385 q 176 439 176 414 q 170 468 176 454 q 158 482 164 482 q 211 533 171 517 q 321 554 251 550 q 173 239 229 396 q 117 -11 117 82 q 145 -110 117 -78 q 213 -150 174 -142 q 303 -158 251 -158 m 743 943 l 663 565 q 493 614 593 594 q 619 824 554 738 q 743 943 683 911 "},"Ẩ":{"ha":928,"x_min":13,"x_max":1193,"o":"m 1038 1189 l 1083 1186 l 1088 1226 q 1164 1253 1135 1229 q 1193 1311 1193 1276 q 1165 1367 1193 1346 q 1090 1389 1136 1389 q 1039 1382 1065 1389 q 997 1364 1013 1375 l 1022 1325 q 1081 1340 1049 1340 q 1126 1306 1126 1340 q 1081 1268 1126 1268 q 1038 1274 1065 1268 l 1038 1189 m 926 1319 l 679 1126 l 761 1126 l 914 1226 l 958 1126 l 1021 1126 l 951 1319 l 926 1319 m 303 -158 q 283 -81 283 -133 q 334 205 283 26 q 464 554 385 383 q 556 539 513 550 q 650 504 599 528 l 543 0 l 743 0 l 961 1022 q 851 1042 918 1042 q 609 927 736 1042 q 368 632 482 813 q 296 636 325 636 q 151 613 217 636 q 49 551 86 590 q 13 465 13 513 q 36 406 13 426 q 99 385 60 385 q 154 399 132 385 q 176 439 176 414 q 170 468 176 454 q 158 482 164 482 q 211 533 171 517 q 321 554 251 550 q 173 239 229 396 q 117 -11 117 82 q 145 -110 117 -78 q 213 -150 174 -142 q 303 -158 251 -158 m 743 943 l 663 565 q 493 614 593 594 q 619 824 554 738 q 743 943 683 911 "},"Ẫ":{"ha":928,"x_min":13,"x_max":1136,"o":"m 1136 1376 l 1129 1378 q 1069 1356 1108 1356 q 997 1371 1040 1356 q 951 1384 971 1379 q 907 1389 932 1389 q 809 1364 851 1389 q 743 1292 767 1339 l 750 1290 q 813 1315 778 1315 q 853 1309 832 1315 q 896 1296 875 1303 l 679 1126 l 761 1126 l 914 1226 l 958 1126 l 1021 1126 l 967 1278 l 978 1278 q 1081 1309 1032 1278 q 1136 1376 1129 1340 m 368 632 q 296 636 325 636 q 151 613 217 636 q 49 551 86 590 q 13 465 13 513 q 36 406 13 426 q 99 385 60 385 q 154 399 132 385 q 176 439 176 414 q 170 468 176 454 q 158 482 164 482 q 211 533 171 517 q 321 554 251 550 q 173 239 229 396 q 117 -11 117 82 q 145 -110 117 -78 q 213 -150 174 -142 q 303 -158 251 -158 q 283 -81 283 -133 q 334 205 283 26 q 464 554 385 383 q 556 539 513 550 q 650 504 599 528 l 543 0 l 743 0 l 961 1022 q 851 1042 918 1042 q 609 927 736 1042 q 368 632 482 813 m 743 943 l 663 565 q 493 614 593 594 q 619 824 554 738 q 743 943 683 911 "},"Ȁ":{"ha":928,"x_min":13,"x_max":983,"o":"m 488 1389 l 683 1126 l 760 1126 l 633 1389 l 488 1389 m 713 1389 l 908 1126 l 983 1126 l 858 1389 l 713 1389 m 303 -158 q 283 -81 283 -133 q 334 205 283 26 q 464 554 385 383 q 556 539 513 550 q 650 504 599 528 l 543 0 l 743 0 l 961 1022 q 851 1042 918 1042 q 609 927 736 1042 q 368 632 482 813 q 296 636 325 636 q 151 613 217 636 q 49 551 86 590 q 13 465 13 513 q 36 406 13 426 q 99 385 60 385 q 154 399 132 385 q 176 439 176 414 q 170 468 176 454 q 158 482 164 482 q 211 533 171 517 q 321 554 251 550 q 173 239 229 396 q 117 -11 117 82 q 145 -110 117 -78 q 213 -150 174 -142 q 303 -158 251 -158 m 743 943 l 663 565 q 493 614 593 594 q 619 824 554 738 q 743 943 683 911 "},"Ä":{"ha":928,"x_min":13,"x_max":1050,"o":"m 717 1143 q 775 1167 750 1143 q 800 1228 800 1192 q 775 1288 800 1263 q 717 1313 750 1313 q 656 1288 681 1313 q 632 1228 632 1263 q 656 1167 632 1192 q 717 1143 679 1143 m 965 1143 q 1026 1167 1001 1143 q 1050 1228 1050 1192 q 1025 1288 1050 1263 q 965 1313 1000 1313 q 906 1288 931 1313 q 881 1228 881 1263 q 905 1167 881 1192 q 965 1143 929 1143 m 303 -158 q 283 -81 283 -133 q 334 205 283 26 q 464 554 385 383 q 556 539 513 550 q 650 504 599 528 l 543 0 l 743 0 l 961 1022 q 851 1042 918 1042 q 609 927 736 1042 q 368 632 482 813 q 296 636 325 636 q 151 613 217 636 q 49 551 86 590 q 13 465 13 513 q 36 406 13 426 q 99 385 60 385 q 154 399 132 385 q 176 439 176 414 q 170 468 176 454 q 158 482 164 482 q 211 533 171 517 q 321 554 251 550 q 173 239 229 396 q 117 -11 117 82 q 145 -110 117 -78 q 213 -150 174 -142 q 303 -158 251 -158 m 743 943 l 663 565 q 493 614 593 594 q 619 824 554 738 q 743 943 683 911 "},"Ạ":{"ha":928,"x_min":13,"x_max":961,"o":"m 303 -158 q 283 -81 283 -133 q 334 205 283 26 q 464 554 385 383 q 556 539 513 550 q 650 504 599 528 l 543 0 l 743 0 l 961 1022 q 851 1042 918 1042 q 609 927 736 1042 q 368 632 482 813 q 296 636 325 636 q 151 613 217 636 q 49 551 86 590 q 13 465 13 513 q 36 406 13 426 q 99 385 60 385 q 154 399 132 385 q 176 439 176 414 q 170 468 176 454 q 158 482 164 482 q 211 533 171 517 q 321 554 251 550 q 173 239 229 396 q 117 -11 117 82 q 145 -110 117 -78 q 213 -150 174 -142 q 303 -158 251 -158 m 743 943 l 663 565 q 493 614 593 594 q 619 824 554 738 q 743 943 683 911 m 518 -321 q 597 -289 564 -321 q 629 -211 629 -257 q 597 -133 629 -165 q 518 -100 564 -100 q 440 -133 472 -100 q 407 -211 407 -165 q 440 -289 407 -257 q 518 -321 472 -321 "},"À":{"ha":928,"x_min":13,"x_max":961,"o":"m 675 1389 l 757 1126 l 861 1126 l 821 1389 l 675 1389 m 303 -158 q 283 -81 283 -133 q 334 205 283 26 q 464 554 385 383 q 556 539 513 550 q 650 504 599 528 l 543 0 l 743 0 l 961 1022 q 851 1042 918 1042 q 609 927 736 1042 q 368 632 482 813 q 296 636 325 636 q 151 613 217 636 q 49 551 86 590 q 13 465 13 513 q 36 406 13 426 q 99 385 60 385 q 154 399 132 385 q 176 439 176 414 q 170 468 176 454 q 158 482 164 482 q 211 533 171 517 q 321 554 251 550 q 173 239 229 396 q 117 -11 117 82 q 145 -110 117 -78 q 213 -150 174 -142 q 303 -158 251 -158 m 743 943 l 663 565 q 493 614 593 594 q 619 824 554 738 q 743 943 683 911 "},"Ả":{"ha":928,"x_min":13,"x_max":1031,"o":"m 810 1103 l 874 1100 l 885 1157 q 990 1196 950 1163 q 1031 1276 1031 1229 q 990 1358 1031 1326 q 888 1389 950 1389 q 813 1379 851 1389 q 751 1354 775 1369 l 788 1296 q 871 1318 822 1318 q 936 1268 936 1318 q 919 1231 936 1244 q 871 1218 901 1218 q 810 1225 844 1218 l 810 1103 m 303 -158 q 283 -81 283 -133 q 334 205 283 26 q 464 554 385 383 q 556 539 513 550 q 650 504 599 528 l 543 0 l 743 0 l 961 1022 q 851 1042 918 1042 q 609 927 736 1042 q 368 632 482 813 q 296 636 325 636 q 151 613 217 636 q 49 551 86 590 q 13 465 13 513 q 36 406 13 426 q 99 385 60 385 q 154 399 132 385 q 176 439 176 414 q 170 468 176 454 q 158 482 164 482 q 211 533 171 517 q 321 554 251 550 q 173 239 229 396 q 117 -11 117 82 q 145 -110 117 -78 q 213 -150 174 -142 q 303 -158 251 -158 m 743 943 l 663 565 q 493 614 593 594 q 619 824 554 738 q 743 943 683 911 "},"Ȃ":{"ha":928,"x_min":13,"x_max":1124,"o":"m 619 1142 l 739 1142 q 790 1224 746 1190 q 890 1257 833 1257 q 972 1227 943 1257 q 1000 1142 1000 1197 l 1124 1142 q 1069 1284 1124 1235 q 913 1333 1015 1333 q 774 1308 839 1333 q 668 1239 710 1283 q 619 1142 626 1194 m 303 -158 q 283 -81 283 -133 q 334 205 283 26 q 464 554 385 383 q 556 539 513 550 q 650 504 599 528 l 543 0 l 743 0 l 961 1022 q 851 1042 918 1042 q 609 927 736 1042 q 368 632 482 813 q 296 636 325 636 q 151 613 217 636 q 49 551 86 590 q 13 465 13 513 q 36 406 13 426 q 99 385 60 385 q 154 399 132 385 q 176 439 176 414 q 170 468 176 454 q 158 482 164 482 q 211 533 171 517 q 321 554 251 550 q 173 239 229 396 q 117 -11 117 82 q 145 -110 117 -78 q 213 -150 174 -142 q 303 -158 251 -158 m 743 943 l 663 565 q 493 614 593 594 q 619 824 554 738 q 743 943 683 911 "},"Ā":{"ha":928,"x_min":13,"x_max":1086,"o":"m 642 1282 l 619 1179 l 1065 1179 l 1086 1282 l 642 1282 m 303 -158 q 283 -81 283 -133 q 334 205 283 26 q 464 554 385 383 q 556 539 513 550 q 650 504 599 528 l 543 0 l 743 0 l 961 1022 q 851 1042 918 1042 q 609 927 736 1042 q 368 632 482 813 q 296 636 325 636 q 151 613 217 636 q 49 551 86 590 q 13 465 13 513 q 36 406 13 426 q 99 385 60 385 q 154 399 132 385 q 176 439 176 414 q 170 468 176 454 q 158 482 164 482 q 211 533 171 517 q 321 554 251 550 q 173 239 229 396 q 117 -11 117 82 q 145 -110 117 -78 q 213 -150 174 -142 q 303 -158 251 -158 m 743 943 l 663 565 q 493 614 593 594 q 619 824 554 738 q 743 943 683 911 "},"Ą":{"ha":928,"x_min":13,"x_max":961,"o":"m 611 -268 q 690 -245 657 -268 q 763 -182 722 -222 q 765 -139 763 -172 q 740 -156 757 -144 q 706 -177 724 -168 q 671 -186 689 -186 q 631 -165 644 -186 q 617 -117 617 -144 q 639 -49 617 -82 q 692 0 661 -17 l 743 0 l 961 1022 q 851 1042 918 1042 q 609 927 736 1042 q 368 632 482 813 q 296 636 325 636 q 151 613 217 636 q 49 551 86 590 q 13 465 13 513 q 36 406 13 426 q 99 385 60 385 q 154 399 132 385 q 176 439 176 414 q 170 468 176 454 q 158 482 164 482 q 211 533 171 517 q 321 554 251 550 q 173 239 229 396 q 117 -11 117 82 q 145 -110 117 -78 q 213 -150 174 -142 q 303 -158 251 -158 q 283 -81 283 -133 q 334 205 283 26 q 464 554 385 383 q 556 539 513 550 q 650 504 599 528 l 543 0 l 600 0 q 526 -81 551 -39 q 501 -160 501 -122 q 530 -235 501 -201 q 611 -268 558 -268 m 743 943 l 663 565 q 493 614 593 594 q 619 824 554 738 q 743 943 683 911 "},"Å":{"ha":928,"x_min":13,"x_max":961,"o":"m 832 1114 q 923 1147 893 1114 q 953 1231 953 1181 q 927 1308 953 1278 q 853 1338 901 1338 q 765 1297 796 1338 q 735 1211 735 1256 q 761 1142 735 1169 q 832 1114 788 1114 m 838 1163 q 790 1214 790 1163 q 806 1268 790 1244 q 856 1292 822 1292 q 893 1274 885 1292 q 901 1226 901 1256 q 885 1179 901 1196 q 838 1163 869 1163 m 303 -158 q 283 -81 283 -133 q 334 205 283 26 q 464 554 385 383 q 556 539 513 550 q 650 504 599 528 l 543 0 l 743 0 l 961 1022 q 851 1042 918 1042 q 609 927 736 1042 q 368 632 482 813 q 296 636 325 636 q 151 613 217 636 q 49 551 86 590 q 13 465 13 513 q 36 406 13 426 q 99 385 60 385 q 154 399 132 385 q 176 439 176 414 q 170 468 176 454 q 158 482 164 482 q 211 533 171 517 q 321 554 251 550 q 173 239 229 396 q 117 -11 117 82 q 145 -110 117 -78 q 213 -150 174 -142 q 303 -158 251 -158 m 743 943 l 663 565 q 493 614 593 594 q 619 824 554 738 q 743 943 683 911 "},"Ǻ":{"ha":928,"x_min":13,"x_max":1099,"o":"m 983 1138 q 956 1217 983 1186 l 1099 1389 l 953 1389 l 885 1244 q 801 1208 836 1244 q 767 1118 767 1171 q 807 1038 767 1064 q 585 905 700 1015 q 368 632 471 794 q 296 636 325 636 q 151 613 217 636 q 49 551 86 590 q 13 465 13 513 q 36 406 13 426 q 99 385 60 385 q 154 399 132 385 q 176 439 176 414 q 170 468 176 454 q 158 482 164 482 q 211 533 171 517 q 321 554 251 550 q 173 239 229 396 q 117 -11 117 82 q 145 -110 117 -78 q 213 -150 174 -142 q 303 -158 251 -158 q 283 -81 283 -133 q 334 205 283 26 q 464 554 385 383 q 556 539 513 550 q 650 504 599 528 l 543 0 l 743 0 l 961 1022 q 926 1033 949 1028 q 969 1074 954 1047 q 983 1138 983 1101 m 883 1178 q 908 1167 899 1178 q 917 1139 917 1157 q 874 1089 917 1089 q 848 1099 857 1089 q 839 1124 839 1108 q 851 1163 839 1149 q 883 1178 864 1178 m 743 943 l 663 565 q 493 614 593 594 q 619 824 554 738 q 743 943 683 911 "},"Ã":{"ha":928,"x_min":13,"x_max":1125,"o":"m 901 1138 q 1001 1158 953 1138 q 1084 1212 1050 1179 q 1125 1276 1118 1244 l 1117 1278 q 1029 1246 1085 1246 q 928 1267 988 1246 q 865 1285 893 1279 q 800 1292 836 1292 q 661 1257 721 1292 q 568 1156 601 1222 l 576 1153 q 668 1189 617 1189 q 717 1183 693 1189 q 774 1165 742 1176 q 840 1144 811 1151 q 901 1138 869 1138 m 303 -158 q 283 -81 283 -133 q 334 205 283 26 q 464 554 385 383 q 556 539 513 550 q 650 504 599 528 l 543 0 l 743 0 l 961 1022 q 851 1042 918 1042 q 609 927 736 1042 q 368 632 482 813 q 296 636 325 636 q 151 613 217 636 q 49 551 86 590 q 13 465 13 513 q 36 406 13 426 q 99 385 60 385 q 154 399 132 385 q 176 439 176 414 q 170 468 176 454 q 158 482 164 482 q 211 533 171 517 q 321 554 251 550 q 173 239 229 396 q 117 -11 117 82 q 145 -110 117 -78 q 213 -150 174 -142 q 303 -158 251 -158 m 743 943 l 663 565 q 493 614 593 594 q 619 824 554 738 q 743 943 683 911 "},"Æ":{"ha":1061,"x_min":13,"x_max":1263,"o":"m 303 -157 q 293 -142 303 -154 q 283 -79 283 -131 q 334 206 283 29 q 463 554 385 383 q 650 504 553 547 l 543 0 l 1056 0 l 1085 147 l 774 147 l 844 479 l 1054 479 l 1082 582 l 867 582 l 942 933 q 981 918 953 929 q 1042 898 1010 907 q 1114 889 1074 889 q 1200 915 1167 889 q 1247 988 1233 942 q 1263 1042 1260 1033 q 1100 1015 1185 1015 q 1030 1020 1067 1015 q 960 1031 993 1025 q 850 1043 892 1043 q 607 927 735 1043 q 365 628 479 811 q 283 632 319 632 q 150 610 213 632 q 50 551 88 588 q 13 472 13 514 q 35 406 13 428 q 92 385 58 385 q 156 400 135 385 q 176 439 176 415 q 170 468 176 454 q 158 482 164 482 q 213 534 174 518 q 321 554 253 550 q 173 242 229 397 q 117 -1 117 88 q 142 -103 117 -71 q 203 -145 167 -136 q 303 -157 240 -154 m 743 943 l 663 565 q 490 613 586 594 q 617 823 551 736 q 743 943 682 910 "},"Ǽ":{"ha":1061,"x_min":13,"x_max":1263,"o":"m 1008 1389 l 882 1126 l 957 1126 l 1154 1389 l 1008 1389 m 303 -157 q 293 -142 303 -154 q 283 -79 283 -131 q 334 206 283 29 q 463 554 385 383 q 650 504 553 547 l 543 0 l 1056 0 l 1085 147 l 774 147 l 844 479 l 1054 479 l 1082 582 l 867 582 l 942 933 q 981 918 953 929 q 1042 898 1010 907 q 1114 889 1074 889 q 1200 915 1167 889 q 1247 988 1233 942 q 1263 1042 1260 1033 q 1100 1015 1185 1015 q 1030 1020 1067 1015 q 960 1031 993 1025 q 850 1043 892 1043 q 607 927 735 1043 q 365 628 479 811 q 283 632 319 632 q 150 610 213 632 q 50 551 88 588 q 13 472 13 514 q 35 406 13 428 q 92 385 58 385 q 156 400 135 385 q 176 439 176 415 q 170 468 176 454 q 158 482 164 482 q 213 534 174 518 q 321 554 253 550 q 173 242 229 397 q 117 -1 117 88 q 142 -103 117 -71 q 203 -145 167 -136 q 303 -157 240 -154 m 743 943 l 663 565 q 490 613 586 594 q 617 823 551 736 q 743 943 682 910 "},"B":{"ha":890,"x_min":17,"x_max":842,"o":"m 538 -24 q 713 44 644 -24 q 812 204 782 111 q 842 376 842 297 q 801 523 842 461 q 678 600 761 585 q 781 697 744 638 q 817 821 817 757 q 784 931 817 881 q 685 1011 751 981 q 521 1042 618 1042 q 275 990 392 1042 q 88 853 158 938 q 17 674 17 768 q 54 576 17 606 q 165 546 92 546 q 156 569 165 549 q 146 640 146 589 q 197 825 146 749 q 328 940 247 901 q 493 978 408 978 q 631 935 586 978 q 676 828 676 892 q 649 723 676 775 q 575 637 621 671 q 476 603 529 603 l 468 603 l 533 911 l 328 883 l 139 0 l 339 0 l 453 532 q 517 536 479 536 q 649 360 649 536 q 615 188 649 265 q 511 110 581 110 q 465 121 486 110 q 418 160 443 132 q 400 79 400 115 q 441 -1 400 22 q 538 -24 482 -24 "},"C":{"ha":690,"x_min":26,"x_max":743,"o":"m 331 -22 q 478 5 400 -22 q 624 90 556 32 q 726 236 692 149 l 694 250 q 575 147 644 183 q 424 111 506 111 q 293 167 329 111 q 257 328 257 222 q 298 622 257 469 q 406 876 339 775 q 546 976 472 976 q 610 953 590 976 q 631 892 631 929 q 611 814 631 851 q 567 764 592 776 q 646 728 596 728 q 719 762 696 728 q 743 856 743 796 q 679 996 743 950 q 511 1042 615 1042 q 234 922 343 1042 q 76 633 125 801 q 26 319 26 465 q 100 57 26 136 q 331 -22 174 -22 "},"Ć":{"ha":690,"x_min":26,"x_max":743,"o":"m 594 1389 l 468 1126 l 572 1126 l 740 1389 l 594 1389 m 331 -22 q 478 5 400 -22 q 624 90 556 32 q 726 236 692 149 l 694 250 q 575 147 644 183 q 424 111 506 111 q 293 167 329 111 q 257 328 257 222 q 298 622 257 469 q 406 876 339 775 q 546 976 472 976 q 610 953 590 976 q 631 892 631 929 q 611 814 631 851 q 567 764 592 776 q 646 728 596 728 q 719 762 696 728 q 743 856 743 796 q 679 996 743 950 q 511 1042 615 1042 q 234 922 343 1042 q 76 633 125 801 q 26 319 26 465 q 100 57 26 136 q 331 -22 174 -22 "},"Č":{"ha":690,"x_min":26,"x_max":813,"o":"m 406 1389 l 489 1126 l 518 1126 l 813 1389 l 751 1389 l 533 1278 l 450 1389 l 406 1389 m 331 -22 q 478 5 400 -22 q 624 90 556 32 q 726 236 692 149 l 694 250 q 575 147 644 183 q 424 111 506 111 q 293 167 329 111 q 257 328 257 222 q 298 622 257 469 q 406 876 339 775 q 546 976 472 976 q 610 953 590 976 q 631 892 631 929 q 611 814 631 851 q 567 764 592 776 q 646 728 596 728 q 719 762 696 728 q 743 856 743 796 q 679 996 743 950 q 511 1042 615 1042 q 234 922 343 1042 q 76 633 125 801 q 26 319 26 465 q 100 57 26 136 q 331 -22 174 -22 "},"Ç":{"ha":690,"x_min":26,"x_max":743,"o":"m 336 -303 q 453 -262 403 -303 q 503 -150 503 -221 q 417 -81 503 -81 q 343 -92 390 -81 l 372 -19 q 580 57 479 -7 q 726 236 681 121 l 694 250 q 575 147 644 183 q 424 111 506 111 q 293 167 329 111 q 257 328 257 222 q 298 622 257 469 q 406 876 339 775 q 546 976 472 976 q 610 953 590 976 q 631 892 631 929 q 611 814 631 851 q 567 764 592 776 q 646 728 596 728 q 719 762 696 728 q 743 856 743 796 q 679 996 743 950 q 511 1042 615 1042 q 234 922 343 1042 q 76 633 125 801 q 26 319 26 465 q 95 61 26 140 q 313 -22 164 -18 l 261 -165 q 294 -153 279 -157 q 333 -149 308 -149 q 374 -162 361 -149 q 388 -199 388 -176 q 375 -239 388 -221 q 346 -257 363 -257 q 303 -240 328 -257 q 276 -225 288 -231 q 243 -219 264 -219 q 188 -264 213 -219 q 257 -293 225 -283 q 336 -303 289 -303 "},"Ĉ":{"ha":690,"x_min":26,"x_max":743,"o":"m 575 1389 l 281 1126 l 342 1126 l 560 1238 l 643 1126 l 688 1126 l 604 1389 l 575 1389 m 331 -22 q 478 5 400 -22 q 624 90 556 32 q 726 236 692 149 l 694 250 q 575 147 644 183 q 424 111 506 111 q 293 167 329 111 q 257 328 257 222 q 298 622 257 469 q 406 876 339 775 q 546 976 472 976 q 610 953 590 976 q 631 892 631 929 q 611 814 631 851 q 567 764 592 776 q 646 728 596 728 q 719 762 696 728 q 743 856 743 796 q 679 996 743 950 q 511 1042 615 1042 q 234 922 343 1042 q 76 633 125 801 q 26 319 26 465 q 100 57 26 136 q 331 -22 174 -22 "},"Ċ":{"ha":690,"x_min":26,"x_max":743,"o":"m 618 1142 q 697 1173 664 1142 q 729 1250 729 1204 q 697 1329 729 1297 q 618 1361 664 1361 q 540 1329 572 1361 q 508 1250 508 1297 q 540 1173 508 1204 q 618 1142 572 1142 m 331 -22 q 478 5 400 -22 q 624 90 556 32 q 726 236 692 149 l 694 250 q 575 147 644 183 q 424 111 506 111 q 293 167 329 111 q 257 328 257 222 q 298 622 257 469 q 406 876 339 775 q 546 976 472 976 q 610 953 590 976 q 631 892 631 929 q 611 814 631 851 q 567 764 592 776 q 646 728 596 728 q 719 762 696 728 q 743 856 743 796 q 679 996 743 950 q 511 1042 615 1042 q 234 922 343 1042 q 76 633 125 801 q 26 319 26 465 q 100 57 26 136 q 331 -22 174 -22 "},"D":{"ha":921,"x_min":8,"x_max":896,"o":"m 511 -18 q 700 79 611 -18 q 842 330 789 176 q 896 642 896 483 q 806 929 896 817 q 525 1042 715 1042 q 269 990 388 1042 q 79 854 150 939 q 8 675 8 769 q 47 576 8 607 q 157 546 85 546 q 147 569 157 549 q 138 640 138 589 q 185 819 138 743 q 315 937 232 896 q 501 978 397 978 q 651 915 597 978 q 704 715 704 851 q 671 429 704 571 q 577 196 638 288 q 438 104 517 104 q 358 132 397 104 l 525 911 l 319 883 l 131 0 l 331 0 l 342 56 q 511 -18 428 -18 "},"Ð":{"ha":921,"x_min":8,"x_max":896,"o":"m 511 -18 q 700 78 611 -18 q 842 332 789 174 q 896 667 896 490 q 496 1042 896 1042 q 268 990 382 1042 q 81 853 154 938 q 8 681 8 769 q 45 577 8 608 q 157 546 82 546 q 147 569 157 549 q 138 640 138 589 q 184 821 138 744 q 315 938 231 897 q 513 978 400 978 q 632 947 590 978 q 689 858 674 915 q 704 706 704 800 q 671 428 704 568 q 576 196 638 288 q 438 104 515 104 q 358 132 397 104 l 432 479 l 536 479 l 564 582 l 454 582 l 525 911 l 319 883 l 256 582 l 207 582 l 179 479 l 233 479 l 131 0 l 331 0 l 342 56 q 511 -18 428 -18 "},"Ď":{"ha":921,"x_min":8,"x_max":896,"o":"m 415 1389 l 499 1126 l 528 1126 l 822 1389 l 761 1389 l 543 1278 l 460 1389 l 415 1389 m 511 -18 q 700 79 611 -18 q 842 330 789 176 q 896 642 896 483 q 806 929 896 817 q 525 1042 715 1042 q 269 990 388 1042 q 79 854 150 939 q 8 675 8 769 q 47 576 8 607 q 157 546 85 546 q 147 569 157 549 q 138 640 138 589 q 185 819 138 743 q 315 937 232 896 q 501 978 397 978 q 651 915 597 978 q 704 715 704 851 q 671 429 704 571 q 577 196 638 288 q 438 104 517 104 q 358 132 397 104 l 525 911 l 319 883 l 131 0 l 331 0 l 342 56 q 511 -18 428 -18 "},"Đ":{"ha":921,"x_min":8,"x_max":896,"o":"m 511 -18 q 700 78 611 -18 q 842 332 789 174 q 896 667 896 490 q 496 1042 896 1042 q 268 990 382 1042 q 81 853 154 938 q 8 681 8 769 q 45 577 8 608 q 157 546 82 546 q 147 569 157 549 q 138 640 138 589 q 184 821 138 744 q 315 938 231 897 q 513 978 400 978 q 632 947 590 978 q 689 858 674 915 q 704 706 704 800 q 671 428 704 568 q 576 196 638 288 q 438 104 515 104 q 358 132 397 104 l 432 479 l 536 479 l 564 582 l 454 582 l 525 911 l 319 883 l 256 582 l 207 582 l 179 479 l 233 479 l 131 0 l 331 0 l 342 56 q 511 -18 428 -18 "},"Ḍ":{"ha":921,"x_min":8,"x_max":896,"o":"m 511 -18 q 700 79 611 -18 q 842 330 789 176 q 896 642 896 483 q 806 929 896 817 q 525 1042 715 1042 q 269 990 388 1042 q 79 854 150 939 q 8 675 8 769 q 47 576 8 607 q 157 546 85 546 q 147 569 157 549 q 138 640 138 589 q 185 819 138 743 q 315 937 232 896 q 501 978 397 978 q 651 915 597 978 q 704 715 704 851 q 671 429 704 571 q 577 196 638 288 q 438 104 517 104 q 358 132 397 104 l 525 911 l 319 883 l 131 0 l 331 0 l 342 56 q 511 -18 428 -18 m 368 -321 q 447 -289 414 -321 q 479 -211 479 -257 q 447 -133 479 -165 q 368 -100 414 -100 q 290 -133 322 -100 q 258 -211 258 -165 q 290 -289 258 -257 q 368 -321 322 -321 "},"E":{"ha":638,"x_min":10,"x_max":685,"o":"m 265 -25 q 506 46 393 -25 q 672 236 618 117 l 640 250 q 528 147 604 185 q 383 108 453 108 q 284 147 317 108 q 251 249 251 186 q 283 385 251 314 q 372 511 315 457 q 500 581 429 565 q 394 649 429 599 q 360 767 360 700 q 378 860 360 815 q 428 934 396 906 q 501 963 461 963 q 556 944 533 963 q 578 885 578 925 q 560 810 578 847 q 517 764 542 772 q 582 726 544 726 q 654 768 624 726 q 685 871 685 810 q 629 999 685 953 q 486 1044 574 1044 q 331 1001 401 1044 q 222 888 261 957 q 182 746 182 818 q 203 653 182 697 q 267 579 224 610 q 131 503 189 560 q 41 370 72 446 q 10 219 10 294 q 74 44 10 114 q 265 -25 139 -25 "},"É":{"ha":638,"x_min":10,"x_max":731,"o":"m 585 1389 l 458 1126 l 563 1126 l 731 1389 l 585 1389 m 265 -25 q 506 46 393 -25 q 672 236 618 117 l 640 250 q 528 147 604 185 q 383 108 453 108 q 284 147 317 108 q 251 249 251 186 q 283 385 251 314 q 372 511 315 457 q 500 581 429 565 q 394 649 429 599 q 360 767 360 700 q 378 860 360 815 q 428 934 396 906 q 501 963 461 963 q 556 944 533 963 q 578 885 578 925 q 560 810 578 847 q 517 764 542 772 q 582 726 544 726 q 654 768 624 726 q 685 871 685 810 q 629 999 685 953 q 486 1044 574 1044 q 331 1001 401 1044 q 222 888 261 957 q 182 746 182 818 q 203 653 182 697 q 267 579 224 610 q 131 503 189 560 q 41 370 72 446 q 10 219 10 294 q 74 44 10 114 q 265 -25 139 -25 "},"Ĕ":{"ha":638,"x_min":10,"x_max":813,"o":"m 521 1132 q 658 1158 594 1132 q 764 1227 722 1183 q 813 1325 806 1271 l 694 1325 q 643 1243 688 1276 q 542 1210 599 1210 q 461 1240 489 1210 q 433 1325 433 1269 l 308 1325 q 363 1181 308 1231 q 521 1132 417 1132 m 265 -25 q 506 46 393 -25 q 672 236 618 117 l 640 250 q 528 147 604 185 q 383 108 453 108 q 284 147 317 108 q 251 249 251 186 q 283 385 251 314 q 372 511 315 457 q 500 581 429 565 q 394 649 429 599 q 360 767 360 700 q 378 860 360 815 q 428 934 396 906 q 501 963 461 963 q 556 944 533 963 q 578 885 578 925 q 560 810 578 847 q 517 764 542 772 q 582 726 544 726 q 654 768 624 726 q 685 871 685 810 q 629 999 685 953 q 486 1044 574 1044 q 331 1001 401 1044 q 222 888 261 957 q 182 746 182 818 q 203 653 182 697 q 267 579 224 610 q 131 503 189 560 q 41 370 72 446 q 10 219 10 294 q 74 44 10 114 q 265 -25 139 -25 "},"Ě":{"ha":638,"x_min":10,"x_max":822,"o":"m 415 1389 l 499 1126 l 528 1126 l 822 1389 l 761 1389 l 543 1278 l 460 1389 l 415 1389 m 265 -25 q 506 46 393 -25 q 672 236 618 117 l 640 250 q 528 147 604 185 q 383 108 453 108 q 284 147 317 108 q 251 249 251 186 q 283 385 251 314 q 372 511 315 457 q 500 581 429 565 q 394 649 429 599 q 360 767 360 700 q 378 860 360 815 q 428 934 396 906 q 501 963 461 963 q 556 944 533 963 q 578 885 578 925 q 560 810 578 847 q 517 764 542 772 q 582 726 544 726 q 654 768 624 726 q 685 871 685 810 q 629 999 685 953 q 486 1044 574 1044 q 331 1001 401 1044 q 222 888 261 957 q 182 746 182 818 q 203 653 182 697 q 267 579 224 610 q 131 503 189 560 q 41 370 72 446 q 10 219 10 294 q 74 44 10 114 q 265 -25 139 -25 "},"Ê":{"ha":638,"x_min":10,"x_max":688,"o":"m 575 1389 l 281 1126 l 342 1126 l 560 1238 l 643 1126 l 688 1126 l 604 1389 l 575 1389 m 265 -25 q 506 46 393 -25 q 672 236 618 117 l 640 250 q 528 147 604 185 q 383 108 453 108 q 284 147 317 108 q 251 249 251 186 q 283 385 251 314 q 372 511 315 457 q 500 581 429 565 q 394 649 429 599 q 360 767 360 700 q 378 860 360 815 q 428 934 396 906 q 501 963 461 963 q 556 944 533 963 q 578 885 578 925 q 560 810 578 847 q 517 764 542 772 q 582 726 544 726 q 654 768 624 726 q 685 871 685 810 q 629 999 685 953 q 486 1044 574 1044 q 331 1001 401 1044 q 222 888 261 957 q 182 746 182 818 q 203 653 182 697 q 267 579 224 610 q 131 503 189 560 q 41 370 72 446 q 10 219 10 294 q 74 44 10 114 q 265 -25 139 -25 "},"Ế":{"ha":638,"x_min":10,"x_max":849,"o":"m 753 1389 l 667 1203 l 728 1203 l 849 1389 l 753 1389 m 581 1319 l 333 1126 l 415 1126 l 568 1226 l 613 1126 l 675 1126 l 606 1319 l 581 1319 m 265 -25 q 506 46 393 -25 q 672 236 618 117 l 640 250 q 528 147 604 185 q 383 108 453 108 q 284 147 317 108 q 251 249 251 186 q 283 385 251 314 q 372 511 315 457 q 500 581 429 565 q 394 649 429 599 q 360 767 360 700 q 378 860 360 815 q 428 934 396 906 q 501 963 461 963 q 556 944 533 963 q 578 885 578 925 q 560 810 578 847 q 517 764 542 772 q 582 726 544 726 q 654 768 624 726 q 685 871 685 810 q 629 999 685 953 q 486 1044 574 1044 q 331 1001 401 1044 q 222 888 261 957 q 182 746 182 818 q 203 653 182 697 q 267 579 224 610 q 131 503 189 560 q 41 370 72 446 q 10 219 10 294 q 74 44 10 114 q 265 -25 139 -25 "},"Ệ":{"ha":638,"x_min":10,"x_max":688,"o":"m 575 1389 l 281 1126 l 342 1126 l 560 1238 l 643 1126 l 688 1126 l 604 1389 l 575 1389 m 265 -25 q 506 46 393 -25 q 672 236 618 117 l 640 250 q 528 147 604 185 q 383 108 453 108 q 284 147 317 108 q 251 249 251 186 q 283 385 251 314 q 372 511 315 457 q 500 581 429 565 q 394 649 429 599 q 360 767 360 700 q 378 860 360 815 q 428 934 396 906 q 501 963 461 963 q 556 944 533 963 q 578 885 578 925 q 560 810 578 847 q 517 764 542 772 q 582 726 544 726 q 654 768 624 726 q 685 871 685 810 q 629 999 685 953 q 486 1044 574 1044 q 331 1001 401 1044 q 222 888 261 957 q 182 746 182 818 q 203 653 182 697 q 267 579 224 610 q 131 503 189 560 q 41 370 72 446 q 10 219 10 294 q 74 44 10 114 q 265 -25 139 -25 m 213 -321 q 291 -289 258 -321 q 324 -211 324 -257 q 291 -133 324 -165 q 213 -100 258 -100 q 135 -133 167 -100 q 103 -211 103 -165 q 135 -289 103 -257 q 213 -321 167 -321 "},"Ề":{"ha":638,"x_min":10,"x_max":783,"o":"m 665 1389 l 728 1201 l 783 1201 l 757 1389 l 665 1389 m 581 1319 l 333 1126 l 415 1126 l 568 1226 l 613 1126 l 675 1126 l 606 1319 l 581 1319 m 265 -25 q 506 46 393 -25 q 672 236 618 117 l 640 250 q 528 147 604 185 q 383 108 453 108 q 284 147 317 108 q 251 249 251 186 q 283 385 251 314 q 372 511 315 457 q 500 581 429 565 q 394 649 429 599 q 360 767 360 700 q 378 860 360 815 q 428 934 396 906 q 501 963 461 963 q 556 944 533 963 q 578 885 578 925 q 560 810 578 847 q 517 764 542 772 q 582 726 544 726 q 654 768 624 726 q 685 871 685 810 q 629 999 685 953 q 486 1044 574 1044 q 331 1001 401 1044 q 222 888 261 957 q 182 746 182 818 q 203 653 182 697 q 267 579 224 610 q 131 503 189 560 q 41 370 72 446 q 10 219 10 294 q 74 44 10 114 q 265 -25 139 -25 "},"Ể":{"ha":638,"x_min":10,"x_max":868,"o":"m 711 1189 l 758 1186 l 763 1226 q 839 1253 810 1229 q 868 1311 868 1276 q 839 1367 868 1346 q 765 1389 810 1389 q 713 1382 739 1389 q 671 1364 688 1375 l 696 1325 q 754 1340 722 1340 q 801 1306 801 1340 q 754 1268 801 1268 q 711 1274 742 1268 l 711 1189 m 581 1319 l 333 1126 l 415 1126 l 568 1226 l 613 1126 l 675 1126 l 606 1319 l 581 1319 m 265 -25 q 506 46 393 -25 q 672 236 618 117 l 640 250 q 528 147 604 185 q 383 108 453 108 q 284 147 317 108 q 251 249 251 186 q 283 385 251 314 q 372 511 315 457 q 500 581 429 565 q 394 649 429 599 q 360 767 360 700 q 378 860 360 815 q 428 934 396 906 q 501 963 461 963 q 556 944 533 963 q 578 885 578 925 q 560 810 578 847 q 517 764 542 772 q 582 726 544 726 q 654 768 624 726 q 685 871 685 810 q 629 999 685 953 q 486 1044 574 1044 q 331 1001 401 1044 q 222 888 261 957 q 182 746 182 818 q 203 653 182 697 q 267 579 224 610 q 131 503 189 560 q 41 370 72 446 q 10 219 10 294 q 74 44 10 114 q 265 -25 139 -25 "},"Ễ":{"ha":638,"x_min":10,"x_max":790,"o":"m 790 1376 l 783 1378 q 724 1356 763 1356 q 650 1371 693 1356 q 604 1385 622 1381 q 561 1389 586 1389 q 463 1364 506 1389 q 397 1292 421 1339 l 404 1290 q 467 1315 432 1315 q 508 1309 486 1315 q 550 1296 529 1303 l 333 1126 l 415 1126 l 568 1226 l 613 1126 l 675 1126 l 621 1278 l 632 1278 q 735 1309 686 1278 q 790 1376 783 1340 m 517 764 q 582 726 544 726 q 654 768 624 726 q 685 871 685 810 q 629 999 685 953 q 486 1044 574 1044 q 331 1001 401 1044 q 222 888 261 957 q 182 746 182 818 q 203 653 182 697 q 267 579 224 610 q 131 503 189 560 q 41 370 72 446 q 10 219 10 294 q 74 44 10 114 q 265 -25 139 -25 q 506 46 393 -25 q 672 236 618 117 l 640 250 q 528 147 604 185 q 383 108 453 108 q 284 147 317 108 q 251 249 251 186 q 283 385 251 314 q 372 511 315 457 q 500 581 429 565 q 394 649 429 599 q 360 767 360 700 q 378 860 360 815 q 428 934 396 906 q 501 963 461 963 q 556 944 533 963 q 578 885 578 925 q 560 810 578 847 q 517 764 542 772 "},"Ȅ":{"ha":638,"x_min":10,"x_max":685,"o":"m 147 1389 l 344 1126 l 421 1126 l 293 1389 l 147 1389 m 374 1389 l 569 1126 l 644 1126 l 519 1389 l 374 1389 m 265 -25 q 506 46 393 -25 q 672 236 618 117 l 640 250 q 528 147 604 185 q 383 108 453 108 q 284 147 317 108 q 251 249 251 186 q 283 385 251 314 q 372 511 315 457 q 500 581 429 565 q 394 649 429 599 q 360 767 360 700 q 378 860 360 815 q 428 934 396 906 q 501 963 461 963 q 556 944 533 963 q 578 885 578 925 q 560 810 578 847 q 517 764 542 772 q 582 726 544 726 q 654 768 624 726 q 685 871 685 810 q 629 999 685 953 q 486 1044 574 1044 q 331 1001 401 1044 q 222 888 261 957 q 182 746 182 818 q 203 653 182 697 q 267 579 224 610 q 131 503 189 560 q 41 370 72 446 q 10 219 10 294 q 74 44 10 114 q 265 -25 139 -25 "},"Ë":{"ha":638,"x_min":10,"x_max":750,"o":"m 415 1143 q 475 1167 450 1143 q 500 1228 500 1192 q 475 1288 500 1263 q 415 1313 450 1313 q 355 1288 379 1313 q 331 1228 331 1263 q 355 1167 331 1192 q 415 1143 379 1143 m 665 1143 q 725 1167 700 1143 q 750 1228 750 1192 q 725 1288 750 1263 q 665 1313 700 1313 q 605 1288 629 1313 q 581 1228 581 1263 q 605 1167 581 1192 q 665 1143 629 1143 m 265 -25 q 506 46 393 -25 q 672 236 618 117 l 640 250 q 528 147 604 185 q 383 108 453 108 q 284 147 317 108 q 251 249 251 186 q 283 385 251 314 q 372 511 315 457 q 500 581 429 565 q 394 649 429 599 q 360 767 360 700 q 378 860 360 815 q 428 934 396 906 q 501 963 461 963 q 556 944 533 963 q 578 885 578 925 q 560 810 578 847 q 517 764 542 772 q 582 726 544 726 q 654 768 624 726 q 685 871 685 810 q 629 999 685 953 q 486 1044 574 1044 q 331 1001 401 1044 q 222 888 261 957 q 182 746 182 818 q 203 653 182 697 q 267 579 224 610 q 131 503 189 560 q 41 370 72 446 q 10 219 10 294 q 74 44 10 114 q 265 -25 139 -25 "},"Ė":{"ha":638,"x_min":10,"x_max":685,"o":"m 557 1142 q 635 1173 603 1142 q 668 1250 668 1204 q 635 1329 668 1297 q 557 1361 603 1361 q 479 1329 511 1361 q 447 1250 447 1297 q 479 1173 447 1204 q 557 1142 511 1142 m 265 -25 q 506 46 393 -25 q 672 236 618 117 l 640 250 q 528 147 604 185 q 383 108 453 108 q 284 147 317 108 q 251 249 251 186 q 283 385 251 314 q 372 511 315 457 q 500 581 429 565 q 394 649 429 599 q 360 767 360 700 q 378 860 360 815 q 428 934 396 906 q 501 963 461 963 q 556 944 533 963 q 578 885 578 925 q 560 810 578 847 q 517 764 542 772 q 582 726 544 726 q 654 768 624 726 q 685 871 685 810 q 629 999 685 953 q 486 1044 574 1044 q 331 1001 401 1044 q 222 888 261 957 q 182 746 182 818 q 203 653 182 697 q 267 579 224 610 q 131 503 189 560 q 41 370 72 446 q 10 219 10 294 q 74 44 10 114 q 265 -25 139 -25 "},"Ẹ":{"ha":638,"x_min":10,"x_max":685,"o":"m 265 -25 q 506 46 393 -25 q 672 236 618 117 l 640 250 q 528 147 604 185 q 383 108 453 108 q 284 147 317 108 q 251 249 251 186 q 283 385 251 314 q 372 511 315 457 q 500 581 429 565 q 394 649 429 599 q 360 767 360 700 q 378 860 360 815 q 428 934 396 906 q 501 963 461 963 q 556 944 533 963 q 578 885 578 925 q 560 810 578 847 q 517 764 542 772 q 582 726 544 726 q 654 768 624 726 q 685 871 685 810 q 629 999 685 953 q 486 1044 574 1044 q 331 1001 401 1044 q 222 888 261 957 q 182 746 182 818 q 203 653 182 697 q 267 579 224 610 q 131 503 189 560 q 41 370 72 446 q 10 219 10 294 q 74 44 10 114 q 265 -25 139 -25 m 213 -321 q 291 -289 258 -321 q 324 -211 324 -257 q 291 -133 324 -165 q 213 -100 258 -100 q 135 -133 167 -100 q 103 -211 103 -165 q 135 -289 103 -257 q 213 -321 167 -321 "},"È":{"ha":638,"x_min":10,"x_max":685,"o":"m 350 1389 l 432 1126 l 536 1126 l 496 1389 l 350 1389 m 265 -25 q 506 46 393 -25 q 672 236 618 117 l 640 250 q 528 147 604 185 q 383 108 453 108 q 284 147 317 108 q 251 249 251 186 q 283 385 251 314 q 372 511 315 457 q 500 581 429 565 q 394 649 429 599 q 360 767 360 700 q 378 860 360 815 q 428 934 396 906 q 501 963 461 963 q 556 944 533 963 q 578 885 578 925 q 560 810 578 847 q 517 764 542 772 q 582 726 544 726 q 654 768 624 726 q 685 871 685 810 q 629 999 685 953 q 486 1044 574 1044 q 331 1001 401 1044 q 222 888 261 957 q 182 746 182 818 q 203 653 182 697 q 267 579 224 610 q 131 503 189 560 q 41 370 72 446 q 10 219 10 294 q 74 44 10 114 q 265 -25 139 -25 "},"Ẻ":{"ha":638,"x_min":10,"x_max":692,"o":"m 469 1103 l 535 1100 l 546 1157 q 651 1196 611 1163 q 692 1276 692 1229 q 651 1358 692 1326 q 549 1389 611 1389 q 474 1379 511 1389 q 413 1354 436 1369 l 449 1296 q 532 1318 483 1318 q 597 1268 597 1318 q 580 1231 597 1244 q 532 1218 563 1218 q 469 1225 507 1218 l 469 1103 m 265 -25 q 506 46 393 -25 q 672 236 618 117 l 640 250 q 528 147 604 185 q 383 108 453 108 q 284 147 317 108 q 251 249 251 186 q 283 385 251 314 q 372 511 315 457 q 500 581 429 565 q 394 649 429 599 q 360 767 360 700 q 378 860 360 815 q 428 934 396 906 q 501 963 461 963 q 556 944 533 963 q 578 885 578 925 q 560 810 578 847 q 517 764 542 772 q 582 726 544 726 q 654 768 624 726 q 685 871 685 810 q 629 999 685 953 q 486 1044 574 1044 q 331 1001 401 1044 q 222 888 261 957 q 182 746 182 818 q 203 653 182 697 q 267 579 224 610 q 131 503 189 560 q 41 370 72 446 q 10 219 10 294 q 74 44 10 114 q 265 -25 139 -25 "},"Ȇ":{"ha":638,"x_min":10,"x_max":783,"o":"m 279 1142 l 399 1142 q 449 1224 406 1190 q 550 1257 493 1257 q 631 1227 603 1257 q 660 1142 660 1197 l 783 1142 q 729 1284 783 1235 q 572 1333 675 1333 q 434 1308 499 1333 q 328 1239 369 1283 q 279 1142 286 1194 m 265 -25 q 506 46 393 -25 q 672 236 618 117 l 640 250 q 528 147 604 185 q 383 108 453 108 q 284 147 317 108 q 251 249 251 186 q 283 385 251 314 q 372 511 315 457 q 500 581 429 565 q 394 649 429 599 q 360 767 360 700 q 378 860 360 815 q 428 934 396 906 q 501 963 461 963 q 556 944 533 963 q 578 885 578 925 q 560 810 578 847 q 517 764 542 772 q 582 726 544 726 q 654 768 624 726 q 685 871 685 810 q 629 999 685 953 q 486 1044 574 1044 q 331 1001 401 1044 q 222 888 261 957 q 182 746 182 818 q 203 653 182 697 q 267 579 224 610 q 131 503 189 560 q 41 370 72 446 q 10 219 10 294 q 74 44 10 114 q 265 -25 139 -25 "},"Ē":{"ha":638,"x_min":10,"x_max":778,"o":"m 333 1282 l 311 1179 l 757 1179 l 778 1282 l 333 1282 m 265 -25 q 506 46 393 -25 q 672 236 618 117 l 640 250 q 528 147 604 185 q 383 108 453 108 q 284 147 317 108 q 251 249 251 186 q 283 385 251 314 q 372 511 315 457 q 500 581 429 565 q 394 649 429 599 q 360 767 360 700 q 378 860 360 815 q 428 934 396 906 q 501 963 461 963 q 556 944 533 963 q 578 885 578 925 q 560 810 578 847 q 517 764 542 772 q 582 726 544 726 q 654 768 624 726 q 685 871 685 810 q 629 999 685 953 q 486 1044 574 1044 q 331 1001 401 1044 q 222 888 261 957 q 182 746 182 818 q 203 653 182 697 q 267 579 224 610 q 131 503 189 560 q 41 370 72 446 q 10 219 10 294 q 74 44 10 114 q 265 -25 139 -25 "},"Ę":{"ha":638,"x_min":15,"x_max":693,"o":"m 417 -268 q 495 -245 463 -268 q 568 -182 528 -222 q 571 -139 568 -172 q 546 -156 563 -144 q 512 -177 529 -168 q 476 -186 494 -186 q 436 -165 450 -186 q 422 -117 422 -144 q 448 -22 422 -57 q 529 56 474 13 q 617 135 582 96 q 672 236 651 174 l 640 250 q 549 149 600 181 q 421 117 499 117 q 340 142 378 117 q 281 209 303 167 q 258 301 258 251 q 317 455 258 381 q 500 581 375 529 q 361 683 406 624 q 317 810 317 743 q 365 931 317 881 q 486 981 413 981 q 560 947 543 981 q 578 878 578 914 q 559 810 578 849 q 517 764 540 772 q 596 728 546 728 q 669 762 646 728 q 693 856 693 796 q 619 995 693 949 q 438 1042 544 1042 q 273 1006 343 1042 q 166 913 203 971 q 129 790 129 856 q 164 672 129 728 q 267 579 199 617 q 130 516 186 563 q 44 405 74 469 q 15 272 15 340 q 48 134 15 199 q 146 31 81 69 q 303 -8 211 -8 q 407 1 358 -8 q 333 -78 358 -36 q 307 -160 307 -121 q 335 -235 307 -201 q 417 -268 364 -268 "},"Ẽ":{"ha":638,"x_min":10,"x_max":842,"o":"m 618 1138 q 719 1158 669 1138 q 802 1212 768 1179 q 842 1276 836 1244 l 835 1278 q 747 1246 800 1246 q 681 1256 713 1246 q 643 1267 649 1265 q 580 1285 607 1279 q 518 1292 553 1292 q 378 1257 438 1292 q 286 1156 318 1222 l 293 1153 q 385 1189 333 1189 q 434 1183 410 1189 q 490 1165 458 1176 q 557 1144 528 1151 q 618 1138 586 1138 m 265 -25 q 506 46 393 -25 q 672 236 618 117 l 640 250 q 528 147 604 185 q 383 108 453 108 q 284 147 317 108 q 251 249 251 186 q 283 385 251 314 q 372 511 315 457 q 500 581 429 565 q 394 649 429 599 q 360 767 360 700 q 378 860 360 815 q 428 934 396 906 q 501 963 461 963 q 556 944 533 963 q 578 885 578 925 q 560 810 578 847 q 517 764 542 772 q 582 726 544 726 q 654 768 624 726 q 685 871 685 810 q 629 999 685 953 q 486 1044 574 1044 q 331 1001 401 1044 q 222 888 261 957 q 182 746 182 818 q 203 653 182 697 q 267 579 224 610 q 131 503 189 560 q 41 370 72 446 q 10 219 10 294 q 74 44 10 114 q 265 -25 139 -25 "},"Ʒ":{"ha":771,"x_min":28,"x_max":799,"o":"m 485 624 l 799 1039 l 310 1039 q 185 997 231 1039 q 139 897 139 954 q 156 840 139 864 q 210 815 172 815 q 266 834 240 815 q 292 894 292 853 q 284 928 292 917 q 268 939 276 939 q 396 969 268 969 l 535 969 l 292 639 l 269 536 l 300 536 q 427 488 381 536 q 474 335 474 440 q 451 202 474 265 q 383 99 428 139 q 276 60 338 60 q 195 87 224 60 q 167 154 167 114 q 218 254 167 224 q 146 290 193 290 q 60 253 93 290 q 28 156 28 217 q 97 23 28 68 q 282 -22 165 -22 q 503 28 408 -22 q 649 162 599 78 q 700 344 700 246 q 647 526 700 456 q 485 624 593 597 "},"Ǯ":{"ha":729,"x_min":28,"x_max":803,"o":"m 485 624 l 799 1039 l 310 1039 q 185 997 231 1039 q 139 897 139 954 q 156 840 139 864 q 210 815 172 815 q 266 834 240 815 q 292 894 292 853 q 284 928 292 917 q 268 939 276 939 q 396 969 268 969 l 535 969 l 292 639 l 269 536 l 300 536 q 427 488 381 536 q 474 335 474 440 q 451 202 474 265 q 383 99 428 139 q 276 60 338 60 q 195 87 224 60 q 167 154 167 114 q 218 254 167 224 q 146 290 193 290 q 60 253 93 290 q 28 156 28 217 q 97 23 28 68 q 282 -22 165 -22 q 503 28 408 -22 q 649 162 599 78 q 700 344 700 246 q 647 526 700 456 q 485 624 593 597 m 396 1386 l 479 1124 l 508 1124 l 803 1386 l 742 1386 l 524 1275 l 440 1386 l 396 1386 "},"F":{"ha":638,"x_min":13,"x_max":842,"o":"m 322 928 l 122 0 l 322 0 l 435 522 l 638 522 l 660 625 l 457 625 l 515 901 q 710 875 628 875 q 787 915 758 885 q 826 987 815 944 q 842 1042 838 1029 q 717 1025 790 1025 q 575 1035 675 1025 q 486 1042 519 1042 q 216 992 322 1042 q 61 860 110 942 q 13 681 13 779 q 49 577 13 608 q 161 546 86 546 q 151 569 161 549 q 142 640 142 589 q 188 861 142 797 q 322 928 235 925 "},"G":{"ha":803,"x_min":26,"x_max":789,"o":"m 321 -287 q 531 -190 450 -287 q 657 114 613 -93 l 758 581 l 594 582 q 502 351 560 431 q 369 272 444 272 q 274 327 307 272 q 240 486 240 382 q 286 728 240 613 q 407 915 332 843 q 563 986 482 986 q 631 963 607 986 q 656 899 656 940 q 638 824 656 861 q 596 771 621 788 q 634 739 611 750 q 683 728 657 728 q 760 764 731 728 q 789 860 789 800 q 720 1000 789 949 q 533 1051 651 1051 q 276 979 393 1051 q 93 781 160 907 q 26 503 26 656 q 59 317 26 397 q 153 194 92 238 q 294 151 214 151 q 412 179 358 151 q 503 260 465 207 l 508 260 l 439 -47 q 386 -175 421 -132 q 303 -218 351 -218 q 238 -190 264 -218 q 213 -118 213 -162 q 239 -46 213 -74 q 307 -18 265 -18 q 352 -28 331 -18 q 386 -54 374 -37 q 401 -1 401 -35 q 369 68 401 42 q 283 94 336 94 q 189 69 232 94 q 121 -1 146 43 q 96 -99 96 -46 q 158 -235 96 -183 q 321 -287 219 -287 "},"Ǵ":{"ha":803,"x_min":26,"x_max":792,"o":"m 646 1389 l 519 1126 l 624 1126 l 792 1389 l 646 1389 m 321 -287 q 531 -190 450 -287 q 657 114 613 -93 l 758 581 l 594 582 q 502 351 560 431 q 369 272 444 272 q 274 327 307 272 q 240 486 240 382 q 286 728 240 613 q 407 915 332 843 q 563 986 482 986 q 631 963 607 986 q 656 899 656 940 q 638 824 656 861 q 596 771 621 788 q 634 739 611 750 q 683 728 657 728 q 760 764 731 728 q 789 860 789 800 q 720 1000 789 949 q 533 1051 651 1051 q 276 979 393 1051 q 93 781 160 907 q 26 503 26 656 q 59 317 26 397 q 153 194 92 238 q 294 151 214 151 q 412 179 358 151 q 503 260 465 207 l 508 260 l 439 -47 q 386 -175 421 -132 q 303 -218 351 -218 q 238 -190 264 -218 q 213 -118 213 -162 q 239 -46 213 -74 q 307 -18 265 -18 q 352 -28 331 -18 q 386 -54 374 -37 q 401 -1 401 -35 q 369 68 401 42 q 283 94 336 94 q 189 69 232 94 q 121 -1 146 43 q 96 -99 96 -46 q 158 -235 96 -183 q 321 -287 219 -287 "},"Ğ":{"ha":803,"x_min":26,"x_max":894,"o":"m 601 1132 q 740 1157 675 1132 q 845 1226 804 1182 q 894 1325 886 1271 l 775 1325 q 724 1243 768 1276 q 622 1210 679 1210 q 542 1240 569 1210 q 514 1325 514 1269 l 389 1325 q 443 1181 389 1231 q 601 1132 497 1132 m 321 -287 q 531 -190 450 -287 q 657 114 613 -93 l 758 581 l 594 582 q 502 351 560 431 q 369 272 444 272 q 274 327 307 272 q 240 486 240 382 q 286 728 240 613 q 407 915 332 843 q 563 986 482 986 q 631 963 607 986 q 656 899 656 940 q 638 824 656 861 q 596 771 621 788 q 634 739 611 750 q 683 728 657 728 q 760 764 731 728 q 789 860 789 800 q 720 1000 789 949 q 533 1051 651 1051 q 276 979 393 1051 q 93 781 160 907 q 26 503 26 656 q 59 317 26 397 q 153 194 92 238 q 294 151 214 151 q 412 179 358 151 q 503 260 465 207 l 508 260 l 439 -47 q 386 -175 421 -132 q 303 -218 351 -218 q 238 -190 264 -218 q 213 -118 213 -162 q 239 -46 213 -74 q 307 -18 265 -18 q 352 -28 331 -18 q 386 -54 374 -37 q 401 -1 401 -35 q 369 68 401 42 q 283 94 336 94 q 189 69 232 94 q 121 -1 146 43 q 96 -99 96 -46 q 158 -235 96 -183 q 321 -287 219 -287 "},"Ǧ":{"ha":803,"x_min":26,"x_max":897,"o":"m 490 1389 l 574 1126 l 603 1126 l 897 1389 l 836 1389 l 618 1278 l 535 1389 l 490 1389 m 321 -287 q 531 -190 450 -287 q 657 114 613 -93 l 758 581 l 594 582 q 502 351 560 431 q 369 272 444 272 q 274 327 307 272 q 240 486 240 382 q 286 728 240 613 q 407 915 332 843 q 563 986 482 986 q 631 963 607 986 q 656 899 656 940 q 638 824 656 861 q 596 771 621 788 q 634 739 611 750 q 683 728 657 728 q 760 764 731 728 q 789 860 789 800 q 720 1000 789 949 q 533 1051 651 1051 q 276 979 393 1051 q 93 781 160 907 q 26 503 26 656 q 59 317 26 397 q 153 194 92 238 q 294 151 214 151 q 412 179 358 151 q 503 260 465 207 l 508 260 l 439 -47 q 386 -175 421 -132 q 303 -218 351 -218 q 238 -190 264 -218 q 213 -118 213 -162 q 239 -46 213 -74 q 307 -18 265 -18 q 352 -28 331 -18 q 386 -54 374 -37 q 401 -1 401 -35 q 369 68 401 42 q 283 94 336 94 q 189 69 232 94 q 121 -1 146 43 q 96 -99 96 -46 q 158 -235 96 -183 q 321 -287 219 -287 "},"Ĝ":{"ha":803,"x_min":26,"x_max":789,"o":"m 640 1389 l 347 1126 l 407 1126 l 626 1238 l 710 1126 l 753 1126 l 669 1389 l 640 1389 m 321 -287 q 531 -190 450 -287 q 657 114 613 -93 l 758 581 l 594 582 q 502 351 560 431 q 369 272 444 272 q 274 327 307 272 q 240 486 240 382 q 286 728 240 613 q 407 915 332 843 q 563 986 482 986 q 631 963 607 986 q 656 899 656 940 q 638 824 656 861 q 596 771 621 788 q 634 739 611 750 q 683 728 657 728 q 760 764 731 728 q 789 860 789 800 q 720 1000 789 949 q 533 1051 651 1051 q 276 979 393 1051 q 93 781 160 907 q 26 503 26 656 q 59 317 26 397 q 153 194 92 238 q 294 151 214 151 q 412 179 358 151 q 503 260 465 207 l 508 260 l 439 -47 q 386 -175 421 -132 q 303 -218 351 -218 q 238 -190 264 -218 q 213 -118 213 -162 q 239 -46 213 -74 q 307 -18 265 -18 q 352 -28 331 -18 q 386 -54 374 -37 q 401 -1 401 -35 q 369 68 401 42 q 283 94 336 94 q 189 69 232 94 q 121 -1 146 43 q 96 -99 96 -46 q 158 -235 96 -183 q 321 -287 219 -287 "},"Ģ":{"ha":803,"x_min":8,"x_max":744,"o":"m 274 -8 q 377 16 332 -8 q 465 94 422 40 l 471 94 l 451 0 l 631 0 l 744 514 l 581 514 q 525 312 563 404 q 440 166 488 219 q 349 113 393 113 q 268 180 297 113 q 239 364 239 247 q 283 651 239 506 q 396 892 328 797 q 531 986 464 986 q 581 963 563 986 q 599 900 599 939 q 583 827 599 863 q 542 774 567 792 q 626 731 574 731 q 703 767 674 731 q 732 861 732 803 q 670 999 732 946 q 510 1051 608 1051 q 263 956 379 1051 q 78 701 147 860 q 8 363 8 543 q 78 90 8 188 q 274 -8 147 -8 m 282 -318 l 310 -346 q 397 -262 363 -312 q 431 -165 431 -211 q 410 -110 431 -131 q 357 -89 390 -89 q 301 -108 322 -89 q 279 -154 279 -126 q 286 -181 279 -169 q 307 -207 293 -193 q 322 -226 315 -215 q 329 -246 329 -236 q 319 -274 329 -258 q 282 -318 308 -289 "},"Ġ":{"ha":803,"x_min":26,"x_max":789,"o":"m 578 1142 q 656 1173 624 1142 q 689 1250 689 1204 q 656 1329 689 1297 q 578 1361 624 1361 q 500 1329 532 1361 q 468 1250 468 1297 q 500 1173 468 1204 q 578 1142 532 1142 m 321 -287 q 531 -190 450 -287 q 657 114 613 -93 l 758 581 l 594 582 q 502 351 560 431 q 369 272 444 272 q 274 327 307 272 q 240 486 240 382 q 286 728 240 613 q 407 915 332 843 q 563 986 482 986 q 631 963 607 986 q 656 899 656 940 q 638 824 656 861 q 596 771 621 788 q 634 739 611 750 q 683 728 657 728 q 760 764 731 728 q 789 860 789 800 q 720 1000 789 949 q 533 1051 651 1051 q 276 979 393 1051 q 93 781 160 907 q 26 503 26 656 q 59 317 26 397 q 153 194 92 238 q 294 151 214 151 q 412 179 358 151 q 503 260 465 207 l 508 260 l 439 -47 q 386 -175 421 -132 q 303 -218 351 -218 q 238 -190 264 -218 q 213 -118 213 -162 q 239 -46 213 -74 q 307 -18 265 -18 q 352 -28 331 -18 q 386 -54 374 -37 q 401 -1 401 -35 q 369 68 401 42 q 283 94 336 94 q 189 69 232 94 q 121 -1 146 43 q 96 -99 96 -46 q 158 -235 96 -183 q 321 -287 219 -287 "},"Ḡ":{"ha":803,"x_min":26,"x_max":790,"o":"m 347 1282 l 324 1179 l 771 1179 l 790 1282 l 347 1282 m 321 -287 q 531 -190 450 -287 q 657 114 613 -93 l 758 581 l 594 582 q 502 351 560 431 q 369 272 444 272 q 274 327 307 272 q 240 486 240 382 q 286 728 240 613 q 407 915 332 843 q 563 986 482 986 q 631 963 607 986 q 656 899 656 940 q 638 824 656 861 q 596 771 621 788 q 634 739 611 750 q 683 728 657 728 q 760 764 731 728 q 789 860 789 800 q 720 1000 789 949 q 533 1051 651 1051 q 276 979 393 1051 q 93 781 160 907 q 26 503 26 656 q 59 317 26 397 q 153 194 92 238 q 294 151 214 151 q 412 179 358 151 q 503 260 465 207 l 508 260 l 439 -47 q 386 -175 421 -132 q 303 -218 351 -218 q 238 -190 264 -218 q 213 -118 213 -162 q 239 -46 213 -74 q 307 -18 265 -18 q 352 -28 331 -18 q 386 -54 374 -37 q 401 -1 401 -35 q 369 68 401 42 q 283 94 336 94 q 189 69 232 94 q 121 -1 146 43 q 96 -99 96 -46 q 158 -235 96 -183 q 321 -287 219 -287 "},"Ǥ":{"ha":835,"x_min":26,"x_max":821,"o":"m 804 429 l 821 499 l 740 499 l 758 581 l 594 582 q 572 499 582 529 l 419 499 l 400 429 l 546 429 q 369 272 476 272 q 274 327 307 272 q 240 486 240 382 q 286 728 240 613 q 407 915 332 843 q 563 986 482 986 q 631 963 607 986 q 656 899 656 940 q 638 824 656 861 q 596 771 621 788 q 634 739 611 750 q 683 728 657 728 q 760 764 731 728 q 789 860 789 800 q 720 1000 789 949 q 533 1051 651 1051 q 276 979 393 1051 q 93 781 160 907 q 26 503 26 656 q 59 317 26 397 q 153 194 92 238 q 294 151 214 151 q 412 179 358 151 q 503 260 465 207 l 508 260 l 439 -47 q 386 -175 421 -132 q 303 -218 351 -218 q 238 -190 264 -218 q 213 -118 213 -162 q 239 -46 213 -74 q 307 -18 265 -18 q 352 -28 331 -18 q 386 -54 374 -37 q 401 -1 401 -35 q 369 68 401 42 q 283 94 336 94 q 189 69 232 94 q 121 -1 146 43 q 96 -99 96 -46 q 158 -235 96 -183 q 321 -287 219 -287 q 531 -190 450 -287 q 657 114 613 -93 l 725 429 l 804 429 "},"H":{"ha":924,"x_min":17,"x_max":964,"o":"m 340 944 l 139 0 l 339 0 l 450 522 l 654 522 l 543 0 l 743 0 l 964 1039 l 764 1039 l 675 625 l 471 625 l 560 1039 q 504 1042 524 1042 q 276 990 390 1042 q 90 853 163 938 q 17 681 17 769 q 53 577 17 608 q 165 546 90 546 q 156 569 165 549 q 146 640 146 589 q 197 828 146 750 q 340 944 247 906 "},"Ħ":{"ha":924,"x_min":17,"x_max":1031,"o":"m 1011 717 l 1031 786 l 910 786 l 964 1039 l 764 1039 l 710 786 l 506 786 l 560 1039 q 504 1042 524 1042 q 276 990 390 1042 q 90 853 163 938 q 17 681 17 769 q 53 577 17 608 q 165 546 90 546 q 156 569 165 549 q 146 640 146 589 q 197 828 146 750 q 340 944 247 906 l 307 786 l 246 786 l 226 717 l 292 717 l 139 0 l 339 0 l 450 522 l 654 522 l 543 0 l 743 0 l 896 717 l 1011 717 m 694 717 l 675 625 l 471 625 l 490 717 l 694 717 "},"Ḫ":{"ha":924,"x_min":17,"x_max":964,"o":"m 340 944 l 139 0 l 339 0 l 450 522 l 654 522 l 543 0 l 743 0 l 964 1039 l 764 1039 l 675 625 l 471 625 l 560 1039 q 504 1042 524 1042 q 276 990 390 1042 q 90 853 163 938 q 17 681 17 769 q 53 577 17 608 q 165 546 90 546 q 156 569 165 549 q 146 640 146 589 q 197 828 146 750 q 340 944 247 906 m 382 -282 q 512 -258 451 -282 q 611 -192 572 -233 q 657 -100 650 -150 l 544 -100 q 497 -177 539 -146 q 403 -208 456 -208 q 326 -181 353 -208 q 299 -100 299 -153 l 182 -100 q 233 -235 182 -189 q 382 -282 285 -282 "},"Ȟ":{"ha":924,"x_min":17,"x_max":989,"o":"m 340 944 l 139 0 l 339 0 l 450 522 l 654 522 l 543 0 l 743 0 l 964 1039 l 764 1039 l 675 625 l 471 625 l 560 1039 q 504 1042 524 1042 q 276 990 390 1042 q 90 853 163 938 q 17 681 17 769 q 53 577 17 608 q 165 546 90 546 q 156 569 165 549 q 146 640 146 589 q 197 828 146 750 q 340 944 247 906 m 582 1389 l 665 1126 l 694 1126 l 989 1389 l 928 1389 l 710 1278 l 626 1389 l 582 1389 "},"Ĥ":{"ha":924,"x_min":17,"x_max":964,"o":"m 763 1389 l 468 1126 l 529 1126 l 749 1238 l 832 1126 l 875 1126 l 792 1389 l 763 1389 m 340 944 l 139 0 l 339 0 l 450 522 l 654 522 l 543 0 l 743 0 l 964 1039 l 764 1039 l 675 625 l 471 625 l 560 1039 q 504 1042 524 1042 q 276 990 390 1042 q 90 853 163 938 q 17 681 17 769 q 53 577 17 608 q 165 546 90 546 q 156 569 165 549 q 146 640 146 589 q 197 828 146 750 q 340 944 247 906 "},"Ḥ":{"ha":924,"x_min":17,"x_max":964,"o":"m 340 944 l 139 0 l 339 0 l 450 522 l 654 522 l 543 0 l 743 0 l 964 1039 l 764 1039 l 675 625 l 471 625 l 560 1039 q 504 1042 524 1042 q 276 990 390 1042 q 90 853 163 938 q 17 681 17 769 q 53 577 17 608 q 165 546 90 546 q 156 569 165 549 q 146 640 146 589 q 197 828 146 750 q 340 944 247 906 m 403 -321 q 481 -289 449 -321 q 514 -211 514 -257 q 481 -133 514 -165 q 403 -100 447 -100 q 324 -133 357 -100 q 292 -211 292 -165 q 324 -289 292 -257 q 403 -321 357 -321 "},"I":{"ha":521,"x_min":8,"x_max":551,"o":"m 332 943 l 131 0 l 331 0 l 551 1039 q 496 1042 515 1042 q 268 990 382 1042 q 81 853 154 938 q 8 681 8 769 q 45 577 8 608 q 157 546 82 546 q 147 569 157 549 q 138 640 138 589 q 188 828 138 751 q 332 943 239 906 "},"Ĳ":{"ha":921,"x_min":8,"x_max":935,"o":"m 379 -287 q 612 -197 531 -287 q 726 56 693 -106 l 935 1042 l 726 996 l 499 -47 q 447 -181 478 -144 q 371 -218 415 -218 q 299 -192 326 -218 q 272 -124 272 -165 q 299 -52 272 -82 q 363 -22 325 -22 q 431 -54 399 -22 q 440 -8 440 -29 q 415 50 440 26 q 347 81 390 74 l 551 1039 q 496 1042 515 1042 q 268 990 382 1042 q 81 853 154 938 q 8 681 8 769 q 45 577 8 608 q 157 546 82 546 q 147 569 157 549 q 138 640 138 589 q 188 828 138 751 q 332 943 239 906 l 131 0 l 176 0 q 156 -97 156 -42 q 211 -235 156 -183 q 379 -287 267 -287 "},"Í":{"ha":521,"x_min":8,"x_max":679,"o":"m 533 1389 l 407 1126 l 513 1126 l 679 1389 l 533 1389 m 332 943 l 131 0 l 331 0 l 551 1039 q 496 1042 515 1042 q 268 990 382 1042 q 81 853 154 938 q 8 681 8 769 q 45 577 8 608 q 157 546 82 546 q 147 569 157 549 q 138 640 138 589 q 188 828 138 751 q 332 943 239 906 "},"Ĭ":{"ha":521,"x_min":8,"x_max":746,"o":"m 453 1132 q 591 1157 526 1132 q 697 1226 656 1182 q 746 1325 738 1271 l 626 1325 q 575 1243 619 1276 q 474 1210 531 1210 q 394 1240 422 1210 q 365 1325 365 1269 l 240 1325 q 295 1181 240 1231 q 453 1132 350 1132 m 332 943 l 131 0 l 331 0 l 551 1039 q 496 1042 515 1042 q 268 990 382 1042 q 81 853 154 938 q 8 681 8 769 q 45 577 8 608 q 157 546 82 546 q 147 569 157 549 q 138 640 138 589 q 188 828 138 751 q 332 943 239 906 "},"Ǐ":{"ha":521,"x_min":8,"x_max":775,"o":"m 368 1389 l 451 1126 l 481 1126 l 775 1389 l 714 1389 l 496 1278 l 413 1389 l 368 1389 m 332 943 l 131 0 l 331 0 l 551 1039 q 496 1042 515 1042 q 268 990 382 1042 q 81 853 154 938 q 8 681 8 769 q 45 577 8 608 q 157 546 82 546 q 147 569 157 549 q 138 640 138 589 q 188 828 138 751 q 332 943 239 906 "},"Î":{"ha":521,"x_min":8,"x_max":643,"o":"m 531 1389 l 236 1126 l 297 1126 l 517 1238 l 600 1126 l 643 1126 l 560 1389 l 531 1389 m 332 943 l 131 0 l 331 0 l 551 1039 q 496 1042 515 1042 q 268 990 382 1042 q 81 853 154 938 q 8 681 8 769 q 45 577 8 608 q 157 546 82 546 q 147 569 157 549 q 138 640 138 589 q 188 828 138 751 q 332 943 239 906 "},"Ȉ":{"ha":521,"x_min":8,"x_max":583,"o":"m 88 1389 l 283 1126 l 360 1126 l 232 1389 l 88 1389 m 313 1389 l 508 1126 l 583 1126 l 458 1389 l 313 1389 m 332 943 l 131 0 l 331 0 l 551 1039 q 496 1042 515 1042 q 268 990 382 1042 q 81 853 154 938 q 8 681 8 769 q 45 577 8 608 q 157 546 82 546 q 147 569 157 549 q 138 640 138 589 q 188 828 138 751 q 332 943 239 906 "},"Ï":{"ha":521,"x_min":8,"x_max":679,"o":"m 344 1143 q 404 1167 379 1143 q 429 1228 429 1192 q 404 1288 429 1263 q 344 1313 379 1313 q 284 1288 308 1313 q 260 1228 260 1263 q 283 1167 260 1192 q 344 1143 307 1143 m 594 1143 q 654 1167 629 1143 q 679 1228 679 1192 q 653 1288 679 1263 q 594 1313 628 1313 q 534 1288 558 1313 q 510 1228 510 1263 q 534 1167 510 1192 q 594 1143 558 1143 m 332 943 l 131 0 l 331 0 l 551 1039 q 496 1042 515 1042 q 268 990 382 1042 q 81 853 154 938 q 8 681 8 769 q 45 577 8 608 q 157 546 82 546 q 147 569 157 549 q 138 640 138 589 q 188 828 138 751 q 332 943 239 906 "},"İ":{"ha":521,"x_min":8,"x_max":607,"o":"m 496 1142 q 574 1173 542 1142 q 607 1250 607 1204 q 574 1329 607 1297 q 496 1361 542 1361 q 418 1329 450 1361 q 386 1250 386 1297 q 418 1173 386 1204 q 496 1142 450 1142 m 332 943 l 131 0 l 331 0 l 551 1039 q 496 1042 515 1042 q 268 990 382 1042 q 81 853 154 938 q 8 681 8 769 q 45 577 8 608 q 157 546 82 546 q 147 569 157 549 q 138 640 138 589 q 188 828 138 751 q 332 943 239 906 "},"Ị":{"ha":521,"x_min":8,"x_max":551,"o":"m 332 943 l 131 0 l 331 0 l 551 1039 q 496 1042 515 1042 q 268 990 382 1042 q 81 853 154 938 q 8 681 8 769 q 45 577 8 608 q 157 546 82 546 q 147 569 157 549 q 138 640 138 589 q 188 828 138 751 q 332 943 239 906 m 192 -321 q 270 -289 238 -321 q 303 -211 303 -257 q 270 -133 303 -165 q 192 -100 238 -100 q 114 -133 146 -100 q 82 -211 82 -165 q 114 -289 82 -257 q 192 -321 146 -321 "},"Ì":{"ha":521,"x_min":8,"x_max":551,"o":"m 299 1389 l 381 1126 l 485 1126 l 444 1389 l 299 1389 m 332 943 l 131 0 l 331 0 l 551 1039 q 496 1042 515 1042 q 268 990 382 1042 q 81 853 154 938 q 8 681 8 769 q 45 577 8 608 q 157 546 82 546 q 147 569 157 549 q 138 640 138 589 q 188 828 138 751 q 332 943 239 906 "},"Ỉ":{"ha":521,"x_min":8,"x_max":638,"o":"m 415 1103 l 481 1100 l 492 1157 q 597 1196 557 1163 q 638 1276 638 1229 q 597 1358 638 1326 q 493 1389 557 1389 q 419 1379 457 1389 q 358 1354 382 1369 l 394 1296 q 478 1318 429 1318 q 543 1268 543 1318 q 526 1231 543 1244 q 478 1218 508 1218 q 415 1225 450 1218 l 415 1103 m 332 943 l 131 0 l 331 0 l 551 1039 q 496 1042 515 1042 q 268 990 382 1042 q 81 853 154 938 q 8 681 8 769 q 45 577 8 608 q 157 546 82 546 q 147 569 157 549 q 138 640 138 589 q 188 828 138 751 q 332 943 239 906 "},"Ȋ":{"ha":521,"x_min":8,"x_max":690,"o":"m 185 1142 l 304 1142 q 355 1224 311 1190 q 457 1257 399 1257 q 537 1227 508 1257 q 565 1142 565 1197 l 690 1142 q 635 1284 690 1235 q 478 1333 581 1333 q 340 1308 404 1333 q 234 1239 275 1283 q 185 1142 193 1194 m 332 943 l 131 0 l 331 0 l 551 1039 q 496 1042 515 1042 q 268 990 382 1042 q 81 853 154 938 q 8 681 8 769 q 45 577 8 608 q 157 546 82 546 q 147 569 157 549 q 138 640 138 589 q 188 828 138 751 q 332 943 239 906 "},"Ī":{"ha":521,"x_min":8,"x_max":679,"o":"m 235 1282 l 213 1179 l 658 1179 l 679 1282 l 235 1282 m 332 943 l 131 0 l 331 0 l 551 1039 q 496 1042 515 1042 q 268 990 382 1042 q 81 853 154 938 q 8 681 8 769 q 45 577 8 608 q 157 546 82 546 q 147 569 157 549 q 138 640 138 589 q 188 828 138 751 q 332 943 239 906 "},"Į":{"ha":521,"x_min":8,"x_max":551,"o":"m 319 1126 l 424 1126 l 383 1389 l 238 1389 l 319 1126 m 274 -207 q 218 -184 239 -207 q 197 -122 197 -161 q 213 -53 197 -85 q 256 0 228 -21 l 331 0 l 551 1039 q 496 1042 515 1042 q 268 990 382 1042 q 81 853 154 938 q 8 681 8 769 q 45 577 8 608 q 157 546 82 546 q 147 569 157 549 q 138 640 138 589 q 188 828 138 751 q 332 943 239 906 l 131 0 l 185 0 q 82 -168 82 -74 q 121 -260 82 -224 q 219 -297 160 -297 q 324 -265 272 -297 q 397 -185 375 -232 l 374 -153 q 274 -207 326 -207 "},"Ĩ":{"ha":521,"x_min":8,"x_max":740,"o":"m 517 1138 q 617 1158 568 1138 q 699 1212 665 1179 q 740 1276 733 1244 l 732 1278 q 644 1246 700 1246 q 543 1267 603 1246 q 480 1285 508 1279 q 415 1292 451 1292 q 276 1257 336 1292 q 183 1156 217 1222 l 192 1153 q 283 1189 232 1189 q 333 1183 308 1189 q 389 1165 357 1176 q 456 1144 426 1151 q 517 1138 485 1138 m 332 943 l 131 0 l 331 0 l 551 1039 q 496 1042 515 1042 q 268 990 382 1042 q 81 853 154 938 q 8 681 8 769 q 45 577 8 608 q 157 546 82 546 q 147 569 157 549 q 138 640 138 589 q 188 828 138 751 q 332 943 239 906 "},"J":{"ha":744,"x_min":24,"x_max":803,"o":"m 229 -287 q 475 -201 392 -287 q 594 56 558 -115 l 803 1042 l 747 1042 q 519 990 633 1042 q 333 853 406 938 q 260 681 260 769 q 297 577 260 608 q 408 546 333 546 q 399 569 408 549 q 389 640 389 589 q 440 829 389 751 q 585 944 492 907 l 367 -47 q 332 -155 350 -118 q 291 -205 314 -192 q 235 -218 268 -218 q 169 -194 199 -218 q 140 -121 140 -169 q 166 -49 140 -79 q 238 -18 192 -18 q 278 -26 260 -18 q 321 -54 296 -33 q 329 1 329 -24 q 291 77 329 60 q 193 94 253 94 q 69 39 115 94 q 24 -92 24 -17 q 77 -234 24 -181 q 229 -287 131 -287 "},"Ĵ":{"ha":744,"x_min":24,"x_max":889,"o":"m 776 1389 l 482 1126 l 543 1126 l 761 1238 l 844 1126 l 889 1126 l 806 1389 l 776 1389 m 229 -287 q 475 -201 392 -287 q 594 56 558 -115 l 803 1042 l 747 1042 q 519 990 633 1042 q 333 853 406 938 q 260 681 260 769 q 297 577 260 608 q 408 546 333 546 q 399 569 408 549 q 389 640 389 589 q 440 829 389 751 q 585 944 492 907 l 367 -47 q 332 -155 350 -118 q 291 -205 314 -192 q 235 -218 268 -218 q 169 -194 199 -218 q 140 -121 140 -169 q 166 -49 140 -79 q 238 -18 192 -18 q 278 -26 260 -18 q 321 -54 296 -33 q 329 1 329 -24 q 291 77 329 60 q 193 94 253 94 q 69 39 115 94 q 24 -92 24 -17 q 77 -234 24 -181 q 229 -287 131 -287 "},"K":{"ha":835,"x_min":8,"x_max":922,"o":"m 606 -24 q 743 0 658 -24 q 703 35 718 10 q 689 92 689 60 q 699 161 689 119 q 719 246 708 203 q 747 358 738 313 q 757 443 757 403 q 718 552 757 513 q 585 592 679 592 l 536 590 l 922 1035 l 776 1035 q 604 806 775 1036 l 461 614 l 551 1039 q 496 1042 515 1042 q 268 990 382 1042 q 81 853 154 938 q 8 681 8 769 q 45 577 8 608 q 157 546 82 546 q 147 569 157 549 q 138 640 138 589 q 188 828 138 750 q 332 944 239 906 l 131 0 l 331 0 l 442 524 q 488 529 464 529 q 571 435 571 529 q 561 353 571 399 q 532 242 551 307 q 506 140 515 179 q 497 69 497 100 q 606 -24 497 -24 "},"Ǩ":{"ha":835,"x_min":8,"x_max":989,"o":"m 606 -24 q 743 0 658 -24 q 703 35 718 10 q 689 92 689 60 q 699 161 689 119 q 719 246 708 203 q 747 358 738 313 q 757 443 757 403 q 718 552 757 513 q 585 592 679 592 l 536 590 l 922 1035 l 776 1035 q 604 806 775 1036 l 461 614 l 551 1039 q 496 1042 515 1042 q 268 990 382 1042 q 81 853 154 938 q 8 681 8 769 q 45 577 8 608 q 157 546 82 546 q 147 569 157 549 q 138 640 138 589 q 188 828 138 750 q 332 944 239 906 l 131 0 l 331 0 l 442 524 q 488 529 464 529 q 571 435 571 529 q 561 353 571 399 q 532 242 551 307 q 506 140 515 179 q 497 69 497 100 q 606 -24 497 -24 m 582 1389 l 665 1126 l 694 1126 l 989 1389 l 928 1389 l 710 1278 l 626 1389 l 582 1389 "},"Ķ":{"ha":835,"x_min":8,"x_max":922,"o":"m 606 -24 q 743 0 658 -24 q 703 35 718 10 q 689 92 689 60 q 699 161 689 119 q 719 246 708 203 q 747 358 738 313 q 757 443 757 403 q 718 552 757 513 q 585 592 679 592 l 536 590 l 922 1035 l 776 1035 q 604 806 775 1036 l 461 614 l 551 1039 q 496 1042 515 1042 q 268 990 382 1042 q 81 853 154 938 q 8 681 8 769 q 45 577 8 608 q 157 546 82 546 q 147 569 157 549 q 138 640 138 589 q 188 828 138 750 q 332 944 239 906 l 131 0 l 331 0 l 442 524 q 488 529 464 529 q 571 435 571 529 q 561 353 571 399 q 532 242 551 307 q 506 140 515 179 q 497 69 497 100 q 606 -24 497 -24 m 349 -318 l 376 -346 q 464 -262 431 -312 q 497 -165 497 -211 q 477 -110 497 -131 q 425 -89 457 -89 q 369 -107 390 -89 q 347 -154 347 -125 q 354 -181 347 -169 q 375 -207 361 -193 q 390 -226 383 -215 q 397 -246 397 -236 q 387 -274 397 -258 q 349 -318 376 -289 "},"L":{"ha":526,"x_min":8,"x_max":921,"o":"m 776 -347 q 872 -289 833 -347 q 921 -129 910 -231 q 804 -151 867 -151 q 671 -126 735 -151 q 517 -51 607 -100 q 417 -1 458 -19 q 338 28 376 18 l 551 1025 q 496 1028 515 1028 q 268 976 382 1028 q 81 840 154 924 q 8 667 8 756 q 45 563 8 594 q 157 532 82 532 q 147 555 157 535 q 138 626 138 575 q 188 815 138 738 q 332 929 239 892 l 125 -33 q 157 -32 136 -32 q 274 -56 217 -32 q 381 -113 332 -79 q 500 -203 431 -147 q 653 -312 593 -276 q 776 -347 714 -347 "},"Ĺ":{"ha":526,"x_min":8,"x_max":921,"o":"m 550 1389 l 424 1126 l 528 1126 l 696 1389 l 550 1389 m 776 -347 q 872 -289 833 -347 q 921 -129 910 -231 q 804 -151 867 -151 q 671 -126 735 -151 q 517 -51 607 -100 q 417 -1 458 -19 q 338 28 376 18 l 551 1025 q 496 1028 515 1028 q 268 976 382 1028 q 81 840 154 924 q 8 667 8 756 q 45 563 8 594 q 157 532 82 532 q 147 555 157 535 q 138 626 138 575 q 188 815 138 738 q 332 929 239 892 l 125 -33 q 157 -32 136 -32 q 274 -56 217 -32 q 381 -113 332 -79 q 500 -203 431 -147 q 653 -312 593 -276 q 776 -347 714 -347 "},"Ľ":{"ha":526,"x_min":8,"x_max":921,"o":"m 396 1389 l 479 1126 l 508 1126 l 803 1389 l 742 1389 l 522 1278 l 439 1389 l 396 1389 m 776 -347 q 872 -289 833 -347 q 921 -129 910 -231 q 804 -151 867 -151 q 671 -126 735 -151 q 517 -51 607 -100 q 417 -1 458 -19 q 338 28 376 18 l 551 1025 q 496 1028 515 1028 q 268 976 382 1028 q 81 840 154 924 q 8 667 8 756 q 45 563 8 594 q 157 532 82 532 q 147 555 157 535 q 138 626 138 575 q 188 815 138 738 q 332 929 239 892 l 125 -33 q 157 -32 136 -32 q 274 -56 217 -32 q 381 -113 332 -79 q 500 -203 431 -147 q 653 -312 593 -276 q 776 -347 714 -347 "},"Ļ":{"ha":526,"x_min":8,"x_max":921,"o":"m 776 -347 q 872 -289 833 -347 q 921 -129 910 -231 q 804 -151 867 -151 q 671 -126 735 -151 q 517 -51 607 -100 q 417 -1 458 -19 q 338 28 376 18 l 551 1025 q 496 1028 515 1028 q 268 976 382 1028 q 81 840 154 924 q 8 667 8 756 q 45 563 8 594 q 157 532 82 532 q 147 555 157 535 q 138 626 138 575 q 188 815 138 738 q 332 929 239 892 l 125 -33 q 157 -32 136 -32 q 274 -56 217 -32 q 381 -113 332 -79 q 500 -203 431 -147 q 653 -312 593 -276 q 776 -347 714 -347 m 113 -318 l 140 -346 q 227 -262 193 -312 q 261 -165 261 -211 q 241 -110 261 -131 q 188 -89 221 -89 q 131 -108 153 -89 q 110 -154 110 -126 q 117 -181 110 -169 q 138 -207 124 -193 q 153 -226 146 -215 q 160 -246 160 -236 q 149 -273 160 -258 q 113 -318 139 -287 "},"Ŀ":{"ha":840,"x_min":8,"x_max":921,"o":"m 776 -347 q 872 -289 833 -347 q 921 -129 910 -231 q 804 -151 867 -151 q 671 -126 735 -151 q 517 -51 607 -100 q 417 -1 458 -19 q 338 28 376 18 l 551 1025 q 496 1028 515 1028 q 268 976 382 1028 q 81 840 154 924 q 8 667 8 756 q 45 563 8 594 q 157 532 82 532 q 147 555 157 535 q 138 626 138 575 q 188 815 138 738 q 332 929 239 892 l 125 -33 q 157 -32 136 -32 q 274 -56 217 -32 q 381 -113 332 -79 q 500 -203 431 -147 q 653 -312 593 -276 q 776 -347 714 -347 m 667 239 q 746 271 713 239 q 779 347 779 303 q 746 427 779 394 q 667 460 713 460 q 590 427 622 460 q 557 347 557 394 q 590 271 557 303 q 667 239 622 239 "},"Ḷ":{"ha":526,"x_min":8,"x_max":921,"o":"m 776 -347 q 872 -289 833 -347 q 921 -129 910 -231 q 804 -151 867 -151 q 671 -126 735 -151 q 517 -51 607 -100 q 417 -1 458 -19 q 338 28 376 18 l 551 1025 q 496 1028 515 1028 q 268 976 382 1028 q 81 840 154 924 q 8 667 8 756 q 45 563 8 594 q 157 532 82 532 q 147 555 157 535 q 138 626 138 575 q 188 815 138 738 q 332 929 239 892 l 125 -33 q 157 -32 136 -32 q 274 -56 217 -32 q 381 -113 332 -79 q 500 -203 431 -147 q 653 -312 593 -276 q 776 -347 714 -347 m 206 -321 q 284 -289 251 -321 q 317 -211 317 -257 q 284 -133 317 -165 q 206 -100 251 -100 q 128 -133 160 -100 q 96 -211 96 -165 q 128 -289 96 -257 q 206 -321 160 -321 "},"Ł":{"ha":544,"x_min":8,"x_max":921,"o":"m 776 -347 q 872 -289 833 -347 q 921 -129 910 -231 q 804 -151 867 -151 q 671 -126 735 -151 q 517 -51 607 -101 q 417 -1 458 -19 q 338 28 376 18 l 454 563 l 631 671 l 636 756 l 475 660 l 551 1025 q 496 1028 515 1028 q 268 976 382 1028 q 81 840 154 924 q 8 667 8 756 q 45 563 8 594 q 157 532 82 532 q 147 555 157 535 q 138 626 138 575 q 188 815 138 738 q 332 929 239 892 l 240 497 l 135 429 l 132 356 l 222 410 l 125 -33 q 157 -32 136 -32 q 274 -56 217 -32 q 381 -113 332 -79 q 500 -203 431 -147 q 653 -312 593 -276 q 776 -347 714 -347 "},"M":{"ha":1093,"x_min":93,"x_max":1117,"o":"m 446 954 l 93 0 l 204 0 l 436 626 l 408 0 l 599 0 l 860 624 l 771 0 l 971 0 l 1117 1022 l 917 1022 l 611 290 l 643 1022 q 538 1042 589 1042 q 331 987 435 1042 q 162 845 228 932 q 96 672 96 758 q 244 546 96 546 q 235 569 244 550 q 225 642 225 589 q 283 840 225 760 q 446 954 340 919 "},"Ṃ":{"ha":1093,"x_min":93,"x_max":1117,"o":"m 446 954 l 93 0 l 204 0 l 436 626 l 408 0 l 599 0 l 860 624 l 771 0 l 971 0 l 1117 1022 l 917 1022 l 611 290 l 643 1022 q 538 1042 589 1042 q 331 987 435 1042 q 162 845 228 932 q 96 672 96 758 q 244 546 96 546 q 235 569 244 550 q 225 642 225 589 q 283 840 225 760 q 446 954 340 919 m 463 -321 q 542 -289 508 -321 q 575 -211 575 -257 q 542 -133 575 -165 q 463 -100 508 -100 q 385 -133 418 -100 q 353 -211 353 -165 q 385 -289 353 -257 q 463 -321 418 -321 "},"N":{"ha":928,"x_min":8,"x_max":997,"o":"m 338 951 l 128 0 l 260 0 l 418 689 l 579 0 l 771 0 l 997 1039 l 863 1039 l 707 285 l 540 1028 q 486 1043 510 1039 q 431 1047 463 1047 q 219 997 317 1047 q 65 863 122 947 q 8 682 8 779 q 51 569 8 606 q 182 532 93 532 q 154 592 164 556 q 144 674 144 629 q 194 847 144 775 q 338 951 243 918 "},"Ń":{"ha":975,"x_min":8,"x_max":997,"o":"m 815 1389 l 689 1126 l 793 1126 l 961 1389 l 815 1389 m 338 951 l 128 0 l 260 0 l 418 689 l 579 0 l 771 0 l 997 1039 l 863 1039 l 707 285 l 540 1028 q 486 1043 510 1039 q 431 1047 463 1047 q 219 997 317 1047 q 65 863 122 947 q 8 682 8 779 q 51 569 8 606 q 182 532 93 532 q 154 592 164 556 q 144 674 144 629 q 194 847 144 775 q 338 951 243 918 "},"Ň":{"ha":928,"x_min":8,"x_max":1019,"o":"m 613 1389 l 696 1126 l 725 1126 l 1019 1389 l 958 1389 l 740 1278 l 657 1389 l 613 1389 m 338 951 l 128 0 l 260 0 l 418 689 l 579 0 l 771 0 l 997 1039 l 863 1039 l 707 285 l 540 1028 q 486 1043 510 1039 q 431 1047 463 1047 q 219 997 317 1047 q 65 863 122 947 q 8 682 8 779 q 51 569 8 606 q 182 532 93 532 q 154 592 164 556 q 144 674 144 629 q 194 847 144 775 q 338 951 243 918 "},"Ņ":{"ha":928,"x_min":8,"x_max":997,"o":"m 338 951 l 128 0 l 260 0 l 418 689 l 579 0 l 771 0 l 997 1039 l 863 1039 l 707 285 l 540 1028 q 486 1043 510 1039 q 431 1047 463 1047 q 219 997 317 1047 q 65 863 122 947 q 8 682 8 779 q 51 569 8 606 q 182 532 93 532 q 154 592 164 556 q 144 674 144 629 q 194 847 144 775 q 338 951 243 918 m 343 -318 l 371 -346 q 458 -262 424 -312 q 492 -165 492 -211 q 472 -110 492 -131 q 418 -89 451 -89 q 362 -108 383 -89 q 340 -154 340 -126 q 347 -181 340 -169 q 368 -207 354 -193 q 383 -226 376 -215 q 390 -246 390 -236 q 380 -273 390 -258 q 343 -318 369 -287 "},"Ṅ":{"ha":928,"x_min":8,"x_max":997,"o":"m 740 1142 q 819 1173 786 1142 q 851 1250 851 1204 q 819 1329 851 1297 q 740 1361 786 1361 q 663 1329 694 1361 q 631 1250 631 1297 q 663 1173 631 1204 q 740 1142 694 1142 m 338 951 l 128 0 l 260 0 l 418 689 l 579 0 l 771 0 l 997 1039 l 863 1039 l 707 285 l 540 1028 q 486 1043 510 1039 q 431 1047 463 1047 q 219 997 317 1047 q 65 863 122 947 q 8 682 8 779 q 51 569 8 606 q 182 532 93 532 q 154 592 164 556 q 144 674 144 629 q 194 847 144 775 q 338 951 243 918 "},"Ṇ":{"ha":928,"x_min":8,"x_max":997,"o":"m 338 951 l 128 0 l 260 0 l 418 689 l 579 0 l 771 0 l 997 1039 l 863 1039 l 707 285 l 540 1028 q 486 1043 510 1039 q 431 1047 463 1047 q 219 997 317 1047 q 65 863 122 947 q 8 682 8 779 q 51 569 8 606 q 182 532 93 532 q 154 592 164 556 q 144 674 144 629 q 194 847 144 775 q 338 951 243 918 m 415 -321 q 494 -289 461 -321 q 526 -211 526 -257 q 494 -133 526 -165 q 415 -100 461 -100 q 338 -133 369 -100 q 306 -211 306 -165 q 338 -289 306 -257 q 415 -321 369 -321 "},"Ŋ":{"ha":1004,"x_min":71,"x_max":1071,"o":"m 525 -286 q 863 115 772 -286 l 1071 1044 l 936 1044 l 769 285 l 608 1028 q 551 1043 575 1039 q 499 1047 528 1047 q 286 997 385 1047 q 129 864 188 947 q 71 683 71 781 q 113 569 71 606 q 244 532 154 532 q 217 592 226 556 q 207 674 207 629 q 258 847 207 775 q 406 951 310 918 l 190 0 l 322 0 l 481 689 l 665 0 l 654 -46 q 600 -171 636 -125 q 519 -217 564 -217 q 467 -196 488 -217 q 446 -142 446 -175 q 460 -92 446 -112 q 497 -71 475 -71 q 471 -31 492 -46 q 419 -15 450 -15 q 353 -44 378 -15 q 329 -124 329 -74 q 383 -242 329 -197 q 525 -286 436 -286 "},"Ñ":{"ha":953,"x_min":8,"x_max":997,"o":"m 761 1138 q 861 1158 813 1138 q 944 1212 910 1179 q 985 1276 978 1244 l 976 1278 q 889 1246 944 1246 q 788 1267 847 1246 q 724 1285 753 1279 q 660 1292 694 1292 q 521 1257 581 1292 q 428 1156 461 1222 l 436 1153 q 528 1189 476 1189 q 577 1183 553 1189 q 633 1165 601 1176 q 700 1144 671 1151 q 761 1138 729 1138 m 338 951 l 128 0 l 260 0 l 418 689 l 579 0 l 771 0 l 997 1039 l 863 1039 l 707 285 l 540 1028 q 486 1043 510 1039 q 431 1047 463 1047 q 219 997 317 1047 q 65 863 122 947 q 8 682 8 779 q 51 569 8 606 q 182 532 93 532 q 154 592 164 556 q 144 674 144 629 q 194 847 144 775 q 338 951 243 918 "},"O":{"ha":924,"x_min":22,"x_max":911,"o":"m 399 -8 q 684 103 568 -8 q 856 376 800 215 q 911 686 911 538 q 833 947 911 853 q 582 1042 756 1042 q 309 988 439 1042 q 101 846 179 933 q 22 663 22 758 q 58 574 22 601 q 163 546 93 546 q 156 566 163 549 q 149 621 149 583 q 203 809 149 728 q 350 934 258 890 q 549 978 442 978 q 658 951 619 978 q 712 873 697 925 q 726 735 726 821 q 683 449 726 597 q 572 202 639 300 q 436 104 504 104 q 375 147 394 104 q 356 265 356 190 q 390 511 356 372 q 481 763 425 650 q 599 911 538 875 q 526 922 568 922 q 324 813 410 922 q 194 549 239 703 q 150 271 150 394 q 216 58 150 125 q 399 -8 282 -8 "},"Ó":{"ha":924,"x_min":22,"x_max":911,"o":"m 678 1389 l 551 1126 l 656 1126 l 824 1389 l 678 1389 m 399 -8 q 684 103 568 -8 q 856 376 800 215 q 911 686 911 538 q 833 947 911 853 q 582 1042 756 1042 q 309 988 439 1042 q 101 846 179 933 q 22 663 22 758 q 58 574 22 601 q 163 546 93 546 q 156 566 163 549 q 149 621 149 583 q 203 809 149 728 q 350 934 258 890 q 549 978 442 978 q 658 951 619 978 q 712 873 697 925 q 726 735 726 821 q 683 449 726 597 q 572 202 639 300 q 436 104 504 104 q 375 147 394 104 q 356 265 356 190 q 390 511 356 372 q 481 763 425 650 q 599 911 538 875 q 526 922 568 922 q 324 813 410 922 q 194 549 239 703 q 150 271 150 394 q 216 58 150 125 q 399 -8 282 -8 "},"Ŏ":{"ha":924,"x_min":22,"x_max":928,"o":"m 636 1132 q 774 1158 710 1132 q 879 1227 838 1183 q 928 1325 921 1271 l 810 1325 q 758 1243 803 1276 q 657 1210 714 1210 q 576 1240 604 1210 q 549 1325 549 1269 l 424 1325 q 478 1181 424 1231 q 636 1132 532 1132 m 399 -8 q 684 103 568 -8 q 856 376 800 215 q 911 686 911 538 q 833 947 911 853 q 582 1042 756 1042 q 309 988 439 1042 q 101 846 179 933 q 22 663 22 758 q 58 574 22 601 q 163 546 93 546 q 156 566 163 549 q 149 621 149 583 q 203 809 149 728 q 350 934 258 890 q 549 978 442 978 q 658 951 619 978 q 712 873 697 925 q 726 735 726 821 q 683 449 726 597 q 572 202 639 300 q 436 104 504 104 q 375 147 394 104 q 356 265 356 190 q 390 511 356 372 q 481 763 425 650 q 599 911 538 875 q 526 922 568 922 q 324 813 410 922 q 194 549 239 703 q 150 271 150 394 q 216 58 150 125 q 399 -8 282 -8 "},"Ǒ":{"ha":924,"x_min":22,"x_max":972,"o":"m 565 1389 l 649 1126 l 678 1126 l 972 1389 l 911 1389 l 693 1278 l 608 1389 l 565 1389 m 399 -8 q 684 103 568 -8 q 856 376 800 215 q 911 686 911 538 q 833 947 911 853 q 582 1042 756 1042 q 309 988 439 1042 q 101 846 179 933 q 22 663 22 758 q 58 574 22 601 q 163 546 93 546 q 156 566 163 549 q 149 621 149 583 q 203 809 149 728 q 350 934 258 890 q 549 978 442 978 q 658 951 619 978 q 712 873 697 925 q 726 735 726 821 q 683 449 726 597 q 572 202 639 300 q 436 104 504 104 q 375 147 394 104 q 356 265 356 190 q 390 511 356 372 q 481 763 425 650 q 599 911 538 875 q 526 922 568 922 q 324 813 410 922 q 194 549 239 703 q 150 271 150 394 q 216 58 150 125 q 399 -8 282 -8 "},"Ô":{"ha":924,"x_min":22,"x_max":911,"o":"m 672 1389 l 378 1126 l 439 1126 l 657 1238 l 740 1126 l 785 1126 l 701 1389 l 672 1389 m 399 -8 q 684 103 568 -8 q 856 376 800 215 q 911 686 911 538 q 833 947 911 853 q 582 1042 756 1042 q 309 988 439 1042 q 101 846 179 933 q 22 663 22 758 q 58 574 22 601 q 163 546 93 546 q 156 566 163 549 q 149 621 149 583 q 203 809 149 728 q 350 934 258 890 q 549 978 442 978 q 658 951 619 978 q 712 873 697 925 q 726 735 726 821 q 683 449 726 597 q 572 202 639 300 q 436 104 504 104 q 375 147 394 104 q 356 265 356 190 q 390 511 356 372 q 481 763 425 650 q 599 911 538 875 q 526 922 568 922 q 324 813 410 922 q 194 549 239 703 q 150 271 150 394 q 216 58 150 125 q 399 -8 282 -8 "},"Ố":{"ha":924,"x_min":22,"x_max":964,"o":"m 868 1389 l 782 1203 l 843 1203 l 964 1389 l 868 1389 m 696 1319 l 449 1126 l 531 1126 l 683 1226 l 728 1126 l 790 1126 l 721 1319 l 696 1319 m 399 -8 q 684 103 568 -8 q 856 376 800 215 q 911 686 911 538 q 833 947 911 853 q 582 1042 756 1042 q 309 988 439 1042 q 101 846 179 933 q 22 663 22 758 q 58 574 22 601 q 163 546 93 546 q 156 566 163 549 q 149 621 149 583 q 203 809 149 728 q 350 934 258 890 q 549 978 442 978 q 658 951 619 978 q 712 873 697 925 q 726 735 726 821 q 683 449 726 597 q 572 202 639 300 q 436 104 504 104 q 375 147 394 104 q 356 265 356 190 q 390 511 356 372 q 481 763 425 650 q 599 911 538 875 q 526 922 568 922 q 324 813 410 922 q 194 549 239 703 q 150 271 150 394 q 216 58 150 125 q 399 -8 282 -8 "},"Ộ":{"ha":924,"x_min":22,"x_max":911,"o":"m 672 1389 l 378 1126 l 439 1126 l 657 1238 l 740 1126 l 785 1126 l 701 1389 l 672 1389 m 399 -8 q 684 103 568 -8 q 856 376 800 215 q 911 686 911 538 q 833 947 911 853 q 582 1042 756 1042 q 309 988 439 1042 q 101 846 179 933 q 22 663 22 758 q 58 574 22 601 q 163 546 93 546 q 156 566 163 549 q 149 621 149 583 q 203 809 149 728 q 350 934 258 890 q 549 978 442 978 q 658 951 619 978 q 712 873 697 925 q 726 735 726 821 q 683 449 726 597 q 572 202 639 300 q 436 104 504 104 q 375 147 394 104 q 356 265 356 190 q 390 511 356 372 q 481 763 425 650 q 599 911 538 875 q 526 922 568 922 q 324 813 410 922 q 194 549 239 703 q 150 271 150 394 q 216 58 150 125 q 399 -8 282 -8 m 361 -321 q 440 -289 407 -321 q 472 -211 472 -257 q 440 -133 472 -165 q 361 -100 407 -100 q 283 -133 315 -100 q 251 -211 251 -165 q 283 -289 251 -257 q 361 -321 315 -321 "},"Ồ":{"ha":924,"x_min":22,"x_max":911,"o":"m 781 1389 l 842 1201 l 899 1201 l 872 1389 l 781 1389 m 696 1319 l 449 1126 l 529 1126 l 683 1226 l 728 1126 l 790 1126 l 721 1319 l 696 1319 m 399 -8 q 684 103 568 -8 q 856 376 800 215 q 911 686 911 538 q 833 947 911 853 q 582 1042 756 1042 q 309 988 439 1042 q 101 846 179 933 q 22 663 22 758 q 58 574 22 601 q 163 546 93 546 q 156 566 163 549 q 149 621 149 583 q 203 809 149 728 q 350 934 258 890 q 549 978 442 978 q 658 951 619 978 q 712 873 697 925 q 726 735 726 821 q 683 449 726 597 q 572 202 639 300 q 436 104 504 104 q 375 147 394 104 q 356 265 356 190 q 390 511 356 372 q 481 763 425 650 q 599 911 538 875 q 526 922 568 922 q 324 813 410 922 q 194 549 239 703 q 150 271 150 394 q 216 58 150 125 q 399 -8 282 -8 "},"Ổ":{"ha":924,"x_min":22,"x_max":983,"o":"m 826 1189 l 874 1186 l 878 1226 q 954 1253 925 1229 q 983 1311 983 1276 q 954 1367 983 1346 q 881 1389 925 1389 q 828 1382 854 1389 q 786 1364 803 1375 l 811 1325 q 869 1340 838 1340 q 917 1306 917 1340 q 869 1268 917 1268 q 826 1274 857 1268 l 826 1189 m 696 1319 l 449 1126 l 529 1126 l 683 1226 l 728 1126 l 790 1126 l 721 1319 l 696 1319 m 399 -8 q 684 103 568 -8 q 856 376 800 215 q 911 686 911 538 q 833 947 911 853 q 582 1042 756 1042 q 309 988 439 1042 q 101 846 179 933 q 22 663 22 758 q 58 574 22 601 q 163 546 93 546 q 156 566 163 549 q 149 621 149 583 q 203 809 149 728 q 350 934 258 890 q 549 978 442 978 q 658 951 619 978 q 712 873 697 925 q 726 735 726 821 q 683 449 726 597 q 572 202 639 300 q 436 104 504 104 q 375 147 394 104 q 356 265 356 190 q 390 511 356 372 q 481 763 425 650 q 599 911 538 875 q 526 922 568 922 q 324 813 410 922 q 194 549 239 703 q 150 271 150 394 q 216 58 150 125 q 399 -8 282 -8 "},"Ỗ":{"ha":924,"x_min":22,"x_max":911,"o":"m 449 1126 l 531 1126 l 683 1226 l 728 1126 l 790 1126 l 736 1278 l 747 1278 q 850 1309 801 1278 q 906 1376 899 1340 l 899 1378 q 839 1356 878 1356 q 767 1371 810 1356 q 721 1384 740 1379 q 676 1389 701 1389 q 578 1364 621 1389 q 513 1292 536 1339 l 519 1290 q 582 1315 547 1315 q 623 1309 601 1315 q 665 1296 644 1303 l 449 1126 m 582 1042 q 309 988 439 1042 q 101 846 179 933 q 22 663 22 758 q 58 574 22 601 q 163 546 93 546 q 156 566 163 549 q 149 621 149 583 q 203 809 149 728 q 350 934 258 890 q 549 978 442 978 q 658 951 619 978 q 712 873 697 925 q 726 735 726 821 q 683 449 726 597 q 572 202 639 300 q 436 104 504 104 q 375 147 394 104 q 356 265 356 190 q 390 511 356 372 q 481 763 425 650 q 599 911 538 875 q 526 922 568 922 q 324 813 410 922 q 194 549 239 703 q 150 271 150 394 q 216 58 150 125 q 399 -8 282 -8 q 684 103 568 -8 q 856 376 800 215 q 911 686 911 538 q 833 947 911 853 q 582 1042 756 1042 "},"Ȍ":{"ha":924,"x_min":22,"x_max":911,"o":"m 263 1389 l 458 1126 l 535 1126 l 408 1389 l 263 1389 m 488 1389 l 683 1126 l 760 1126 l 633 1389 l 488 1389 m 399 -8 q 684 103 568 -8 q 856 376 800 215 q 911 686 911 538 q 833 947 911 853 q 582 1042 756 1042 q 309 988 439 1042 q 101 846 179 933 q 22 663 22 758 q 58 574 22 601 q 163 546 93 546 q 156 566 163 549 q 149 621 149 583 q 203 809 149 728 q 350 934 258 890 q 549 978 442 978 q 658 951 619 978 q 712 873 697 925 q 726 735 726 821 q 683 449 726 597 q 572 202 639 300 q 436 104 504 104 q 375 147 394 104 q 356 265 356 190 q 390 511 356 372 q 481 763 425 650 q 599 911 538 875 q 526 922 568 922 q 324 813 410 922 q 194 549 239 703 q 150 271 150 394 q 216 58 150 125 q 399 -8 282 -8 "},"Ö":{"ha":924,"x_min":22,"x_max":911,"o":"m 485 1143 q 544 1167 519 1143 q 569 1228 569 1192 q 544 1288 569 1263 q 485 1313 519 1313 q 424 1288 449 1313 q 400 1228 400 1263 q 424 1167 400 1192 q 485 1143 449 1143 m 735 1143 q 794 1167 769 1143 q 819 1228 819 1192 q 794 1288 819 1263 q 735 1313 769 1313 q 674 1288 699 1313 q 650 1228 650 1263 q 674 1167 650 1192 q 735 1143 699 1143 m 399 -8 q 684 103 568 -8 q 856 376 800 215 q 911 686 911 538 q 833 947 911 853 q 582 1042 756 1042 q 309 988 439 1042 q 101 846 179 933 q 22 663 22 758 q 58 574 22 601 q 163 546 93 546 q 156 566 163 549 q 149 621 149 583 q 203 809 149 728 q 350 934 258 890 q 549 978 442 978 q 658 951 619 978 q 712 873 697 925 q 726 735 726 821 q 683 449 726 597 q 572 202 639 300 q 436 104 504 104 q 375 147 394 104 q 356 265 356 190 q 390 511 356 372 q 481 763 425 650 q 599 911 538 875 q 526 922 568 922 q 324 813 410 922 q 194 549 239 703 q 150 271 150 394 q 216 58 150 125 q 399 -8 282 -8 "},"Ọ":{"ha":924,"x_min":22,"x_max":911,"o":"m 399 -8 q 684 103 568 -8 q 856 376 800 215 q 911 686 911 538 q 833 947 911 853 q 582 1042 756 1042 q 309 988 439 1042 q 101 846 179 933 q 22 663 22 758 q 58 574 22 601 q 163 546 93 546 q 156 566 163 549 q 149 621 149 583 q 203 809 149 728 q 350 934 258 890 q 549 978 442 978 q 658 951 619 978 q 712 873 697 925 q 726 735 726 821 q 683 449 726 597 q 572 202 639 300 q 436 104 504 104 q 375 147 394 104 q 356 265 356 190 q 390 511 356 372 q 481 763 425 650 q 599 911 538 875 q 526 922 568 922 q 324 813 410 922 q 194 549 239 703 q 150 271 150 394 q 216 58 150 125 q 399 -8 282 -8 m 361 -321 q 440 -289 407 -321 q 472 -211 472 -257 q 440 -133 472 -165 q 361 -100 407 -100 q 283 -133 315 -100 q 251 -211 251 -165 q 283 -289 251 -257 q 361 -321 315 -321 "},"Ò":{"ha":924,"x_min":22,"x_max":911,"o":"m 419 1389 l 501 1126 l 606 1126 l 565 1389 l 419 1389 m 399 -8 q 684 103 568 -8 q 856 376 800 215 q 911 686 911 538 q 833 947 911 853 q 582 1042 756 1042 q 309 988 439 1042 q 101 846 179 933 q 22 663 22 758 q 58 574 22 601 q 163 546 93 546 q 156 566 163 549 q 149 621 149 583 q 203 809 149 728 q 350 934 258 890 q 549 978 442 978 q 658 951 619 978 q 712 873 697 925 q 726 735 726 821 q 683 449 726 597 q 572 202 639 300 q 436 104 504 104 q 375 147 394 104 q 356 265 356 190 q 390 511 356 372 q 481 763 425 650 q 599 911 538 875 q 526 922 568 922 q 324 813 410 922 q 194 549 239 703 q 150 271 150 394 q 216 58 150 125 q 399 -8 282 -8 "},"Ỏ":{"ha":924,"x_min":22,"x_max":911,"o":"m 592 1103 l 657 1100 l 667 1157 q 773 1195 732 1163 q 814 1276 814 1228 q 774 1358 814 1326 q 669 1389 733 1389 q 596 1379 633 1389 q 535 1354 558 1369 l 571 1296 q 654 1318 606 1318 q 719 1268 719 1318 q 702 1231 719 1244 q 654 1218 685 1218 q 592 1225 626 1218 l 592 1103 m 399 -8 q 684 103 568 -8 q 856 376 800 215 q 911 686 911 538 q 833 947 911 853 q 582 1042 756 1042 q 309 988 439 1042 q 101 846 179 933 q 22 663 22 758 q 58 574 22 601 q 163 546 93 546 q 156 566 163 549 q 149 621 149 583 q 203 809 149 728 q 350 934 258 890 q 549 978 442 978 q 658 951 619 978 q 712 873 697 925 q 726 735 726 821 q 683 449 726 597 q 572 202 639 300 q 436 104 504 104 q 375 147 394 104 q 356 265 356 190 q 390 511 356 372 q 481 763 425 650 q 599 911 538 875 q 526 922 568 922 q 324 813 410 922 q 194 549 239 703 q 150 271 150 394 q 216 58 150 125 q 399 -8 282 -8 "},"Ơ":{"ha":924,"x_min":22,"x_max":1006,"o":"m 1006 1163 q 950 1228 1006 1228 q 868 1199 913 1228 q 876 1125 876 1164 q 861 1035 876 1074 q 807 974 846 997 q 582 1042 724 1042 q 309 988 439 1042 q 101 846 179 933 q 22 663 22 758 q 58 574 22 601 q 163 546 93 546 q 156 566 163 549 q 149 621 149 583 q 203 809 149 728 q 350 934 258 890 q 549 978 442 978 q 658 951 619 978 q 712 873 697 925 q 726 735 726 821 q 683 449 726 597 q 572 202 639 300 q 436 104 504 104 q 375 147 394 104 q 356 265 356 190 q 390 511 356 372 q 481 763 425 650 q 599 911 538 875 q 526 922 568 922 q 324 813 410 922 q 194 549 239 703 q 150 271 150 394 q 216 58 150 125 q 399 -8 282 -8 q 684 103 568 -8 q 856 376 800 215 q 911 686 911 538 q 860 910 911 825 q 964 1024 922 951 q 1006 1163 1006 1096 "},"Ớ":{"ha":924,"x_min":22,"x_max":1006,"o":"m 656 1126 l 824 1389 l 678 1389 l 551 1126 l 656 1126 m 1006 1163 q 950 1228 1006 1228 q 868 1199 913 1228 q 876 1125 876 1164 q 861 1035 876 1074 q 807 974 846 997 q 582 1042 724 1042 q 309 988 439 1042 q 101 846 179 933 q 22 663 22 758 q 58 574 22 601 q 163 546 93 546 q 156 566 163 549 q 149 621 149 583 q 203 809 149 728 q 350 934 258 890 q 549 978 442 978 q 658 951 619 978 q 712 873 697 925 q 726 735 726 821 q 683 449 726 597 q 572 202 639 300 q 436 104 504 104 q 375 147 394 104 q 356 265 356 190 q 390 511 356 372 q 481 763 425 650 q 599 911 538 875 q 526 922 568 922 q 324 813 410 922 q 194 549 239 703 q 150 271 150 394 q 216 58 150 125 q 399 -8 282 -8 q 684 103 568 -8 q 856 376 800 215 q 911 686 911 538 q 860 910 911 825 q 964 1024 922 951 q 1006 1163 1006 1096 "},"Ợ":{"ha":924,"x_min":22,"x_max":1006,"o":"m 1006 1163 q 950 1228 1006 1228 q 868 1199 913 1228 q 876 1125 876 1164 q 861 1035 876 1074 q 807 974 846 997 q 582 1042 724 1042 q 309 988 439 1042 q 101 846 179 933 q 22 663 22 758 q 58 574 22 601 q 163 546 93 546 q 156 566 163 549 q 149 621 149 583 q 203 809 149 728 q 350 934 258 890 q 549 978 442 978 q 658 951 619 978 q 712 873 697 925 q 726 735 726 821 q 683 449 726 597 q 572 202 639 300 q 436 104 504 104 q 375 147 394 104 q 356 265 356 190 q 390 511 356 372 q 481 763 425 650 q 599 911 538 875 q 526 922 568 922 q 324 813 410 922 q 194 549 239 703 q 150 271 150 394 q 216 58 150 125 q 399 -8 282 -8 q 684 103 568 -8 q 856 376 800 215 q 911 686 911 538 q 860 910 911 825 q 964 1024 922 951 q 1006 1163 1006 1096 m 361 -100 q 283 -133 315 -100 q 251 -211 251 -165 q 283 -289 251 -257 q 361 -321 315 -321 q 440 -289 407 -321 q 472 -211 472 -257 q 440 -133 472 -165 q 361 -100 407 -100 "},"Ờ":{"ha":924,"x_min":22,"x_max":1006,"o":"m 501 1126 l 606 1126 l 565 1389 l 419 1389 l 501 1126 m 1006 1163 q 950 1228 1006 1228 q 868 1199 913 1228 q 876 1125 876 1164 q 861 1035 876 1074 q 807 974 846 997 q 582 1042 724 1042 q 309 988 439 1042 q 101 846 179 933 q 22 663 22 758 q 58 574 22 601 q 163 546 93 546 q 156 566 163 549 q 149 621 149 583 q 203 809 149 728 q 350 934 258 890 q 549 978 442 978 q 658 951 619 978 q 712 873 697 925 q 726 735 726 821 q 683 449 726 597 q 572 202 639 300 q 436 104 504 104 q 375 147 394 104 q 356 265 356 190 q 390 511 356 372 q 481 763 425 650 q 599 911 538 875 q 526 922 568 922 q 324 813 410 922 q 194 549 239 703 q 150 271 150 394 q 216 58 150 125 q 399 -8 282 -8 q 684 103 568 -8 q 856 376 800 215 q 911 686 911 538 q 860 910 911 825 q 964 1024 922 951 q 1006 1163 1006 1096 "},"Ở":{"ha":924,"x_min":22,"x_max":1006,"o":"m 654 1318 q 719 1268 719 1318 q 702 1231 719 1244 q 654 1218 685 1218 q 592 1225 626 1218 l 592 1103 l 657 1100 l 667 1157 q 773 1195 732 1163 q 814 1276 814 1228 q 774 1358 814 1326 q 669 1389 733 1389 q 596 1379 633 1389 q 535 1354 558 1369 l 571 1296 q 654 1318 606 1318 m 1006 1163 q 950 1228 1006 1228 q 868 1199 913 1228 q 876 1125 876 1164 q 861 1035 876 1074 q 807 974 846 997 q 582 1042 724 1042 q 309 988 439 1042 q 101 846 179 933 q 22 663 22 758 q 58 574 22 601 q 163 546 93 546 q 156 566 163 549 q 149 621 149 583 q 203 809 149 728 q 350 934 258 890 q 549 978 442 978 q 658 951 619 978 q 712 873 697 925 q 726 735 726 821 q 683 449 726 597 q 572 202 639 300 q 436 104 504 104 q 375 147 394 104 q 356 265 356 190 q 390 511 356 372 q 481 763 425 650 q 599 911 538 875 q 526 922 568 922 q 324 813 410 922 q 194 549 239 703 q 150 271 150 394 q 216 58 150 125 q 399 -8 282 -8 q 684 103 568 -8 q 856 376 800 215 q 911 686 911 538 q 860 910 911 825 q 964 1024 922 951 q 1006 1163 1006 1096 "},"Ỡ":{"ha":924,"x_min":22,"x_max":1006,"o":"m 421 1189 q 463 1183 443 1189 q 513 1165 483 1176 q 572 1144 547 1151 q 626 1138 597 1138 q 715 1158 671 1138 q 788 1212 758 1179 q 824 1276 818 1244 l 817 1278 q 739 1246 788 1246 q 650 1267 703 1246 q 592 1285 617 1279 q 536 1292 568 1292 q 414 1257 467 1292 q 332 1156 361 1222 l 339 1153 q 421 1189 375 1189 m 1006 1163 q 950 1228 1006 1228 q 868 1199 913 1228 q 876 1125 876 1164 q 861 1035 876 1074 q 807 974 846 997 q 582 1042 724 1042 q 309 988 439 1042 q 101 846 179 933 q 22 663 22 758 q 58 574 22 601 q 163 546 93 546 q 156 566 163 549 q 149 621 149 583 q 203 809 149 728 q 350 934 258 890 q 549 978 442 978 q 658 951 619 978 q 712 873 697 925 q 726 735 726 821 q 683 449 726 597 q 572 202 639 300 q 436 104 504 104 q 375 147 394 104 q 356 265 356 190 q 390 511 356 372 q 481 763 425 650 q 599 911 538 875 q 526 922 568 922 q 324 813 410 922 q 194 549 239 703 q 150 271 150 394 q 216 58 150 125 q 399 -8 282 -8 q 684 103 568 -8 q 856 376 800 215 q 911 686 911 538 q 860 910 911 825 q 964 1024 922 951 q 1006 1163 1006 1096 "},"Ő":{"ha":924,"x_min":22,"x_max":1013,"o":"m 642 1388 l 515 1125 l 592 1125 l 788 1388 l 642 1388 m 867 1388 l 740 1125 l 817 1125 l 1013 1388 l 867 1388 m 399 -8 q 684 103 568 -8 q 856 376 800 215 q 911 686 911 538 q 833 947 911 853 q 582 1042 756 1042 q 309 988 439 1042 q 101 846 179 933 q 22 663 22 758 q 58 574 22 601 q 163 546 93 546 q 156 566 163 549 q 149 621 149 583 q 203 809 149 728 q 350 934 258 890 q 549 978 442 978 q 658 951 619 978 q 712 873 697 925 q 726 735 726 821 q 683 449 726 597 q 572 202 639 300 q 436 104 504 104 q 375 147 394 104 q 356 265 356 190 q 390 511 356 372 q 481 763 425 650 q 599 911 538 875 q 526 922 568 922 q 324 813 410 922 q 194 549 239 703 q 150 271 150 394 q 216 58 150 125 q 399 -8 282 -8 "},"Ȏ":{"ha":924,"x_min":22,"x_max":911,"o":"m 403 1142 l 521 1142 q 572 1224 528 1190 q 674 1257 617 1257 q 753 1227 725 1257 q 782 1142 782 1197 l 907 1142 q 853 1285 907 1236 q 694 1333 799 1333 q 557 1308 621 1333 q 451 1239 493 1283 q 403 1142 410 1194 m 399 -8 q 684 103 568 -8 q 856 376 800 215 q 911 686 911 538 q 833 947 911 853 q 582 1042 756 1042 q 309 988 439 1042 q 101 846 179 933 q 22 663 22 758 q 58 574 22 601 q 163 546 93 546 q 156 566 163 549 q 149 621 149 583 q 203 809 149 728 q 350 934 258 890 q 549 978 442 978 q 658 951 619 978 q 712 873 697 925 q 726 735 726 821 q 683 449 726 597 q 572 202 639 300 q 436 104 504 104 q 375 147 394 104 q 356 265 356 190 q 390 511 356 372 q 481 763 425 650 q 599 911 538 875 q 526 922 568 922 q 324 813 410 922 q 194 549 239 703 q 150 271 150 394 q 216 58 150 125 q 399 -8 282 -8 "},"Ō":{"ha":924,"x_min":22,"x_max":911,"o":"m 397 1282 l 375 1179 l 821 1179 l 840 1282 l 397 1282 m 399 -8 q 684 103 568 -8 q 856 376 800 215 q 911 686 911 538 q 833 947 911 853 q 582 1042 756 1042 q 309 988 439 1042 q 101 846 179 933 q 22 663 22 758 q 58 574 22 601 q 163 546 93 546 q 156 566 163 549 q 149 621 149 583 q 203 809 149 728 q 350 934 258 890 q 549 978 442 978 q 658 951 619 978 q 712 873 697 925 q 726 735 726 821 q 683 449 726 597 q 572 202 639 300 q 436 104 504 104 q 375 147 394 104 q 356 265 356 190 q 390 511 356 372 q 481 763 425 650 q 599 911 538 875 q 526 922 568 922 q 324 813 410 922 q 194 549 239 703 q 150 271 150 394 q 216 58 150 125 q 399 -8 282 -8 "},"Ǫ":{"ha":924,"x_min":22,"x_max":911,"o":"m 488 1126 l 592 1126 l 551 1389 l 406 1389 l 488 1126 m 403 -8 q 685 105 571 -7 q 856 378 800 217 q 911 686 911 539 q 833 947 911 853 q 582 1042 756 1042 q 309 988 439 1042 q 101 846 179 933 q 22 663 22 758 q 58 574 22 601 q 163 546 93 546 q 156 566 163 549 q 149 621 149 583 q 203 809 149 728 q 350 934 258 890 q 549 978 442 978 q 658 951 619 978 q 712 873 697 925 q 726 735 726 821 q 683 449 726 597 q 572 202 639 300 q 436 104 504 104 q 375 147 394 104 q 356 265 356 190 q 390 511 356 372 q 481 763 425 650 q 599 911 538 875 q 526 922 568 922 q 324 813 410 922 q 194 549 239 703 q 150 271 150 394 q 199 80 150 147 q 338 -3 249 13 q 238 -168 238 -75 q 276 -260 238 -224 q 376 -297 315 -297 q 480 -265 429 -297 q 553 -185 531 -232 l 529 -153 q 431 -207 482 -207 q 374 -184 396 -207 q 353 -122 353 -161 q 366 -59 353 -89 q 403 -8 379 -29 "},"Ø":{"ha":914,"x_min":21,"x_max":878,"o":"m 388 -8 l 368 -99 l 440 -99 l 461 -1 q 693 130 599 24 q 833 376 788 236 q 878 642 878 515 q 665 964 878 913 l 682 1042 l 610 1042 l 594 974 q 561 975 583 975 q 297 924 422 975 q 97 792 172 874 q 21 619 21 710 q 56 537 21 563 q 157 511 90 511 q 150 530 157 514 q 143 581 143 546 q 196 757 143 681 q 337 874 249 833 q 529 915 425 915 q 582 911 560 915 l 569 854 q 507 864 542 864 q 313 761 396 864 q 188 514 231 658 q 144 254 144 369 q 208 55 144 118 q 385 -8 272 -8 l 388 -8 m 488 122 l 647 881 q 689 808 678 854 q 700 688 700 763 q 670 464 700 581 q 591 255 640 347 q 488 122 542 163 m 568 847 l 410 97 q 343 249 343 111 q 375 473 343 346 q 459 705 407 600 q 568 847 511 810 "},"Ǿ":{"ha":914,"x_min":21,"x_max":879,"o":"m 733 1389 l 607 1126 l 711 1126 l 879 1389 l 733 1389 m 388 -8 l 368 -99 l 440 -99 l 461 -1 q 693 130 599 24 q 833 376 788 236 q 878 642 878 515 q 665 964 878 913 l 682 1042 l 610 1042 l 594 974 q 561 975 583 975 q 297 924 422 975 q 97 792 172 874 q 21 619 21 710 q 56 537 21 563 q 157 511 90 511 q 150 530 157 514 q 143 581 143 546 q 196 757 143 681 q 337 874 249 833 q 529 915 425 915 q 582 911 560 915 l 569 854 q 507 864 542 864 q 313 761 396 864 q 188 514 231 658 q 144 254 144 369 q 208 55 144 118 q 385 -8 272 -8 l 388 -8 m 488 122 l 647 881 q 689 808 678 854 q 700 688 700 763 q 670 464 700 581 q 591 255 640 347 q 488 122 542 163 m 568 847 l 410 97 q 343 249 343 111 q 375 473 343 346 q 459 705 407 600 q 568 847 511 810 "},"Õ":{"ha":924,"x_min":22,"x_max":938,"o":"m 714 1138 q 814 1158 765 1138 q 897 1212 863 1179 q 938 1276 931 1244 l 929 1278 q 842 1246 897 1246 q 740 1267 800 1246 q 677 1285 706 1279 q 613 1292 649 1292 q 474 1257 533 1292 q 381 1156 414 1222 l 389 1153 q 481 1189 429 1189 q 530 1183 506 1189 q 586 1165 554 1176 q 653 1144 624 1151 q 714 1138 682 1138 m 399 -8 q 684 103 568 -8 q 856 376 800 215 q 911 686 911 538 q 833 947 911 853 q 582 1042 756 1042 q 309 988 439 1042 q 101 846 179 933 q 22 663 22 758 q 58 574 22 601 q 163 546 93 546 q 156 566 163 549 q 149 621 149 583 q 203 809 149 728 q 350 934 258 890 q 549 978 442 978 q 658 951 619 978 q 712 873 697 925 q 726 735 726 821 q 683 449 726 597 q 572 202 639 300 q 436 104 504 104 q 375 147 394 104 q 356 265 356 190 q 390 511 356 372 q 481 763 425 650 q 599 911 538 875 q 526 922 568 922 q 324 813 410 922 q 194 549 239 703 q 150 271 150 394 q 216 58 150 125 q 399 -8 282 -8 "},"Œ":{"ha":1175,"x_min":22,"x_max":1269,"o":"m 399 -8 q 499 3 447 -8 l 497 0 l 1035 0 l 1064 147 l 725 147 q 822 299 782 213 q 885 479 863 385 l 1061 479 l 1089 582 l 904 582 q 911 686 911 642 q 850 925 911 839 q 961 903 894 919 q 1056 882 1017 889 q 1138 875 1094 875 q 1215 915 1186 885 q 1254 987 1243 944 q 1269 1042 1265 1029 q 1144 1025 1218 1025 q 1003 1035 1103 1025 q 914 1042 947 1042 q 735 1015 810 1042 q 582 1042 669 1042 q 309 988 439 1042 q 101 846 179 933 q 22 663 22 758 q 58 574 22 601 q 163 546 93 546 q 156 566 163 549 q 149 621 149 583 q 203 809 149 728 q 350 934 258 890 q 549 978 442 978 q 658 951 619 978 q 712 873 697 925 q 726 735 726 821 q 683 449 726 597 q 572 202 639 300 q 436 104 504 104 q 375 147 394 104 q 356 265 356 190 q 390 511 356 372 q 481 763 425 650 q 599 911 538 875 q 526 922 568 922 q 324 813 410 922 q 194 549 239 703 q 150 271 150 394 q 216 58 150 125 q 399 -8 282 -8 "},"P":{"ha":796,"x_min":8,"x_max":824,"o":"m 319 883 l 131 0 l 331 0 l 415 396 l 422 396 q 633 451 542 396 q 774 592 725 506 q 824 768 824 678 q 788 905 824 843 q 679 1004 753 967 q 496 1042 606 1042 q 268 990 382 1042 q 81 853 154 938 q 8 681 8 769 q 45 577 8 608 q 157 546 82 546 q 147 569 157 549 q 138 640 138 589 q 233 889 138 800 q 497 978 328 978 q 626 925 583 978 q 669 789 669 872 q 638 636 669 714 q 549 506 606 558 q 426 447 493 453 l 525 911 l 319 883 "},"Þ":{"ha":810,"x_min":8,"x_max":824,"o":"m 297 781 l 131 0 l 331 0 l 382 243 l 422 243 q 633 298 542 243 q 774 439 725 353 q 824 615 824 525 q 747 804 824 728 q 519 889 669 881 l 553 1042 l 347 1014 l 313 856 q 160 775 229 826 q 49 659 90 724 q 8 528 8 594 q 45 424 8 456 q 157 393 82 393 q 147 416 157 396 q 138 488 138 436 q 178 666 138 592 q 297 781 219 740 m 413 294 l 393 294 l 507 825 q 629 769 589 822 q 669 636 669 717 q 635 480 669 560 q 542 347 601 400 q 413 294 483 294 "},"Q":{"ha":924,"x_min":22,"x_max":911,"o":"m 707 -157 q 790 -131 756 -157 q 850 -37 824 -106 q 819 -40 828 -40 q 721 -11 760 -40 q 646 72 682 18 q 793 243 733 138 q 882 466 853 349 q 911 686 911 583 q 833 947 911 853 q 582 1042 756 1042 q 309 988 439 1042 q 101 846 179 933 q 22 663 22 758 q 58 574 22 601 q 163 546 93 546 q 156 566 163 549 q 149 621 149 583 q 203 809 149 728 q 350 934 258 890 q 549 978 442 978 q 658 951 619 978 q 712 873 697 925 q 726 735 726 821 q 676 430 726 588 q 556 181 626 272 q 444 218 507 218 q 358 206 408 218 q 356 240 356 217 l 356 265 q 390 511 356 372 q 481 763 425 650 q 599 911 538 875 q 526 922 568 922 q 324 813 410 922 q 194 549 239 703 q 150 271 150 394 q 216 58 150 125 q 399 -8 282 -8 q 528 11 465 -8 q 563 -77 546 -43 q 615 -134 581 -111 q 707 -157 650 -157 m 436 104 q 369 161 389 104 q 410 167 388 167 q 489 119 461 167 q 436 104 467 104 "},"R":{"ha":835,"x_min":8,"x_max":811,"o":"m 606 -24 q 743 0 658 -24 q 703 35 718 10 q 689 92 689 60 q 699 161 689 119 q 719 246 708 203 q 747 358 738 313 q 757 443 757 403 q 735 531 757 496 q 661 582 714 567 q 771 689 731 624 q 811 819 811 754 q 776 930 811 879 q 671 1011 742 981 q 496 1042 600 1042 q 268 990 382 1042 q 81 853 154 938 q 8 681 8 769 q 45 577 8 608 q 157 546 82 546 q 147 569 157 549 q 138 640 138 589 q 184 821 138 744 q 315 938 231 897 q 513 978 400 978 q 627 937 589 978 q 665 832 665 896 q 640 722 665 778 q 568 628 614 665 q 468 590 522 590 l 457 590 l 525 911 l 319 883 l 131 0 l 331 0 l 442 524 q 488 529 465 529 q 571 435 571 529 q 561 353 571 399 q 532 242 551 307 q 506 140 515 179 q 497 69 497 100 q 606 -24 497 -24 "},"Ŕ":{"ha":835,"x_min":8,"x_max":811,"o":"m 639 1389 l 513 1126 l 617 1126 l 785 1389 l 639 1389 m 606 -24 q 743 0 658 -24 q 703 35 718 10 q 689 92 689 60 q 699 161 689 119 q 719 246 708 203 q 747 358 738 313 q 757 443 757 403 q 735 531 757 496 q 661 582 714 567 q 771 689 731 624 q 811 819 811 754 q 776 930 811 879 q 671 1011 742 981 q 496 1042 600 1042 q 268 990 382 1042 q 81 853 154 938 q 8 681 8 769 q 45 577 8 608 q 157 546 82 546 q 147 569 157 549 q 138 640 138 589 q 184 821 138 744 q 315 938 231 897 q 513 978 400 978 q 627 937 589 978 q 665 832 665 896 q 640 722 665 778 q 568 628 614 665 q 468 590 522 590 l 457 590 l 525 911 l 319 883 l 131 0 l 331 0 l 442 524 q 488 529 465 529 q 571 435 571 529 q 561 353 571 399 q 532 242 551 307 q 506 140 515 179 q 497 69 497 100 q 606 -24 497 -24 "},"Ř":{"ha":835,"x_min":8,"x_max":883,"o":"m 476 1389 l 560 1126 l 589 1126 l 883 1389 l 822 1389 l 604 1278 l 521 1389 l 476 1389 m 606 -24 q 743 0 658 -24 q 703 35 718 10 q 689 92 689 60 q 699 161 689 119 q 719 246 708 203 q 747 358 738 313 q 757 443 757 403 q 735 531 757 496 q 661 582 714 567 q 771 689 731 624 q 811 819 811 754 q 776 930 811 879 q 671 1011 742 981 q 496 1042 600 1042 q 268 990 382 1042 q 81 853 154 938 q 8 681 8 769 q 45 577 8 608 q 157 546 82 546 q 147 569 157 549 q 138 640 138 589 q 184 821 138 744 q 315 938 231 897 q 513 978 400 978 q 627 937 589 978 q 665 832 665 896 q 640 722 665 778 q 568 628 614 665 q 468 590 522 590 l 457 590 l 525 911 l 319 883 l 131 0 l 331 0 l 442 524 q 488 529 465 529 q 571 435 571 529 q 561 353 571 399 q 532 242 551 307 q 506 140 515 179 q 497 69 497 100 q 606 -24 497 -24 "},"Ŗ":{"ha":835,"x_min":8,"x_max":811,"o":"m 606 -24 q 743 0 658 -24 q 703 35 718 10 q 689 92 689 60 q 699 161 689 119 q 719 246 708 203 q 747 358 738 313 q 757 443 757 403 q 735 531 757 496 q 661 582 714 567 q 771 689 731 624 q 811 819 811 754 q 776 930 811 879 q 671 1011 742 981 q 496 1042 600 1042 q 268 990 382 1042 q 81 853 154 938 q 8 681 8 769 q 45 577 8 608 q 157 546 82 546 q 147 569 157 549 q 138 640 138 589 q 184 821 138 744 q 315 938 231 897 q 513 978 400 978 q 627 937 589 978 q 665 832 665 896 q 640 722 665 778 q 568 628 614 665 q 468 590 522 590 l 457 590 l 525 911 l 319 883 l 131 0 l 331 0 l 442 524 q 488 529 465 529 q 571 435 571 529 q 561 353 571 399 q 532 242 551 307 q 506 140 515 179 q 497 69 497 100 q 606 -24 497 -24 m 322 -318 l 350 -346 q 437 -262 403 -312 q 471 -165 471 -211 q 451 -110 471 -131 q 397 -89 431 -89 q 341 -108 363 -89 q 319 -154 319 -126 q 326 -181 319 -169 q 347 -207 333 -193 q 363 -226 356 -215 q 369 -246 369 -236 q 359 -274 369 -258 q 322 -318 349 -289 "},"Ȑ":{"ha":835,"x_min":8,"x_max":811,"o":"m 161 1389 l 357 1126 l 435 1126 l 307 1389 l 161 1389 m 386 1389 l 582 1126 l 658 1126 l 532 1389 l 386 1389 m 606 -24 q 743 0 658 -24 q 703 35 718 10 q 689 92 689 60 q 699 161 689 119 q 719 246 708 203 q 747 358 738 313 q 757 443 757 403 q 735 531 757 496 q 661 582 714 567 q 771 689 731 624 q 811 819 811 754 q 776 930 811 879 q 671 1011 742 981 q 496 1042 600 1042 q 268 990 382 1042 q 81 853 154 938 q 8 681 8 769 q 45 577 8 608 q 157 546 82 546 q 147 569 157 549 q 138 640 138 589 q 184 821 138 744 q 315 938 231 897 q 513 978 400 978 q 627 937 589 978 q 665 832 665 896 q 640 722 665 778 q 568 628 614 665 q 468 590 522 590 l 457 590 l 525 911 l 319 883 l 131 0 l 331 0 l 442 524 q 488 529 465 529 q 571 435 571 529 q 561 353 571 399 q 532 242 551 307 q 506 140 515 179 q 497 69 497 100 q 606 -24 497 -24 "},"Ṛ":{"ha":835,"x_min":8,"x_max":811,"o":"m 606 -24 q 743 0 658 -24 q 703 35 718 10 q 689 92 689 60 q 699 161 689 119 q 719 246 708 203 q 747 358 738 313 q 757 443 757 403 q 735 531 757 496 q 661 582 714 567 q 771 689 731 624 q 811 819 811 754 q 776 930 811 879 q 671 1011 742 981 q 496 1042 600 1042 q 268 990 382 1042 q 81 853 154 938 q 8 681 8 769 q 45 577 8 608 q 157 546 82 546 q 147 569 157 549 q 138 640 138 589 q 184 821 138 744 q 315 938 231 897 q 513 978 400 978 q 627 937 589 978 q 665 832 665 896 q 640 722 665 778 q 568 628 614 665 q 468 590 522 590 l 457 590 l 525 911 l 319 883 l 131 0 l 331 0 l 442 524 q 488 529 465 529 q 571 435 571 529 q 561 353 571 399 q 532 242 551 307 q 506 140 515 179 q 497 69 497 100 q 606 -24 497 -24 m 396 -321 q 474 -289 442 -321 q 507 -211 507 -257 q 474 -133 507 -165 q 396 -100 442 -100 q 318 -133 350 -100 q 286 -211 286 -165 q 318 -289 286 -257 q 396 -321 350 -321 "},"Ȓ":{"ha":835,"x_min":8,"x_max":811,"o":"m 281 1142 l 400 1142 q 451 1224 407 1190 q 551 1257 494 1257 q 633 1227 604 1257 q 661 1142 661 1197 l 785 1142 q 731 1284 785 1235 q 574 1333 676 1333 q 435 1308 500 1333 q 329 1239 371 1283 q 281 1142 288 1194 m 606 -24 q 743 0 658 -24 q 703 35 718 10 q 689 92 689 60 q 699 161 689 119 q 719 246 708 203 q 747 358 738 313 q 757 443 757 403 q 735 531 757 496 q 661 582 714 567 q 771 689 731 624 q 811 819 811 754 q 776 930 811 879 q 671 1011 742 981 q 496 1042 600 1042 q 268 990 382 1042 q 81 853 154 938 q 8 681 8 769 q 45 577 8 608 q 157 546 82 546 q 147 569 157 549 q 138 640 138 589 q 184 821 138 744 q 315 938 231 897 q 513 978 400 978 q 627 937 589 978 q 665 832 665 896 q 640 722 665 778 q 568 628 614 665 q 468 590 522 590 l 457 590 l 525 911 l 319 883 l 131 0 l 331 0 l 442 524 q 488 529 465 529 q 571 435 571 529 q 561 353 571 399 q 532 242 551 307 q 506 140 515 179 q 497 69 497 100 q 606 -24 497 -24 "},"S":{"ha":792,"x_min":47,"x_max":768,"o":"m 340 -25 q 530 17 444 -25 q 665 131 615 58 q 714 292 714 203 q 690 413 714 357 q 631 513 665 469 q 542 615 597 556 q 442 738 474 690 q 410 842 410 786 q 445 942 410 903 q 536 982 481 982 q 608 956 582 982 q 635 885 635 929 q 619 818 635 850 q 578 767 604 786 q 663 724 610 724 q 739 760 710 724 q 768 854 768 796 q 701 996 768 943 q 521 1049 633 1049 q 361 1015 432 1049 q 250 924 290 982 q 210 794 210 867 q 248 659 210 721 q 361 511 286 597 q 469 369 433 428 q 506 246 506 311 q 458 122 506 171 q 336 72 410 72 q 240 108 276 72 q 204 204 204 144 q 247 308 204 269 q 363 346 290 346 q 321 413 354 389 q 239 438 288 438 q 142 408 186 438 q 73 329 99 379 q 47 218 47 279 q 83 91 47 146 q 186 6 119 36 q 340 -25 253 -25 "},"Ś":{"ha":792,"x_min":47,"x_max":769,"o":"m 624 1389 l 497 1126 l 601 1126 l 769 1389 l 624 1389 m 340 -25 q 530 17 444 -25 q 665 131 615 58 q 714 292 714 203 q 690 413 714 357 q 631 513 665 469 q 542 615 597 556 q 442 738 474 690 q 410 842 410 786 q 445 942 410 903 q 536 982 481 982 q 608 956 582 982 q 635 885 635 929 q 619 818 635 850 q 578 767 604 786 q 663 724 610 724 q 739 760 710 724 q 768 854 768 796 q 701 996 768 943 q 521 1049 633 1049 q 361 1015 432 1049 q 250 924 290 982 q 210 794 210 867 q 248 659 210 721 q 361 511 286 597 q 469 369 433 428 q 506 246 506 311 q 458 122 506 171 q 336 72 410 72 q 240 108 276 72 q 204 204 204 144 q 247 308 204 269 q 363 346 290 346 q 321 413 354 389 q 239 438 288 438 q 142 408 186 438 q 73 329 99 379 q 47 218 47 279 q 83 91 47 146 q 186 6 119 36 q 340 -25 253 -25 "},"Š":{"ha":792,"x_min":47,"x_max":889,"o":"m 482 1389 l 565 1126 l 594 1126 l 889 1389 l 828 1389 l 610 1278 l 526 1389 l 482 1389 m 340 -25 q 530 17 444 -25 q 665 131 615 58 q 714 292 714 203 q 690 413 714 357 q 631 513 665 469 q 542 615 597 556 q 442 738 474 690 q 410 842 410 786 q 445 942 410 903 q 536 982 481 982 q 608 956 582 982 q 635 885 635 929 q 619 818 635 850 q 578 767 604 786 q 663 724 610 724 q 739 760 710 724 q 768 854 768 796 q 701 996 768 943 q 521 1049 633 1049 q 361 1015 432 1049 q 250 924 290 982 q 210 794 210 867 q 248 659 210 721 q 361 511 286 597 q 469 369 433 428 q 506 246 506 311 q 458 122 506 171 q 336 72 410 72 q 240 108 276 72 q 204 204 204 144 q 247 308 204 269 q 363 346 290 346 q 321 413 354 389 q 239 438 288 438 q 142 408 186 438 q 73 329 99 379 q 47 218 47 279 q 83 91 47 146 q 186 6 119 36 q 340 -25 253 -25 "},"Ş":{"ha":792,"x_min":47,"x_max":768,"o":"m 578 767 q 663 724 610 724 q 739 760 710 724 q 768 854 768 796 q 701 996 768 943 q 521 1049 633 1049 q 361 1015 432 1049 q 250 924 290 982 q 210 794 210 867 q 248 659 210 721 q 361 511 286 597 q 469 369 433 428 q 506 246 506 311 q 458 122 506 171 q 336 72 410 72 q 240 108 276 72 q 204 204 204 144 q 247 308 204 269 q 363 346 290 346 q 321 413 354 389 q 239 438 288 438 q 142 408 186 438 q 73 329 99 379 q 47 218 47 279 q 119 49 47 115 q 313 -24 192 -17 l 258 -160 l 264 -165 q 332 -149 297 -149 q 374 -162 358 -149 q 390 -197 390 -175 q 371 -238 390 -222 q 321 -254 351 -254 q 267 -243 294 -254 q 221 -212 240 -232 l 197 -250 q 258 -297 221 -281 q 336 -314 294 -314 q 427 -294 385 -314 q 494 -242 469 -275 q 519 -169 519 -208 q 492 -103 519 -128 q 419 -78 465 -78 q 346 -92 393 -78 l 374 -24 q 547 25 469 -18 q 669 138 625 68 q 714 292 714 207 q 690 413 714 357 q 631 513 665 469 q 542 615 597 556 q 442 738 474 690 q 410 842 410 786 q 445 942 410 903 q 536 982 481 982 q 608 956 582 982 q 635 885 635 929 q 619 818 635 850 q 578 767 604 786 "},"Ŝ":{"ha":792,"x_min":47,"x_max":768,"o":"m 640 1389 l 347 1126 l 407 1126 l 626 1238 l 710 1126 l 753 1126 l 669 1389 l 640 1389 m 340 -25 q 530 17 444 -25 q 665 131 615 58 q 714 292 714 203 q 690 413 714 357 q 631 513 665 469 q 542 615 597 556 q 442 738 474 690 q 410 842 410 786 q 445 942 410 903 q 536 982 481 982 q 608 956 582 982 q 635 885 635 929 q 619 818 635 850 q 578 767 604 786 q 663 724 610 724 q 739 760 710 724 q 768 854 768 796 q 701 996 768 943 q 521 1049 633 1049 q 361 1015 432 1049 q 250 924 290 982 q 210 794 210 867 q 248 659 210 721 q 361 511 286 597 q 469 369 433 428 q 506 246 506 311 q 458 122 506 171 q 336 72 410 72 q 240 108 276 72 q 204 204 204 144 q 247 308 204 269 q 363 346 290 346 q 321 413 354 389 q 239 438 288 438 q 142 408 186 438 q 73 329 99 379 q 47 218 47 279 q 83 91 47 146 q 186 6 119 36 q 340 -25 253 -25 "},"Ș":{"ha":792,"x_min":47,"x_max":768,"o":"m 340 -25 q 530 17 444 -25 q 665 131 615 58 q 714 292 714 203 q 690 413 714 357 q 631 513 665 469 q 542 615 597 556 q 442 738 474 690 q 410 842 410 786 q 445 942 410 903 q 536 982 481 982 q 608 956 582 982 q 635 885 635 929 q 619 818 635 850 q 578 767 604 786 q 663 724 610 724 q 739 760 710 724 q 768 854 768 796 q 701 996 768 943 q 521 1049 633 1049 q 361 1015 432 1049 q 250 924 290 982 q 210 794 210 867 q 248 659 210 721 q 361 511 286 597 q 469 369 433 428 q 506 246 506 311 q 458 122 506 171 q 336 72 410 72 q 240 108 276 72 q 204 204 204 144 q 247 308 204 269 q 363 346 290 346 q 321 413 354 389 q 239 438 288 438 q 142 408 186 438 q 73 329 99 379 q 47 218 47 279 q 83 91 47 146 q 186 6 119 36 q 340 -25 253 -25 m 228 -318 l 256 -346 q 342 -262 308 -312 q 376 -165 376 -211 q 356 -110 376 -131 q 303 -89 336 -89 q 247 -108 268 -89 q 225 -154 225 -126 q 232 -181 225 -169 q 253 -207 239 -193 q 268 -226 261 -215 q 275 -246 275 -236 q 265 -273 275 -258 q 228 -318 254 -287 "},"Ṡ":{"ha":792,"x_min":47,"x_max":768,"o":"m 578 1142 q 656 1173 624 1142 q 689 1250 689 1204 q 656 1329 689 1297 q 578 1361 624 1361 q 500 1329 532 1361 q 468 1250 468 1297 q 500 1173 468 1204 q 578 1142 532 1142 m 340 -25 q 530 17 444 -25 q 665 131 615 58 q 714 292 714 203 q 690 413 714 357 q 631 513 665 469 q 542 615 597 556 q 442 738 474 690 q 410 842 410 786 q 445 942 410 903 q 536 982 481 982 q 608 956 582 982 q 635 885 635 929 q 619 818 635 850 q 578 767 604 786 q 663 724 610 724 q 739 760 710 724 q 768 854 768 796 q 701 996 768 943 q 521 1049 633 1049 q 361 1015 432 1049 q 250 924 290 982 q 210 794 210 867 q 248 659 210 721 q 361 511 286 597 q 469 369 433 428 q 506 246 506 311 q 458 122 506 171 q 336 72 410 72 q 240 108 276 72 q 204 204 204 144 q 247 308 204 269 q 363 346 290 346 q 321 413 354 389 q 239 438 288 438 q 142 408 186 438 q 73 329 99 379 q 47 218 47 279 q 83 91 47 146 q 186 6 119 36 q 340 -25 253 -25 "},"Ṣ":{"ha":792,"x_min":47,"x_max":768,"o":"m 340 -25 q 530 17 444 -25 q 665 131 615 58 q 714 292 714 203 q 690 413 714 357 q 631 513 665 469 q 542 615 597 556 q 442 738 474 690 q 410 842 410 786 q 445 942 410 903 q 536 982 481 982 q 608 956 582 982 q 635 885 635 929 q 619 818 635 850 q 578 767 604 786 q 663 724 610 724 q 739 760 710 724 q 768 854 768 796 q 701 996 768 943 q 521 1049 633 1049 q 361 1015 432 1049 q 250 924 290 982 q 210 794 210 867 q 248 659 210 721 q 361 511 286 597 q 469 369 433 428 q 506 246 506 311 q 458 122 506 171 q 336 72 410 72 q 240 108 276 72 q 204 204 204 144 q 247 308 204 269 q 363 346 290 346 q 321 413 354 389 q 239 438 288 438 q 142 408 186 438 q 73 329 99 379 q 47 218 47 279 q 83 91 47 146 q 186 6 119 36 q 340 -25 253 -25 m 281 -321 q 359 -289 326 -321 q 392 -211 392 -257 q 359 -133 392 -165 q 281 -100 326 -100 q 203 -133 235 -100 q 171 -211 171 -165 q 203 -289 171 -257 q 281 -321 235 -321 "},"ẞ":{"ha":776,"x_min":-81,"x_max":833,"o":"m 582 540 l 833 1039 l 453 1039 q 298 996 361 1039 q 189 851 235 953 q 107 574 143 750 l -81 -347 l 119 -297 l 313 603 q 372 824 344 747 q 426 933 399 901 q 492 964 454 964 l 581 964 l 376 557 q 465 456 431 536 q 500 289 500 375 q 463 145 500 203 q 357 88 425 88 q 312 96 332 88 q 281 119 292 104 q 244 60 244 97 q 283 0 244 22 q 389 -22 322 -22 q 551 22 482 -22 q 658 138 621 65 q 694 292 694 210 q 582 540 694 433 "},"Ə":{"ha":756,"x_min":28,"x_max":749,"o":"m 244 -8 q 488 91 371 -8 q 676 351 604 190 q 749 683 749 511 q 663 962 749 864 q 421 1060 578 1060 q 274 1035 340 1060 q 170 969 208 1011 q 132 875 132 926 q 144 821 132 846 q 176 779 156 796 q 254 866 204 836 q 368 896 304 896 q 485 849 447 896 q 522 703 522 801 q 515 590 522 625 q 283 533 396 590 q 99 385 169 476 q 28 196 28 293 q 88 49 28 106 q 244 -8 147 -8 m 256 94 q 200 182 200 94 q 242 342 200 265 q 353 469 283 419 q 501 524 424 519 q 436 302 476 400 q 349 149 396 204 q 256 94 301 94 "},"T":{"ha":668,"x_min":8,"x_max":999,"o":"m 415 919 l 218 0 l 418 0 l 610 892 q 736 868 692 875 q 825 861 781 861 q 953 904 910 861 q 999 1038 996 947 q 838 1008 926 1008 q 679 1024 768 1008 q 482 1040 574 1040 q 212 990 318 1040 q 57 859 106 940 q 8 679 8 778 q 45 576 8 607 q 157 544 82 544 q 147 567 157 547 q 138 639 138 588 q 206 858 138 796 q 399 919 275 919 l 415 919 "},"Ŧ":{"ha":668,"x_min":8,"x_max":999,"o":"m 838 1008 q 679 1024 768 1008 q 482 1040 574 1040 q 212 990 318 1040 q 57 859 106 940 q 8 679 8 778 q 45 576 8 607 q 157 544 82 544 q 147 567 157 547 q 138 639 138 588 q 206 858 138 796 q 399 919 275 919 l 415 919 l 314 444 l 129 444 l 110 375 l 299 375 l 218 0 l 418 0 l 499 375 l 722 375 l 740 444 l 514 444 l 610 892 q 736 868 692 875 q 825 861 781 861 q 953 904 910 861 q 999 1038 996 947 q 838 1008 926 1008 "},"Ť":{"ha":668,"x_min":8,"x_max":999,"o":"m 443 1389 l 526 1126 l 556 1126 l 850 1389 l 789 1389 l 571 1278 l 488 1389 l 443 1389 m 415 919 l 218 0 l 418 0 l 610 892 q 736 868 692 875 q 825 861 781 861 q 953 904 910 861 q 999 1038 996 947 q 838 1008 926 1008 q 679 1024 768 1008 q 482 1040 574 1040 q 212 990 318 1040 q 57 859 106 940 q 8 679 8 778 q 45 576 8 607 q 157 544 82 544 q 147 567 157 547 q 138 639 138 588 q 206 858 138 796 q 399 919 275 919 l 415 919 "},"Ţ":{"ha":668,"x_min":8,"x_max":999,"o":"m 838 1008 q 679 1024 768 1008 q 482 1040 574 1040 q 212 990 318 1040 q 57 859 106 940 q 8 679 8 778 q 45 576 8 607 q 157 544 82 544 q 147 567 157 547 q 138 639 138 588 q 206 858 138 796 q 399 919 275 919 l 415 919 l 218 0 l 301 0 l 238 -160 l 243 -165 q 311 -149 276 -149 q 353 -162 338 -149 q 369 -197 369 -175 q 350 -238 369 -222 q 300 -254 331 -254 q 247 -243 274 -254 q 200 -212 219 -232 l 176 -250 q 237 -297 200 -281 q 315 -314 274 -314 q 406 -294 364 -314 q 474 -242 449 -275 q 499 -169 499 -208 q 472 -103 499 -128 q 399 -78 444 -78 q 325 -92 372 -78 l 363 0 l 418 0 l 610 892 q 736 868 692 875 q 825 861 781 861 q 953 904 910 861 q 999 1038 996 947 q 838 1008 926 1008 "},"Ț":{"ha":668,"x_min":8,"x_max":999,"o":"m 415 919 l 218 0 l 418 0 l 610 892 q 736 868 692 875 q 825 861 781 861 q 953 904 910 861 q 999 1038 996 947 q 838 1008 926 1008 q 679 1024 768 1008 q 482 1040 574 1040 q 212 990 318 1040 q 57 859 106 940 q 8 679 8 778 q 45 576 8 607 q 157 544 82 544 q 147 567 157 547 q 138 639 138 588 q 206 858 138 796 q 399 919 275 919 l 415 919 m 228 -318 l 256 -346 q 342 -262 308 -312 q 376 -165 376 -211 q 356 -110 376 -131 q 303 -89 336 -89 q 247 -108 268 -89 q 225 -154 225 -126 q 232 -181 225 -169 q 253 -207 239 -193 q 268 -226 261 -215 q 275 -246 275 -236 q 265 -273 275 -258 q 228 -318 254 -287 "},"Ṭ":{"ha":668,"x_min":8,"x_max":999,"o":"m 415 919 l 218 0 l 418 0 l 610 892 q 736 868 692 875 q 825 861 781 861 q 953 904 910 861 q 999 1038 996 947 q 838 1008 926 1008 q 679 1024 768 1008 q 482 1040 574 1040 q 212 990 318 1040 q 57 859 106 940 q 8 679 8 778 q 45 576 8 607 q 157 544 82 544 q 147 567 157 547 q 138 639 138 588 q 206 858 138 796 q 399 919 275 919 l 415 919 m 288 -321 q 366 -289 333 -321 q 399 -211 399 -257 q 366 -133 399 -165 q 288 -100 333 -100 q 210 -133 242 -100 q 178 -211 178 -165 q 210 -289 178 -257 q 288 -321 242 -321 "},"U":{"ha":994,"x_min":-7,"x_max":1058,"o":"m 493 -10 q 770 94 661 -10 q 924 403 879 199 l 1058 1044 l 863 1044 l 724 403 q 508 117 664 117 q 400 249 400 117 q 424 399 400 311 l 593 1040 q 515 1047 563 1047 q 260 997 381 1047 q 66 865 139 947 q -7 692 -7 782 q 37 582 -7 621 q 160 543 81 543 q 124 675 124 607 q 190 853 124 772 q 376 967 257 935 l 235 403 q 215 257 215 322 q 285 58 215 125 q 493 -10 356 -10 "},"Ú":{"ha":994,"x_min":-7,"x_max":1050,"o":"m 746 1389 l 619 1126 l 724 1126 l 892 1389 l 746 1389 m 476 -10 q 718 54 629 -10 q 858 245 807 118 q 958 606 910 372 l 1050 1039 l 854 1039 l 761 610 q 674 285 711 386 q 599 155 638 183 q 493 126 561 126 q 419 158 442 126 q 397 251 397 189 q 422 424 397 317 q 524 811 447 531 l 585 1035 q 518 1042 549 1042 q 263 990 385 1042 q 67 854 142 939 q -7 674 -7 769 q 31 576 -7 606 q 142 546 68 546 q 132 569 142 550 q 122 642 122 589 q 188 848 122 765 q 368 961 253 931 l 322 778 l 299 683 q 230 396 251 500 q 208 211 208 292 q 270 46 208 101 q 476 -10 332 -10 "},"Ŭ":{"ha":994,"x_min":-7,"x_max":1050,"o":"m 731 1132 q 869 1158 804 1132 q 975 1227 933 1183 q 1024 1325 1017 1271 l 904 1325 q 853 1243 897 1276 q 753 1210 810 1210 q 672 1240 700 1210 q 643 1325 643 1269 l 519 1325 q 574 1181 519 1231 q 731 1132 628 1132 m 476 -10 q 718 54 629 -10 q 858 245 807 118 q 958 606 910 372 l 1050 1039 l 854 1039 l 761 610 q 674 285 711 386 q 599 155 638 183 q 493 126 561 126 q 419 158 442 126 q 397 251 397 189 q 422 424 397 317 q 524 811 447 531 l 585 1035 q 518 1042 549 1042 q 263 990 385 1042 q 67 854 142 939 q -7 674 -7 769 q 31 576 -7 606 q 142 546 68 546 q 132 569 142 550 q 122 642 122 589 q 188 848 122 765 q 368 961 253 931 l 322 778 l 299 683 q 230 396 251 500 q 208 211 208 292 q 270 46 208 101 q 476 -10 332 -10 "},"Ǔ":{"ha":994,"x_min":-7,"x_max":1050,"o":"m 639 1389 l 724 1126 l 753 1126 l 1046 1389 l 985 1389 l 767 1278 l 683 1389 l 639 1389 m 476 -10 q 718 54 629 -10 q 858 245 807 118 q 958 606 910 372 l 1050 1039 l 854 1039 l 761 610 q 674 285 711 386 q 599 155 638 183 q 493 126 561 126 q 419 158 442 126 q 397 251 397 189 q 422 424 397 317 q 524 811 447 531 l 585 1035 q 518 1042 549 1042 q 263 990 385 1042 q 67 854 142 939 q -7 674 -7 769 q 31 576 -7 606 q 142 546 68 546 q 132 569 142 550 q 122 642 122 589 q 188 848 122 765 q 368 961 253 931 l 322 778 l 299 683 q 230 396 251 500 q 208 211 208 292 q 270 46 208 101 q 476 -10 332 -10 "},"Û":{"ha":994,"x_min":-7,"x_max":1050,"o":"m 792 1389 l 497 1126 l 558 1126 l 776 1238 l 860 1126 l 904 1126 l 821 1389 l 792 1389 m 476 -10 q 718 54 629 -10 q 858 245 807 118 q 958 606 910 372 l 1050 1039 l 854 1039 l 761 610 q 674 285 711 386 q 599 155 638 183 q 493 126 561 126 q 419 158 442 126 q 397 251 397 189 q 422 424 397 317 q 524 811 447 531 l 585 1035 q 518 1042 549 1042 q 263 990 385 1042 q 67 854 142 939 q -7 674 -7 769 q 31 576 -7 606 q 142 546 68 546 q 132 569 142 550 q 122 642 122 589 q 188 848 122 765 q 368 961 253 931 l 322 778 l 299 683 q 230 396 251 500 q 208 211 208 292 q 270 46 208 101 q 476 -10 332 -10 "},"Ȕ":{"ha":994,"x_min":-7,"x_max":1050,"o":"m 378 1389 l 575 1126 l 651 1126 l 524 1389 l 378 1389 m 604 1389 l 800 1126 l 875 1126 l 750 1389 l 604 1389 m 476 -10 q 718 54 629 -10 q 858 245 807 118 q 958 606 910 372 l 1050 1039 l 854 1039 l 761 610 q 674 285 711 386 q 599 155 638 183 q 493 126 561 126 q 419 158 442 126 q 397 251 397 189 q 422 424 397 317 q 524 811 447 531 l 585 1035 q 518 1042 549 1042 q 263 990 385 1042 q 67 854 142 939 q -7 674 -7 769 q 31 576 -7 606 q 142 546 68 546 q 132 569 142 550 q 122 642 122 589 q 188 848 122 765 q 368 961 253 931 l 322 778 l 299 683 q 230 396 251 500 q 208 211 208 292 q 270 46 208 101 q 476 -10 332 -10 "},"Ü":{"ha":994,"x_min":-7,"x_max":1050,"o":"m 610 1143 q 669 1167 644 1143 q 694 1228 694 1192 q 669 1288 694 1263 q 610 1313 644 1313 q 549 1288 574 1313 q 525 1228 525 1263 q 549 1167 525 1192 q 610 1143 574 1143 m 860 1143 q 919 1167 894 1143 q 944 1228 944 1192 q 919 1288 944 1263 q 860 1313 894 1313 q 799 1288 824 1313 q 775 1228 775 1263 q 799 1167 775 1192 q 860 1143 824 1143 m 476 -10 q 718 54 629 -10 q 858 245 807 118 q 958 606 910 372 l 1050 1039 l 854 1039 l 761 610 q 674 285 711 386 q 599 155 638 183 q 493 126 561 126 q 419 158 442 126 q 397 251 397 189 q 422 424 397 317 q 524 811 447 531 l 585 1035 q 518 1042 549 1042 q 263 990 385 1042 q 67 854 142 939 q -7 674 -7 769 q 31 576 -7 606 q 142 546 68 546 q 132 569 142 550 q 122 642 122 589 q 188 848 122 765 q 368 961 253 931 l 322 778 l 299 683 q 230 396 251 500 q 208 211 208 292 q 270 46 208 101 q 476 -10 332 -10 "},"Ǘ":{"ha":994,"x_min":-7,"x_max":1053,"o":"m 767 1389 l 640 1126 l 744 1126 l 913 1389 l 767 1389 m 542 1143 q 601 1167 576 1143 q 626 1228 626 1192 q 601 1288 626 1263 q 542 1313 576 1313 q 481 1288 506 1313 q 457 1228 457 1263 q 481 1167 457 1192 q 542 1143 506 1143 m 968 1143 q 1028 1167 1003 1143 q 1053 1228 1053 1192 q 1028 1288 1053 1263 q 968 1313 1003 1313 q 908 1288 932 1313 q 883 1228 883 1263 q 908 1167 883 1192 q 968 1143 932 1143 m 476 -10 q 718 54 629 -10 q 858 245 807 118 q 958 606 910 372 l 1050 1039 l 854 1039 l 761 610 q 674 285 711 386 q 599 155 638 183 q 493 126 561 126 q 419 158 442 126 q 397 251 397 189 q 422 424 397 317 q 524 811 447 531 l 585 1035 q 518 1042 549 1042 q 263 990 385 1042 q 67 854 142 939 q -7 674 -7 769 q 31 576 -7 606 q 142 546 68 546 q 132 569 142 550 q 122 642 122 589 q 188 848 122 765 q 368 961 253 931 l 322 778 l 299 683 q 230 396 251 500 q 208 211 208 292 q 270 46 208 101 q 476 -10 332 -10 "},"Ǚ":{"ha":994,"x_min":-7,"x_max":1053,"o":"m 619 1389 l 693 1157 l 719 1157 l 979 1389 l 925 1389 l 732 1290 l 658 1389 l 619 1389 m 542 1143 q 601 1167 576 1143 q 626 1228 626 1192 q 601 1288 626 1263 q 542 1313 576 1313 q 481 1288 506 1313 q 457 1228 457 1263 q 481 1167 457 1192 q 542 1143 506 1143 m 968 1143 q 1028 1167 1003 1143 q 1053 1228 1053 1192 q 1028 1288 1053 1263 q 968 1313 1003 1313 q 908 1288 932 1313 q 883 1228 883 1263 q 908 1167 883 1192 q 968 1143 932 1143 m 476 -10 q 718 54 629 -10 q 858 245 807 118 q 958 606 910 372 l 1050 1039 l 854 1039 l 761 610 q 674 285 711 386 q 599 155 638 183 q 493 126 561 126 q 419 158 442 126 q 397 251 397 189 q 422 424 397 317 q 524 811 447 531 l 585 1035 q 518 1042 549 1042 q 263 990 385 1042 q 67 854 142 939 q -7 674 -7 769 q 31 576 -7 606 q 142 546 68 546 q 132 569 142 550 q 122 642 122 589 q 188 848 122 765 q 368 961 253 931 l 322 778 l 299 683 q 230 396 251 500 q 208 211 208 292 q 270 46 208 101 q 476 -10 332 -10 "},"Ǜ":{"ha":994,"x_min":-7,"x_max":1053,"o":"m 650 1389 l 732 1126 l 836 1126 l 796 1389 l 650 1389 m 542 1143 q 601 1167 576 1143 q 626 1228 626 1192 q 601 1288 626 1263 q 542 1313 576 1313 q 481 1288 506 1313 q 457 1228 457 1263 q 481 1167 457 1192 q 542 1143 506 1143 m 968 1143 q 1028 1167 1003 1143 q 1053 1228 1053 1192 q 1028 1288 1053 1263 q 968 1313 1003 1313 q 908 1288 932 1313 q 883 1228 883 1263 q 908 1167 883 1192 q 968 1143 932 1143 m 476 -10 q 718 54 629 -10 q 858 245 807 118 q 958 606 910 372 l 1050 1039 l 854 1039 l 761 610 q 674 285 711 386 q 599 155 638 183 q 493 126 561 126 q 419 158 442 126 q 397 251 397 189 q 422 424 397 317 q 524 811 447 531 l 585 1035 q 518 1042 549 1042 q 263 990 385 1042 q 67 854 142 939 q -7 674 -7 769 q 31 576 -7 606 q 142 546 68 546 q 132 569 142 550 q 122 642 122 589 q 188 848 122 765 q 368 961 253 931 l 322 778 l 299 683 q 230 396 251 500 q 208 211 208 292 q 270 46 208 101 q 476 -10 332 -10 "},"Ǖ":{"ha":994,"x_min":-7,"x_max":1050,"o":"m 567 1389 l 544 1313 l 990 1313 l 1011 1389 l 567 1389 m 610 1089 q 669 1113 644 1089 q 694 1174 694 1138 q 669 1233 694 1208 q 610 1258 644 1258 q 549 1233 574 1258 q 525 1174 525 1208 q 549 1113 525 1138 q 610 1089 574 1089 m 900 1089 q 960 1113 935 1089 q 985 1174 985 1138 q 960 1233 985 1208 q 900 1258 935 1258 q 840 1233 864 1258 q 815 1174 815 1208 q 840 1113 815 1138 q 900 1089 864 1089 m 476 -10 q 718 54 629 -10 q 858 245 807 118 q 958 606 910 372 l 1050 1039 l 854 1039 l 761 610 q 674 285 711 386 q 599 155 638 183 q 493 126 561 126 q 419 158 442 126 q 397 251 397 189 q 422 424 397 317 q 524 811 447 531 l 585 1035 q 518 1042 549 1042 q 263 990 385 1042 q 67 854 142 939 q -7 674 -7 769 q 31 576 -7 606 q 142 546 68 546 q 132 569 142 550 q 122 642 122 589 q 188 848 122 765 q 368 961 253 931 l 322 778 l 299 683 q 230 396 251 500 q 208 211 208 292 q 270 46 208 101 q 476 -10 332 -10 "},"Ụ":{"ha":994,"x_min":-7,"x_max":1050,"o":"m 476 -10 q 718 54 629 -10 q 858 245 807 118 q 958 606 910 372 l 1050 1039 l 854 1039 l 761 610 q 674 285 711 386 q 599 155 638 183 q 493 126 561 126 q 419 158 442 126 q 397 251 397 189 q 422 424 397 317 q 524 811 447 531 l 585 1035 q 518 1042 549 1042 q 263 990 385 1042 q 67 854 142 939 q -7 674 -7 769 q 31 576 -7 606 q 142 546 68 546 q 132 569 142 550 q 122 642 122 589 q 188 848 122 765 q 368 961 253 931 l 322 778 l 299 683 q 230 396 251 500 q 208 211 208 292 q 270 46 208 101 q 476 -10 332 -10 m 429 -321 q 508 -289 475 -321 q 540 -211 540 -257 q 508 -133 540 -165 q 429 -100 475 -100 q 351 -133 383 -100 q 319 -211 319 -165 q 351 -289 319 -257 q 429 -321 383 -321 "},"Ù":{"ha":994,"x_min":-7,"x_max":1050,"o":"m 563 1389 l 644 1126 l 749 1126 l 708 1389 l 563 1389 m 476 -10 q 718 54 629 -10 q 858 245 807 118 q 958 606 910 372 l 1050 1039 l 854 1039 l 761 610 q 674 285 711 386 q 599 155 638 183 q 493 126 561 126 q 419 158 442 126 q 397 251 397 189 q 422 424 397 317 q 524 811 447 531 l 585 1035 q 518 1042 549 1042 q 263 990 385 1042 q 67 854 142 939 q -7 674 -7 769 q 31 576 -7 606 q 142 546 68 546 q 132 569 142 550 q 122 642 122 589 q 188 848 122 765 q 368 961 253 931 l 322 778 l 299 683 q 230 396 251 500 q 208 211 208 292 q 270 46 208 101 q 476 -10 332 -10 "},"Ủ":{"ha":994,"x_min":-7,"x_max":1050,"o":"m 694 1103 l 758 1100 l 769 1157 q 875 1196 835 1163 q 915 1276 915 1229 q 875 1358 915 1326 q 772 1389 835 1389 q 698 1379 736 1389 q 636 1354 660 1369 l 672 1296 q 756 1318 707 1318 q 821 1268 821 1318 q 803 1231 821 1244 q 756 1218 786 1218 q 694 1225 729 1218 l 694 1103 m 476 -10 q 718 54 629 -10 q 858 245 807 118 q 958 606 910 372 l 1050 1039 l 854 1039 l 761 610 q 674 285 711 386 q 599 155 638 183 q 493 126 561 126 q 419 158 442 126 q 397 251 397 189 q 422 424 397 317 q 524 811 447 531 l 585 1035 q 518 1042 549 1042 q 263 990 385 1042 q 67 854 142 939 q -7 674 -7 769 q 31 576 -7 606 q 142 546 68 546 q 132 569 142 550 q 122 642 122 589 q 188 848 122 765 q 368 961 253 931 l 322 778 l 299 683 q 230 396 251 500 q 208 211 208 292 q 270 46 208 101 q 476 -10 332 -10 "},"Ư":{"ha":994,"x_min":-7,"x_max":1210,"o":"m 1210 1231 q 1154 1296 1210 1296 q 1072 1267 1114 1296 q 1081 1193 1081 1232 q 1065 1101 1081 1140 q 1006 1039 1049 1063 l 854 1039 l 761 610 q 674 285 711 386 q 599 155 638 183 q 493 126 561 126 q 419 158 442 126 q 397 251 397 189 q 422 424 397 317 q 524 811 447 531 l 585 1035 q 518 1042 549 1042 q 263 990 385 1042 q 67 854 142 939 q -7 674 -7 769 q 31 576 -7 606 q 142 546 68 546 q 132 569 142 550 q 122 642 122 589 q 188 848 122 765 q 368 961 253 931 l 322 778 l 299 683 q 230 396 251 500 q 208 211 208 292 q 270 46 208 101 q 476 -10 332 -10 q 718 54 629 -10 q 858 245 807 118 q 958 606 910 372 l 1033 961 q 1158 1075 1106 996 q 1210 1231 1210 1154 "},"Ứ":{"ha":994,"x_min":-7,"x_max":1210,"o":"m 792 1126 l 960 1389 l 814 1389 l 688 1126 l 792 1126 m 1210 1231 q 1154 1296 1210 1296 q 1072 1267 1114 1296 q 1081 1193 1081 1232 q 1065 1101 1081 1140 q 1006 1039 1049 1063 l 854 1039 l 761 610 q 674 285 711 386 q 599 155 638 183 q 493 126 561 126 q 419 158 442 126 q 397 251 397 189 q 422 424 397 317 q 524 811 447 531 l 585 1035 q 518 1042 549 1042 q 263 990 385 1042 q 67 854 142 939 q -7 674 -7 769 q 31 576 -7 606 q 142 546 68 546 q 132 569 142 550 q 122 642 122 589 q 188 848 122 765 q 368 961 253 931 l 322 778 l 299 683 q 230 396 251 500 q 208 211 208 292 q 270 46 208 101 q 476 -10 332 -10 q 718 54 629 -10 q 858 245 807 118 q 958 606 910 372 l 1033 961 q 1158 1075 1106 996 q 1210 1231 1210 1154 "},"Ự":{"ha":994,"x_min":-7,"x_max":1210,"o":"m 1210 1231 q 1154 1296 1210 1296 q 1072 1267 1114 1296 q 1081 1193 1081 1232 q 1065 1101 1081 1140 q 1006 1039 1049 1063 l 854 1039 l 761 610 q 674 285 711 386 q 599 155 638 183 q 493 126 561 126 q 419 158 442 126 q 397 251 397 189 q 422 424 397 317 q 524 811 447 531 l 585 1035 q 518 1042 549 1042 q 263 990 385 1042 q 67 854 142 939 q -7 674 -7 769 q 31 576 -7 606 q 142 546 68 546 q 132 569 142 550 q 122 642 122 589 q 188 848 122 765 q 368 961 253 931 l 322 778 l 299 683 q 230 396 251 500 q 208 211 208 292 q 270 46 208 101 q 476 -10 332 -10 q 718 54 629 -10 q 858 245 807 118 q 958 606 910 372 l 1033 961 q 1158 1075 1106 996 q 1210 1231 1210 1154 m 429 -100 q 351 -133 383 -100 q 319 -211 319 -165 q 351 -289 319 -257 q 429 -321 383 -321 q 508 -289 475 -321 q 540 -211 540 -257 q 508 -133 540 -165 q 429 -100 475 -100 "},"Ừ":{"ha":994,"x_min":-7,"x_max":1210,"o":"m 644 1126 l 749 1126 l 708 1389 l 563 1389 l 644 1126 m 1210 1231 q 1154 1296 1210 1296 q 1072 1267 1114 1296 q 1081 1193 1081 1232 q 1065 1101 1081 1140 q 1006 1039 1049 1063 l 854 1039 l 761 610 q 674 285 711 386 q 599 155 638 183 q 493 126 561 126 q 419 158 442 126 q 397 251 397 189 q 422 424 397 317 q 524 811 447 531 l 585 1035 q 518 1042 549 1042 q 263 990 385 1042 q 67 854 142 939 q -7 674 -7 769 q 31 576 -7 606 q 142 546 68 546 q 132 569 142 550 q 122 642 122 589 q 188 848 122 765 q 368 961 253 931 l 322 778 l 299 683 q 230 396 251 500 q 208 211 208 292 q 270 46 208 101 q 476 -10 332 -10 q 718 54 629 -10 q 858 245 807 118 q 958 606 910 372 l 1033 961 q 1158 1075 1106 996 q 1210 1231 1210 1154 "},"Ử":{"ha":994,"x_min":-7,"x_max":1210,"o":"m 756 1318 q 821 1268 821 1318 q 803 1231 821 1244 q 756 1218 786 1218 q 694 1225 729 1218 l 694 1103 l 758 1100 l 769 1157 q 875 1196 835 1163 q 915 1276 915 1229 q 875 1358 915 1326 q 772 1389 835 1389 q 698 1379 736 1389 q 636 1354 660 1369 l 672 1296 q 756 1318 707 1318 m 1210 1231 q 1154 1296 1210 1296 q 1072 1267 1114 1296 q 1081 1193 1081 1232 q 1065 1101 1081 1140 q 1006 1039 1049 1063 l 854 1039 l 761 610 q 674 285 711 386 q 599 155 638 183 q 493 126 561 126 q 419 158 442 126 q 397 251 397 189 q 422 424 397 317 q 524 811 447 531 l 585 1035 q 518 1042 549 1042 q 263 990 385 1042 q 67 854 142 939 q -7 674 -7 769 q 31 576 -7 606 q 142 546 68 546 q 132 569 142 550 q 122 642 122 589 q 188 848 122 765 q 368 961 253 931 l 322 778 l 299 683 q 230 396 251 500 q 208 211 208 292 q 270 46 208 101 q 476 -10 332 -10 q 718 54 629 -10 q 858 245 807 118 q 958 606 910 372 l 1033 961 q 1158 1075 1106 996 q 1210 1231 1210 1154 "},"Ữ":{"ha":994,"x_min":-7,"x_max":1210,"o":"m 1210 1231 q 1154 1296 1210 1296 q 1072 1267 1114 1296 q 1081 1193 1081 1232 q 1065 1101 1081 1140 q 1006 1039 1049 1063 l 854 1039 l 761 610 q 674 285 711 386 q 599 155 638 183 q 493 126 561 126 q 419 158 442 126 q 397 251 397 189 q 422 424 397 317 q 524 811 447 531 l 585 1035 q 518 1042 549 1042 q 263 990 385 1042 q 67 854 142 939 q -7 674 -7 769 q 31 576 -7 606 q 142 546 68 546 q 132 569 142 550 q 122 642 122 589 q 188 848 122 765 q 368 961 253 931 l 322 778 l 299 683 q 230 396 251 500 q 208 211 208 292 q 270 46 208 101 q 476 -10 332 -10 q 718 54 629 -10 q 858 245 807 118 q 958 606 910 372 l 1033 961 q 1158 1075 1106 996 q 1210 1231 1210 1154 m 568 1189 q 617 1183 593 1189 q 674 1165 642 1176 q 740 1144 711 1151 q 801 1138 769 1138 q 901 1158 853 1138 q 984 1212 950 1179 q 1025 1276 1018 1244 l 1017 1278 q 929 1246 985 1246 q 828 1267 888 1246 q 765 1285 793 1279 q 700 1292 736 1292 q 561 1257 621 1292 q 468 1156 501 1222 l 476 1153 q 568 1189 517 1189 "},"Ű":{"ha":994,"x_min":-7,"x_max":1081,"o":"m 710 1388 l 583 1125 l 660 1125 l 856 1388 l 710 1388 m 935 1388 l 808 1125 l 885 1125 l 1081 1388 l 935 1388 m 476 -10 q 718 54 629 -10 q 858 245 807 118 q 958 606 910 372 l 1050 1039 l 854 1039 l 761 610 q 674 285 711 386 q 599 155 638 183 q 493 126 561 126 q 419 158 442 126 q 397 251 397 189 q 422 424 397 317 q 524 811 447 531 l 585 1035 q 518 1042 549 1042 q 263 990 385 1042 q 67 854 142 939 q -7 674 -7 769 q 31 576 -7 606 q 142 546 68 546 q 132 569 142 550 q 122 642 122 589 q 188 848 122 765 q 368 961 253 931 l 322 778 l 299 683 q 230 396 251 500 q 208 211 208 292 q 270 46 208 101 q 476 -10 332 -10 "},"Ȗ":{"ha":994,"x_min":-7,"x_max":1050,"o":"m 483 1142 l 603 1142 q 653 1224 610 1190 q 754 1257 697 1257 q 835 1227 807 1257 q 864 1142 864 1197 l 988 1142 q 933 1284 988 1235 q 776 1333 879 1333 q 638 1308 703 1333 q 532 1239 574 1283 q 483 1142 490 1194 m 476 -10 q 718 54 629 -10 q 858 245 807 118 q 958 606 910 372 l 1050 1039 l 854 1039 l 761 610 q 674 285 711 386 q 599 155 638 183 q 493 126 561 126 q 419 158 442 126 q 397 251 397 189 q 422 424 397 317 q 524 811 447 531 l 585 1035 q 518 1042 549 1042 q 263 990 385 1042 q 67 854 142 939 q -7 674 -7 769 q 31 576 -7 606 q 142 546 68 546 q 132 569 142 550 q 122 642 122 589 q 188 848 122 765 q 368 961 253 931 l 322 778 l 299 683 q 230 396 251 500 q 208 211 208 292 q 270 46 208 101 q 476 -10 332 -10 "},"Ū":{"ha":994,"x_min":-7,"x_max":1050,"o":"m 533 1282 l 511 1179 l 957 1179 l 978 1282 l 533 1282 m 476 -10 q 718 54 629 -10 q 858 245 807 118 q 958 606 910 372 l 1050 1039 l 854 1039 l 761 610 q 674 285 711 386 q 599 155 638 183 q 493 126 561 126 q 419 158 442 126 q 397 251 397 189 q 422 424 397 317 q 524 811 447 531 l 585 1035 q 518 1042 549 1042 q 263 990 385 1042 q 67 854 142 939 q -7 674 -7 769 q 31 576 -7 606 q 142 546 68 546 q 132 569 142 550 q 122 642 122 589 q 188 848 122 765 q 368 961 253 931 l 322 778 l 299 683 q 230 396 251 500 q 208 211 208 292 q 270 46 208 101 q 476 -10 332 -10 "},"Ų":{"ha":994,"x_min":-7,"x_max":1050,"o":"m 644 1126 l 749 1126 l 708 1389 l 563 1389 l 644 1126 m 1050 1039 l 854 1039 l 761 610 q 674 285 711 386 q 599 155 638 183 q 493 126 561 126 q 419 158 442 126 q 397 251 397 189 q 422 424 397 317 q 524 811 447 531 l 585 1035 q 518 1042 549 1042 q 263 990 385 1042 q 67 854 142 939 q -7 674 -7 769 q 31 576 -7 606 q 142 546 68 546 q 132 569 142 550 q 122 642 122 589 q 188 848 122 765 q 368 961 253 931 l 322 778 l 299 683 q 230 396 251 500 q 208 211 208 292 q 260 55 208 110 q 432 -8 313 0 q 340 -168 340 -78 q 379 -260 340 -224 q 478 -297 418 -297 q 582 -265 531 -297 q 656 -185 633 -232 l 632 -153 q 532 -207 585 -207 q 476 -184 497 -207 q 456 -122 456 -161 q 468 -60 456 -89 q 503 -10 481 -31 q 728 62 644 -4 q 862 253 813 128 q 958 606 911 379 l 1050 1039 "},"Ů":{"ha":994,"x_min":-7,"x_max":1050,"o":"m 724 1121 q 815 1154 785 1121 q 844 1238 844 1188 q 819 1315 844 1285 q 744 1344 793 1344 q 657 1303 688 1344 q 626 1218 626 1263 q 653 1149 626 1176 q 724 1121 679 1121 m 729 1169 q 682 1221 682 1169 q 698 1275 682 1251 q 747 1299 714 1299 q 785 1281 776 1299 q 793 1233 793 1263 q 777 1186 793 1203 q 729 1169 761 1169 m 476 -10 q 718 54 629 -10 q 858 245 807 118 q 958 606 910 372 l 1050 1039 l 854 1039 l 761 610 q 674 285 711 386 q 599 155 638 183 q 493 126 561 126 q 419 158 442 126 q 397 251 397 189 q 422 424 397 317 q 524 811 447 531 l 585 1035 q 518 1042 549 1042 q 263 990 385 1042 q 67 854 142 939 q -7 674 -7 769 q 31 576 -7 606 q 142 546 68 546 q 132 569 142 550 q 122 642 122 589 q 188 848 122 765 q 368 961 253 931 l 322 778 l 299 683 q 230 396 251 500 q 208 211 208 292 q 270 46 208 101 q 476 -10 332 -10 "},"Ũ":{"ha":994,"x_min":-7,"x_max":1050,"o":"m 801 1138 q 901 1158 853 1138 q 984 1212 950 1179 q 1025 1276 1018 1244 l 1017 1278 q 929 1246 985 1246 q 828 1267 888 1246 q 765 1285 793 1279 q 700 1292 736 1292 q 561 1257 621 1292 q 468 1156 501 1222 l 476 1153 q 568 1189 517 1189 q 617 1183 593 1189 q 674 1165 642 1176 q 740 1144 711 1151 q 801 1138 769 1138 m 476 -10 q 718 54 629 -10 q 858 245 807 118 q 958 606 910 372 l 1050 1039 l 854 1039 l 761 610 q 674 285 711 386 q 599 155 638 183 q 493 126 561 126 q 419 158 442 126 q 397 251 397 189 q 422 424 397 317 q 524 811 447 531 l 585 1035 q 518 1042 549 1042 q 263 990 385 1042 q 67 854 142 939 q -7 674 -7 769 q 31 576 -7 606 q 142 546 68 546 q 132 569 142 550 q 122 642 122 589 q 188 848 122 765 q 368 961 253 931 l 322 778 l 299 683 q 230 396 251 500 q 208 211 208 292 q 270 46 208 101 q 476 -10 332 -10 "},"V":{"ha":854,"x_min":8,"x_max":953,"o":"m 344 949 l 367 0 l 567 0 l 953 1035 l 856 1035 l 564 185 l 551 1039 q 496 1042 515 1042 q 268 990 382 1042 q 81 853 154 938 q 8 681 8 769 q 45 577 8 608 q 157 546 82 546 q 147 569 157 549 q 138 640 138 589 q 192 833 138 754 q 344 949 246 911 "},"W":{"ha":1336,"x_min":8,"x_max":1433,"o":"m 344 949 l 367 0 l 567 0 l 831 707 l 847 0 l 1047 0 l 1433 1035 l 1336 1035 l 1044 185 l 1032 1035 l 856 1035 l 564 185 l 551 1039 q 496 1042 515 1042 q 268 990 382 1042 q 81 853 154 938 q 8 681 8 769 q 45 577 8 608 q 157 546 82 546 q 147 569 157 549 q 138 640 138 589 q 192 833 138 754 q 344 949 246 911 "},"Ẃ":{"ha":1336,"x_min":8,"x_max":1433,"o":"m 1032 1389 l 906 1126 l 1010 1126 l 1178 1389 l 1032 1389 m 344 949 l 367 0 l 567 0 l 831 707 l 847 0 l 1047 0 l 1433 1035 l 1336 1035 l 1044 185 l 1032 1035 l 856 1035 l 564 185 l 551 1039 q 496 1042 515 1042 q 268 990 382 1042 q 81 853 154 938 q 8 681 8 769 q 45 577 8 608 q 157 546 82 546 q 147 569 157 549 q 138 640 138 589 q 192 833 138 754 q 344 949 246 911 "},"Ŵ":{"ha":1336,"x_min":8,"x_max":1433,"o":"m 1036 1389 l 742 1126 l 803 1126 l 1021 1238 l 1104 1126 l 1149 1126 l 1065 1389 l 1036 1389 m 344 949 l 367 0 l 567 0 l 831 707 l 847 0 l 1047 0 l 1433 1035 l 1336 1035 l 1044 185 l 1032 1035 l 856 1035 l 564 185 l 551 1039 q 496 1042 515 1042 q 268 990 382 1042 q 81 853 154 938 q 8 681 8 769 q 45 577 8 608 q 157 546 82 546 q 147 569 157 549 q 138 640 138 589 q 192 833 138 754 q 344 949 246 911 "},"Ẅ":{"ha":1336,"x_min":8,"x_max":1433,"o":"m 825 1143 q 883 1167 858 1143 q 908 1228 908 1192 q 883 1288 908 1263 q 825 1313 858 1313 q 765 1288 789 1313 q 740 1228 740 1263 q 765 1167 740 1192 q 825 1143 789 1143 m 1074 1143 q 1134 1167 1110 1143 q 1158 1228 1158 1192 q 1133 1288 1158 1263 q 1074 1313 1108 1313 q 1014 1288 1039 1313 q 989 1228 989 1263 q 1013 1167 989 1192 q 1074 1143 1038 1143 m 344 949 l 367 0 l 567 0 l 831 707 l 847 0 l 1047 0 l 1433 1035 l 1336 1035 l 1044 185 l 1032 1035 l 856 1035 l 564 185 l 551 1039 q 496 1042 515 1042 q 268 990 382 1042 q 81 853 154 938 q 8 681 8 769 q 45 577 8 608 q 157 546 82 546 q 147 569 157 549 q 138 640 138 589 q 192 833 138 754 q 344 949 246 911 "},"Ẁ":{"ha":1336,"x_min":8,"x_max":1433,"o":"m 804 1389 l 886 1126 l 989 1126 l 950 1389 l 804 1389 m 344 949 l 367 0 l 567 0 l 831 707 l 847 0 l 1047 0 l 1433 1035 l 1336 1035 l 1044 185 l 1032 1035 l 856 1035 l 564 185 l 551 1039 q 496 1042 515 1042 q 268 990 382 1042 q 81 853 154 938 q 8 681 8 769 q 45 577 8 608 q 157 546 82 546 q 147 569 157 549 q 138 640 138 589 q 192 833 138 754 q 344 949 246 911 "},"X":{"ha":861,"x_min":8,"x_max":869,"o":"m 447 461 l 186 0 l 271 0 l 472 347 l 546 0 l 767 0 l 636 631 l 869 1035 l 772 1035 l 611 750 l 551 1039 q 496 1042 515 1042 q 268 990 382 1042 q 81 853 154 938 q 8 681 8 769 q 45 577 8 608 q 157 546 82 546 q 147 569 157 549 q 138 640 138 589 q 192 833 138 754 q 344 949 246 911 l 447 461 "},"Y":{"ha":861,"x_min":8,"x_max":969,"o":"m 478 428 l 386 0 l 608 0 l 700 428 l 969 1035 l 878 1035 l 672 542 l 551 1039 q 496 1042 515 1042 q 268 990 382 1042 q 81 853 154 938 q 8 681 8 769 q 45 577 8 608 q 157 546 82 546 q 147 569 157 549 q 138 640 138 589 q 192 833 138 754 q 344 949 246 911 l 478 428 "},"Ý":{"ha":861,"x_min":8,"x_max":969,"o":"m 810 1389 l 683 1126 l 788 1126 l 956 1389 l 810 1389 m 478 428 l 386 0 l 608 0 l 700 428 l 969 1035 l 878 1035 l 672 542 l 551 1039 q 496 1042 515 1042 q 268 990 382 1042 q 81 853 154 938 q 8 681 8 769 q 45 577 8 608 q 157 546 82 546 q 147 569 157 549 q 138 640 138 589 q 192 833 138 754 q 344 949 246 911 l 478 428 "},"Ŷ":{"ha":861,"x_min":8,"x_max":969,"o":"m 772 1389 l 478 1126 l 539 1126 l 756 1238 l 839 1126 l 885 1126 l 801 1389 l 772 1389 m 478 428 l 386 0 l 608 0 l 700 428 l 969 1035 l 878 1035 l 672 542 l 551 1039 q 496 1042 515 1042 q 268 990 382 1042 q 81 853 154 938 q 8 681 8 769 q 45 577 8 608 q 157 546 82 546 q 147 569 157 549 q 138 640 138 589 q 192 833 138 754 q 344 949 246 911 l 478 428 "},"Ÿ":{"ha":861,"x_min":8,"x_max":969,"o":"m 611 1143 q 671 1167 646 1143 q 696 1228 696 1192 q 671 1288 696 1263 q 611 1313 646 1313 q 551 1288 575 1313 q 526 1228 526 1263 q 551 1167 526 1192 q 611 1143 575 1143 m 861 1143 q 921 1167 896 1143 q 946 1228 946 1192 q 921 1288 946 1263 q 861 1313 896 1313 q 801 1288 825 1313 q 776 1228 776 1263 q 801 1167 776 1192 q 861 1143 825 1143 m 478 428 l 386 0 l 608 0 l 700 428 l 969 1035 l 878 1035 l 672 542 l 551 1039 q 496 1042 515 1042 q 268 990 382 1042 q 81 853 154 938 q 8 681 8 769 q 45 577 8 608 q 157 546 82 546 q 147 569 157 549 q 138 640 138 589 q 192 833 138 754 q 344 949 246 911 l 478 428 "},"Ẏ":{"ha":861,"x_min":8,"x_max":969,"o":"m 726 1142 q 806 1173 772 1142 q 839 1250 839 1204 q 806 1328 839 1296 q 726 1361 772 1361 q 649 1329 681 1361 q 617 1250 617 1297 q 649 1173 617 1204 q 726 1142 681 1142 m 478 428 l 386 0 l 608 0 l 700 428 l 969 1035 l 878 1035 l 672 542 l 551 1039 q 496 1042 515 1042 q 268 990 382 1042 q 81 853 154 938 q 8 681 8 769 q 45 577 8 608 q 157 546 82 546 q 147 569 157 549 q 138 640 138 589 q 192 833 138 754 q 344 949 246 911 l 478 428 "},"Ỵ":{"ha":861,"x_min":8,"x_max":969,"o":"m 478 428 l 386 0 l 608 0 l 700 428 l 969 1035 l 878 1035 l 672 542 l 551 1039 q 496 1042 515 1042 q 268 990 382 1042 q 81 853 154 938 q 8 681 8 769 q 45 577 8 608 q 157 546 82 546 q 147 569 157 549 q 138 640 138 589 q 192 833 138 754 q 344 949 246 911 l 478 428 m 457 -321 q 535 -289 503 -321 q 568 -211 568 -257 q 535 -133 568 -165 q 457 -100 503 -100 q 379 -133 411 -100 q 347 -211 347 -165 q 379 -289 347 -257 q 457 -321 411 -321 "},"Ỳ":{"ha":861,"x_min":8,"x_max":969,"o":"m 586 1389 l 668 1126 l 772 1126 l 732 1389 l 586 1389 m 478 428 l 386 0 l 608 0 l 700 428 l 969 1035 l 878 1035 l 672 542 l 551 1039 q 496 1042 515 1042 q 268 990 382 1042 q 81 853 154 938 q 8 681 8 769 q 45 577 8 608 q 157 546 82 546 q 147 569 157 549 q 138 640 138 589 q 192 833 138 754 q 344 949 246 911 l 478 428 "},"Ỷ":{"ha":861,"x_min":8,"x_max":969,"o":"m 694 1103 l 758 1100 l 769 1157 q 875 1196 835 1163 q 915 1276 915 1229 q 875 1358 915 1326 q 772 1389 835 1389 q 698 1379 736 1389 q 636 1354 660 1369 l 672 1296 q 756 1318 707 1318 q 821 1268 821 1318 q 803 1231 821 1244 q 756 1218 786 1218 q 694 1225 729 1218 l 694 1103 m 478 428 l 386 0 l 608 0 l 700 428 l 969 1035 l 878 1035 l 672 542 l 551 1039 q 496 1042 515 1042 q 268 990 382 1042 q 81 853 154 938 q 8 681 8 769 q 45 577 8 608 q 157 546 82 546 q 147 569 157 549 q 138 640 138 589 q 192 833 138 754 q 344 949 246 911 l 478 428 "},"Ỹ":{"ha":861,"x_min":8,"x_max":985,"o":"m 761 1138 q 862 1158 813 1138 q 945 1212 911 1179 q 985 1276 979 1244 l 978 1278 q 890 1246 943 1246 q 842 1251 864 1246 q 788 1267 819 1256 q 724 1285 753 1279 q 661 1292 696 1292 q 521 1257 581 1292 q 429 1156 461 1222 l 436 1153 q 528 1189 476 1189 q 574 1183 553 1189 q 635 1165 594 1178 q 701 1144 674 1151 q 761 1138 729 1138 m 478 428 l 386 0 l 608 0 l 700 428 l 969 1035 l 878 1035 l 672 542 l 551 1039 q 496 1042 515 1042 q 268 990 382 1042 q 81 853 154 938 q 8 681 8 769 q 45 577 8 608 q 157 546 82 546 q 147 569 157 549 q 138 640 138 589 q 192 833 138 754 q 344 949 246 911 l 478 428 "},"Z":{"ha":753,"x_min":15,"x_max":767,"o":"m 501 967 l 15 0 l 517 0 q 609 25 568 0 q 672 88 650 50 q 694 161 694 125 q 677 218 694 194 q 624 242 660 242 q 565 222 590 242 q 540 161 540 203 q 548 128 540 139 q 565 118 556 118 q 516 94 553 100 q 421 88 479 88 l 347 89 q 288 90 326 90 l 767 1042 l 290 1042 q 165 998 211 1042 q 119 897 119 954 q 136 840 119 864 q 190 815 153 815 q 247 834 221 815 q 272 894 272 853 q 265 928 272 917 q 249 939 257 939 q 376 969 249 969 l 454 968 q 501 967 472 967 "},"Ź":{"ha":753,"x_min":15,"x_max":776,"o":"m 631 1389 l 504 1126 l 608 1126 l 776 1389 l 631 1389 m 501 967 l 15 0 l 517 0 q 609 25 568 0 q 672 88 650 50 q 694 161 694 125 q 677 218 694 194 q 624 242 660 242 q 565 222 590 242 q 540 161 540 203 q 548 128 540 139 q 565 118 556 118 q 516 94 553 100 q 421 88 479 88 l 347 89 q 288 90 326 90 l 767 1042 l 290 1042 q 165 998 211 1042 q 119 897 119 954 q 136 840 119 864 q 190 815 153 815 q 247 834 221 815 q 272 894 272 853 q 265 928 272 917 q 249 939 257 939 q 376 969 249 969 l 454 968 q 501 967 472 967 "},"Ž":{"ha":753,"x_min":15,"x_max":829,"o":"m 422 1389 l 506 1126 l 535 1126 l 829 1389 l 768 1389 l 550 1278 l 467 1389 l 422 1389 m 501 967 l 15 0 l 517 0 q 609 25 568 0 q 672 88 650 50 q 694 161 694 125 q 677 218 694 194 q 624 242 660 242 q 565 222 590 242 q 540 161 540 203 q 548 128 540 139 q 565 118 556 118 q 516 94 553 100 q 421 88 479 88 l 347 89 q 288 90 326 90 l 767 1042 l 290 1042 q 165 998 211 1042 q 119 897 119 954 q 136 840 119 864 q 190 815 153 815 q 247 834 221 815 q 272 894 272 853 q 265 928 272 917 q 249 939 257 939 q 376 969 249 969 l 454 968 q 501 967 472 967 "},"Ż":{"ha":736,"x_min":15,"x_max":767,"o":"m 500 1143 q 560 1167 535 1143 q 585 1228 585 1192 q 560 1288 585 1263 q 500 1313 535 1313 q 440 1288 464 1313 q 415 1228 415 1263 q 440 1167 415 1192 q 500 1143 464 1143 m 501 967 l 15 0 l 517 0 q 609 25 568 0 q 672 88 650 50 q 694 161 694 125 q 677 218 694 194 q 624 242 660 242 q 565 222 590 242 q 540 161 540 203 q 548 128 540 139 q 565 118 556 118 q 516 94 553 100 q 421 88 479 88 l 347 89 q 288 90 326 90 l 767 1042 l 290 1042 q 165 998 211 1042 q 119 897 119 954 q 136 840 119 864 q 190 815 153 815 q 247 834 221 815 q 272 894 272 853 q 265 928 272 917 q 249 939 257 939 q 376 969 249 969 l 454 968 q 501 967 472 967 "},"Ẓ":{"ha":753,"x_min":15,"x_max":776,"o":"m 631 1389 l 504 1126 l 608 1126 l 776 1389 l 631 1389 m 501 967 l 15 0 l 517 0 q 609 25 568 0 q 672 88 650 50 q 694 161 694 125 q 677 218 694 194 q 624 242 660 242 q 565 222 590 242 q 540 161 540 203 q 548 128 540 139 q 565 118 556 118 q 516 94 553 100 q 421 88 479 88 l 347 89 q 288 90 326 90 l 767 1042 l 290 1042 q 165 998 211 1042 q 119 897 119 954 q 136 840 119 864 q 190 815 153 815 q 247 834 221 815 q 272 894 272 853 q 265 928 272 917 q 249 939 257 939 q 376 969 249 969 l 454 968 q 501 967 472 967 m 293 -321 q 372 -289 339 -321 q 406 -211 406 -257 q 372 -133 406 -165 q 293 -100 339 -100 q 215 -133 247 -100 q 183 -211 183 -165 q 215 -289 183 -257 q 293 -321 247 -321 "},"a":{"ha":731,"x_min":-18,"x_max":789,"o":"m 167 -8 q 284 27 235 -8 q 374 119 333 63 q 416 24 381 57 q 510 -8 451 -8 q 662 45 586 -8 q 789 249 738 99 l 731 249 q 685 154 714 190 q 618 118 657 118 q 561 178 561 118 q 567 222 561 201 l 667 694 l 467 694 l 451 621 l 451 631 q 424 682 451 663 q 339 701 396 701 q 145 623 226 701 q 23 431 64 544 q -18 215 -18 318 q 35 46 -18 100 q 167 -8 88 -8 m 257 126 q 208 146 228 126 q 188 235 188 165 q 213 395 188 304 q 282 551 238 486 q 382 615 326 615 q 425 598 411 615 q 439 563 439 581 l 372 249 q 326 159 360 192 q 257 126 292 126 "},"á":{"ha":731,"x_min":-18,"x_max":789,"o":"m 467 1042 l 340 779 l 444 779 l 613 1042 l 467 1042 m 167 -8 q 284 27 235 -8 q 374 119 333 63 q 416 24 381 57 q 510 -8 451 -8 q 662 45 586 -8 q 789 249 738 99 l 731 249 q 685 154 714 190 q 618 118 657 118 q 561 178 561 118 q 567 222 561 201 l 667 694 l 467 694 l 451 621 l 451 631 q 424 682 451 663 q 339 701 396 701 q 145 623 226 701 q 23 431 64 544 q -18 215 -18 318 q 35 46 -18 100 q 167 -8 88 -8 m 257 126 q 208 146 228 126 q 188 235 188 165 q 213 395 188 304 q 282 551 238 486 q 382 615 326 615 q 425 598 411 615 q 439 563 439 581 l 372 249 q 326 159 360 192 q 257 126 292 126 "},"ă":{"ha":731,"x_min":-18,"x_max":789,"o":"m 421 818 q 559 844 494 818 q 665 913 624 869 q 714 1011 707 957 l 594 1011 q 544 929 588 963 q 443 896 500 896 q 362 926 390 896 q 333 1011 333 956 l 210 1011 q 264 867 210 917 q 421 818 318 818 m 167 -8 q 284 27 235 -8 q 374 119 333 63 q 416 24 381 57 q 510 -8 451 -8 q 662 45 586 -8 q 789 249 738 99 l 731 249 q 685 154 714 190 q 618 118 657 118 q 561 178 561 118 q 567 222 561 201 l 667 694 l 467 694 l 451 621 l 451 631 q 424 682 451 663 q 339 701 396 701 q 145 623 226 701 q 23 431 64 544 q -18 215 -18 318 q 35 46 -18 100 q 167 -8 88 -8 m 257 126 q 208 146 228 126 q 188 235 188 165 q 213 395 188 304 q 282 551 238 486 q 382 615 326 615 q 425 598 411 615 q 439 563 439 581 l 372 249 q 326 159 360 192 q 257 126 292 126 "},"ắ":{"ha":731,"x_min":-18,"x_max":789,"o":"m 507 1175 l 415 963 l 493 963 l 621 1175 l 507 1175 m 426 815 q 548 838 492 815 q 641 900 604 861 q 685 986 678 939 l 579 986 q 535 914 574 943 q 446 885 496 885 q 374 911 399 885 q 349 986 349 938 l 239 986 q 287 859 239 903 q 426 815 335 815 m 167 -8 q 284 27 235 -8 q 374 119 333 63 q 416 24 381 57 q 510 -8 451 -8 q 662 45 586 -8 q 789 249 738 99 l 731 249 q 685 154 714 190 q 618 118 657 118 q 561 178 561 118 q 567 222 561 201 l 667 694 l 467 694 l 451 621 l 451 631 q 424 682 451 663 q 339 701 396 701 q 145 623 226 701 q 23 431 64 544 q -18 215 -18 318 q 35 46 -18 100 q 167 -8 88 -8 m 257 126 q 208 146 228 126 q 188 235 188 165 q 213 395 188 304 q 282 551 238 486 q 382 615 326 615 q 425 598 411 615 q 439 563 439 581 l 372 249 q 326 159 360 192 q 257 126 292 126 "},"ặ":{"ha":731,"x_min":-18,"x_max":789,"o":"m 421 818 q 559 844 494 818 q 665 913 624 869 q 714 1011 707 957 l 594 1011 q 544 929 588 963 q 443 896 500 896 q 362 926 390 896 q 333 1011 333 956 l 210 1011 q 264 867 210 917 q 421 818 318 818 m 167 -8 q 284 27 235 -8 q 374 119 333 63 q 416 24 381 57 q 510 -8 451 -8 q 662 45 586 -8 q 789 249 738 99 l 731 249 q 685 154 714 190 q 618 118 657 118 q 561 178 561 118 q 567 222 561 201 l 667 694 l 467 694 l 451 621 l 451 631 q 424 682 451 663 q 339 701 396 701 q 145 623 226 701 q 23 431 64 544 q -18 215 -18 318 q 35 46 -18 100 q 167 -8 88 -8 m 257 126 q 208 146 228 126 q 188 235 188 165 q 213 395 188 304 q 282 551 238 486 q 382 615 326 615 q 425 598 411 615 q 439 563 439 581 l 372 249 q 326 159 360 192 q 257 126 292 126 m 232 -321 q 311 -289 278 -321 q 344 -211 344 -257 q 311 -133 344 -165 q 232 -100 278 -100 q 155 -133 188 -100 q 122 -211 122 -165 q 155 -289 122 -257 q 232 -321 188 -321 "},"ằ":{"ha":731,"x_min":-18,"x_max":789,"o":"m 357 1174 l 431 963 l 503 963 l 467 1174 l 357 1174 m 426 815 q 548 838 492 815 q 641 900 604 861 q 685 986 678 939 l 579 986 q 535 914 574 943 q 446 885 496 885 q 374 911 399 885 q 349 986 349 938 l 239 986 q 287 859 239 903 q 426 815 335 815 m 167 -8 q 284 27 235 -8 q 374 119 333 63 q 416 24 381 57 q 510 -8 451 -8 q 662 45 586 -8 q 789 249 738 99 l 731 249 q 685 154 714 190 q 618 118 657 118 q 561 178 561 118 q 567 222 561 201 l 667 694 l 467 694 l 451 621 l 451 631 q 424 682 451 663 q 339 701 396 701 q 145 623 226 701 q 23 431 64 544 q -18 215 -18 318 q 35 46 -18 100 q 167 -8 88 -8 m 257 126 q 208 146 228 126 q 188 235 188 165 q 213 395 188 304 q 282 551 238 486 q 382 615 326 615 q 425 598 411 615 q 439 563 439 581 l 372 249 q 326 159 360 192 q 257 126 292 126 "},"ẳ":{"ha":731,"x_min":-18,"x_max":789,"o":"m 422 965 l 469 963 l 474 1003 q 550 1029 521 1006 q 579 1088 579 1053 q 550 1144 579 1122 q 476 1165 521 1165 q 424 1158 450 1165 q 382 1140 399 1151 l 407 1100 q 465 1117 432 1117 q 513 1082 513 1117 q 465 1044 513 1044 q 422 1050 443 1044 l 422 965 m 426 815 q 548 838 492 815 q 641 900 604 861 q 685 986 678 939 l 579 986 q 535 914 574 943 q 446 885 496 885 q 374 911 399 885 q 349 986 349 938 l 239 986 q 287 859 239 903 q 426 815 335 815 m 167 -8 q 284 27 235 -8 q 374 119 333 63 q 416 24 381 57 q 510 -8 451 -8 q 662 45 586 -8 q 789 249 738 99 l 731 249 q 685 154 714 190 q 618 118 657 118 q 561 178 561 118 q 567 222 561 201 l 667 694 l 467 694 l 451 621 l 451 631 q 424 682 451 663 q 339 701 396 701 q 145 623 226 701 q 23 431 64 544 q -18 215 -18 318 q 35 46 -18 100 q 167 -8 88 -8 m 257 126 q 208 146 228 126 q 188 235 188 165 q 213 395 188 304 q 282 551 238 486 q 382 615 326 615 q 425 598 411 615 q 439 563 439 581 l 372 249 q 326 159 360 192 q 257 126 292 126 "},"ẵ":{"ha":731,"x_min":-18,"x_max":789,"o":"m 547 1089 q 649 1119 601 1089 q 703 1186 696 1150 l 696 1186 q 636 1164 676 1164 q 567 1179 607 1164 q 478 1196 517 1196 q 381 1172 422 1196 q 318 1101 340 1147 l 324 1100 q 388 1125 353 1125 q 460 1108 413 1125 q 547 1089 513 1089 m 433 815 q 555 838 499 815 q 648 900 611 861 q 692 986 685 939 l 586 986 q 542 914 581 943 q 453 885 503 885 q 381 911 406 885 q 356 986 356 938 l 246 986 q 294 859 246 903 q 433 815 342 815 m 167 -8 q 284 27 235 -8 q 374 119 333 63 q 416 24 381 57 q 510 -8 451 -8 q 662 45 586 -8 q 789 249 738 99 l 731 249 q 685 154 714 190 q 618 118 657 118 q 561 178 561 118 q 567 222 561 201 l 667 694 l 467 694 l 451 621 l 451 631 q 424 682 451 663 q 339 701 396 701 q 145 623 226 701 q 23 431 64 544 q -18 215 -18 318 q 35 46 -18 100 q 167 -8 88 -8 m 257 126 q 208 146 228 126 q 188 235 188 165 q 213 395 188 304 q 282 551 238 486 q 382 615 326 615 q 425 598 411 615 q 439 563 439 581 l 372 249 q 326 159 360 192 q 257 126 292 126 "},"ǎ":{"ha":731,"x_min":-18,"x_max":789,"o":"m 326 1042 l 410 779 l 439 779 l 733 1042 l 672 1042 l 454 931 l 371 1042 l 326 1042 m 167 -8 q 284 27 235 -8 q 374 119 333 63 q 416 24 381 57 q 510 -8 451 -8 q 662 45 586 -8 q 789 249 738 99 l 731 249 q 685 154 714 190 q 618 118 657 118 q 561 178 561 118 q 567 222 561 201 l 667 694 l 467 694 l 451 621 l 451 631 q 424 682 451 663 q 339 701 396 701 q 145 623 226 701 q 23 431 64 544 q -18 215 -18 318 q 35 46 -18 100 q 167 -8 88 -8 m 257 126 q 208 146 228 126 q 188 235 188 165 q 213 395 188 304 q 282 551 238 486 q 382 615 326 615 q 425 598 411 615 q 439 563 439 581 l 372 249 q 326 159 360 192 q 257 126 292 126 "},"â":{"ha":731,"x_min":-18,"x_max":789,"o":"m 511 1042 l 217 779 l 278 779 l 496 890 l 579 779 l 624 779 l 540 1042 l 511 1042 m 167 -8 q 284 27 235 -8 q 374 119 333 63 q 416 24 381 57 q 510 -8 451 -8 q 662 45 586 -8 q 789 249 738 99 l 731 249 q 685 154 714 190 q 618 118 657 118 q 561 178 561 118 q 567 222 561 201 l 667 694 l 467 694 l 451 621 l 451 631 q 424 682 451 663 q 339 701 396 701 q 145 623 226 701 q 23 431 64 544 q -18 215 -18 318 q 35 46 -18 100 q 167 -8 88 -8 m 257 126 q 208 146 228 126 q 188 235 188 165 q 213 395 188 304 q 282 551 238 486 q 382 615 326 615 q 425 598 411 615 q 439 563 439 581 l 372 249 q 326 159 360 192 q 257 126 292 126 "},"ấ":{"ha":731,"x_min":-18,"x_max":844,"o":"m 724 1222 l 613 990 l 696 990 l 844 1222 l 724 1222 m 507 1026 l 247 796 l 301 796 l 493 894 l 568 796 l 607 796 l 532 1026 l 507 1026 m 167 -8 q 284 27 235 -8 q 374 119 333 63 q 416 24 381 57 q 510 -8 451 -8 q 662 45 586 -8 q 789 249 738 99 l 731 249 q 685 154 714 190 q 618 118 657 118 q 561 178 561 118 q 567 222 561 201 l 667 694 l 467 694 l 451 621 l 451 631 q 424 682 451 663 q 339 701 396 701 q 145 623 226 701 q 23 431 64 544 q -18 215 -18 318 q 35 46 -18 100 q 167 -8 88 -8 m 257 126 q 208 146 228 126 q 188 235 188 165 q 213 395 188 304 q 282 551 238 486 q 382 615 326 615 q 425 598 411 615 q 439 563 439 581 l 372 249 q 326 159 360 192 q 257 126 292 126 "},"ậ":{"ha":731,"x_min":-18,"x_max":789,"o":"m 511 1042 l 217 779 l 278 779 l 496 890 l 579 779 l 624 779 l 540 1042 l 511 1042 m 167 -8 q 284 27 235 -8 q 374 119 333 63 q 416 24 381 57 q 510 -8 451 -8 q 662 45 586 -8 q 789 249 738 99 l 731 249 q 685 154 714 190 q 618 118 657 118 q 561 178 561 118 q 567 222 561 201 l 667 694 l 467 694 l 451 621 l 451 631 q 424 682 451 663 q 339 701 396 701 q 145 623 226 701 q 23 431 64 544 q -18 215 -18 318 q 35 46 -18 100 q 167 -8 88 -8 m 257 126 q 208 146 228 126 q 188 235 188 165 q 213 395 188 304 q 282 551 238 486 q 382 615 326 615 q 425 598 411 615 q 439 563 439 581 l 372 249 q 326 159 360 192 q 257 126 292 126 m 232 -321 q 311 -289 278 -321 q 344 -211 344 -257 q 311 -133 344 -165 q 232 -100 278 -100 q 155 -133 188 -100 q 122 -211 122 -165 q 155 -289 122 -257 q 232 -321 188 -321 "},"ầ":{"ha":731,"x_min":-18,"x_max":789,"o":"m 594 1174 l 667 943 l 740 943 l 704 1174 l 594 1174 m 507 1026 l 247 796 l 301 796 l 493 894 l 568 796 l 607 796 l 532 1026 l 507 1026 m 167 -8 q 284 27 235 -8 q 374 119 333 63 q 416 24 381 57 q 510 -8 451 -8 q 662 45 586 -8 q 789 249 738 99 l 731 249 q 685 154 714 190 q 618 118 657 118 q 561 178 561 118 q 567 222 561 201 l 667 694 l 467 694 l 451 621 l 451 631 q 424 682 451 663 q 339 701 396 701 q 145 623 226 701 q 23 431 64 544 q -18 215 -18 318 q 35 46 -18 100 q 167 -8 88 -8 m 257 126 q 208 146 228 126 q 188 235 188 165 q 213 395 188 304 q 282 551 238 486 q 382 615 326 615 q 425 598 411 615 q 439 563 439 581 l 372 249 q 326 159 360 192 q 257 126 292 126 "},"ẩ":{"ha":731,"x_min":-18,"x_max":789,"o":"m 626 944 l 672 942 l 676 982 q 753 1008 724 985 q 782 1067 782 1032 q 753 1123 782 1101 q 679 1144 725 1144 q 628 1138 654 1144 q 586 1121 603 1132 l 611 1081 q 669 1096 638 1096 q 715 1061 715 1096 q 703 1033 715 1043 q 669 1024 692 1024 q 626 1031 650 1024 l 626 944 m 507 1026 l 247 796 l 301 796 l 493 894 l 568 796 l 607 796 l 532 1026 l 507 1026 m 167 -8 q 284 27 235 -8 q 374 119 333 63 q 416 24 381 57 q 510 -8 451 -8 q 662 45 586 -8 q 789 249 738 99 l 731 249 q 685 154 714 190 q 618 118 657 118 q 561 178 561 118 q 567 222 561 201 l 667 694 l 467 694 l 451 621 l 451 631 q 424 682 451 663 q 339 701 396 701 q 145 623 226 701 q 23 431 64 544 q -18 215 -18 318 q 35 46 -18 100 q 167 -8 88 -8 m 257 126 q 208 146 228 126 q 188 235 188 165 q 213 395 188 304 q 282 551 238 486 q 382 615 326 615 q 425 598 411 615 q 439 563 439 581 l 372 249 q 326 159 360 192 q 257 126 292 126 "},"ẫ":{"ha":731,"x_min":-18,"x_max":789,"o":"m 568 1089 q 669 1119 622 1089 q 724 1186 717 1150 l 717 1186 q 657 1164 694 1164 q 588 1179 628 1164 q 499 1196 538 1196 q 402 1172 443 1196 q 339 1101 361 1147 l 344 1100 q 407 1125 371 1125 q 481 1108 433 1125 q 568 1089 533 1089 m 507 1026 l 247 796 l 301 796 l 493 894 l 568 796 l 607 796 l 532 1026 l 507 1026 m 167 -8 q 284 27 235 -8 q 374 119 333 63 q 416 24 381 57 q 510 -8 451 -8 q 662 45 586 -8 q 789 249 738 99 l 731 249 q 685 154 714 190 q 618 118 657 118 q 561 178 561 118 q 567 222 561 201 l 667 694 l 467 694 l 451 621 l 451 631 q 424 682 451 663 q 339 701 396 701 q 145 623 226 701 q 23 431 64 544 q -18 215 -18 318 q 35 46 -18 100 q 167 -8 88 -8 m 257 126 q 208 146 228 126 q 188 235 188 165 q 213 395 188 304 q 282 551 238 486 q 382 615 326 615 q 425 598 411 615 q 439 563 439 581 l 372 249 q 326 159 360 192 q 257 126 292 126 "},"ȁ":{"ha":731,"x_min":-18,"x_max":789,"o":"m 100 1044 l 296 782 l 374 782 l 246 1044 l 100 1044 m 325 1044 l 521 782 l 597 782 l 471 1044 l 325 1044 m 167 -8 q 284 27 235 -8 q 374 119 333 63 q 416 24 381 57 q 510 -8 451 -8 q 662 45 586 -8 q 789 249 738 99 l 731 249 q 685 154 714 190 q 618 118 657 118 q 561 178 561 118 q 567 222 561 201 l 667 694 l 467 694 l 451 621 l 451 631 q 424 682 451 663 q 339 701 396 701 q 145 623 226 701 q 23 431 64 544 q -18 215 -18 318 q 35 46 -18 100 q 167 -8 88 -8 m 257 126 q 208 146 228 126 q 188 235 188 165 q 213 395 188 304 q 282 551 238 486 q 382 615 326 615 q 425 598 411 615 q 439 563 439 581 l 372 249 q 326 159 360 192 q 257 126 292 126 "},"ä":{"ha":731,"x_min":-18,"x_max":789,"o":"m 335 796 q 394 820 369 796 q 419 881 419 844 q 394 940 419 915 q 335 965 369 965 q 274 940 299 965 q 250 881 250 915 q 274 820 250 844 q 335 796 299 796 m 585 796 q 644 820 619 796 q 669 881 669 844 q 644 940 669 915 q 585 965 619 965 q 524 940 549 965 q 500 881 500 915 q 524 820 500 844 q 585 796 549 796 m 167 -8 q 284 27 235 -8 q 374 119 333 63 q 416 24 381 57 q 510 -8 451 -8 q 662 45 586 -8 q 789 249 738 99 l 731 249 q 685 154 714 190 q 618 118 657 118 q 561 178 561 118 q 567 222 561 201 l 667 694 l 467 694 l 451 621 l 451 631 q 424 682 451 663 q 339 701 396 701 q 145 623 226 701 q 23 431 64 544 q -18 215 -18 318 q 35 46 -18 100 q 167 -8 88 -8 m 257 126 q 208 146 228 126 q 188 235 188 165 q 213 395 188 304 q 282 551 238 486 q 382 615 326 615 q 425 598 411 615 q 439 563 439 581 l 372 249 q 326 159 360 192 q 257 126 292 126 "},"ạ":{"ha":731,"x_min":-18,"x_max":789,"o":"m 167 -8 q 284 27 235 -8 q 374 119 333 63 q 416 24 381 57 q 510 -8 451 -8 q 662 45 586 -8 q 789 249 738 99 l 731 249 q 685 154 714 190 q 618 118 657 118 q 561 178 561 118 q 567 222 561 201 l 667 694 l 467 694 l 451 621 l 451 631 q 424 682 451 663 q 339 701 396 701 q 145 623 226 701 q 23 431 64 544 q -18 215 -18 318 q 35 46 -18 100 q 167 -8 88 -8 m 257 126 q 208 146 228 126 q 188 235 188 165 q 213 395 188 304 q 282 551 238 486 q 382 615 326 615 q 425 598 411 615 q 439 563 439 581 l 372 249 q 326 159 360 192 q 257 126 292 126 m 232 -321 q 311 -289 278 -321 q 344 -211 344 -257 q 311 -133 344 -165 q 232 -100 278 -100 q 155 -133 188 -100 q 122 -211 122 -165 q 155 -289 122 -257 q 232 -321 188 -321 "},"à":{"ha":731,"x_min":-18,"x_max":789,"o":"m 300 1042 l 382 779 l 486 779 l 446 1042 l 300 1042 m 167 -8 q 284 27 235 -8 q 374 119 333 63 q 416 24 381 57 q 510 -8 451 -8 q 662 45 586 -8 q 789 249 738 99 l 731 249 q 685 154 714 190 q 618 118 657 118 q 561 178 561 118 q 567 222 561 201 l 667 694 l 467 694 l 451 621 l 451 631 q 424 682 451 663 q 339 701 396 701 q 145 623 226 701 q 23 431 64 544 q -18 215 -18 318 q 35 46 -18 100 q 167 -8 88 -8 m 257 126 q 208 146 228 126 q 188 235 188 165 q 213 395 188 304 q 282 551 238 486 q 382 615 326 615 q 425 598 411 615 q 439 563 439 581 l 372 249 q 326 159 360 192 q 257 126 292 126 "},"ả":{"ha":731,"x_min":-18,"x_max":789,"o":"m 476 1006 q 525 991 508 1006 q 542 951 542 976 q 524 913 542 928 q 476 897 507 897 q 415 904 450 897 l 415 782 l 481 779 l 490 836 q 596 876 556 842 q 636 960 636 911 q 596 1042 636 1010 q 493 1075 556 1075 q 418 1066 456 1075 q 357 1042 381 1057 l 394 983 q 476 1006 431 1006 m 789 249 l 731 249 q 685 154 714 190 q 618 118 657 118 q 561 178 561 118 q 567 222 561 201 l 667 694 l 467 694 l 451 621 l 451 631 q 424 682 451 663 q 339 701 396 701 q 145 623 226 701 q 23 431 64 544 q -18 215 -18 318 q 35 46 -18 100 q 167 -8 88 -8 q 284 27 235 -8 q 374 119 333 63 q 416 24 381 57 q 510 -8 451 -8 q 662 45 586 -8 q 789 249 738 99 m 439 563 l 372 249 q 326 159 360 192 q 257 126 292 126 q 208 146 228 126 q 188 235 188 165 q 213 395 188 304 q 282 551 238 486 q 382 615 326 615 q 425 598 411 615 q 439 563 439 581 "},"ȃ":{"ha":731,"x_min":-18,"x_max":789,"o":"m 169 785 l 289 785 q 340 867 296 833 q 440 900 383 900 q 522 870 493 900 q 550 785 550 840 l 674 785 q 619 927 674 878 q 463 976 565 976 q 324 951 389 976 q 218 882 260 926 q 169 785 176 838 m 167 -8 q 284 27 235 -8 q 374 119 333 63 q 416 24 381 57 q 510 -8 451 -8 q 662 45 586 -8 q 789 249 738 99 l 731 249 q 685 154 714 190 q 618 118 657 118 q 561 178 561 118 q 567 222 561 201 l 667 694 l 467 694 l 451 621 l 451 631 q 424 682 451 663 q 339 701 396 701 q 145 623 226 701 q 23 431 64 544 q -18 215 -18 318 q 35 46 -18 100 q 167 -8 88 -8 m 257 126 q 208 146 228 126 q 188 235 188 165 q 213 395 188 304 q 282 551 238 486 q 382 615 326 615 q 425 598 411 615 q 439 563 439 581 l 372 249 q 326 159 360 192 q 257 126 292 126 "},"ā":{"ha":731,"x_min":-18,"x_max":789,"o":"m 249 944 l 226 840 l 672 840 l 693 944 l 249 944 m 167 -8 q 284 27 235 -8 q 374 119 333 63 q 416 24 381 57 q 510 -8 451 -8 q 662 45 586 -8 q 789 249 738 99 l 731 249 q 685 154 714 190 q 618 118 657 118 q 561 178 561 118 q 567 222 561 201 l 667 694 l 467 694 l 451 621 l 451 631 q 424 682 451 663 q 339 701 396 701 q 145 623 226 701 q 23 431 64 544 q -18 215 -18 318 q 35 46 -18 100 q 167 -8 88 -8 m 257 126 q 208 146 228 126 q 188 235 188 165 q 213 395 188 304 q 282 551 238 486 q 382 615 326 615 q 425 598 411 615 q 439 563 439 581 l 372 249 q 326 159 360 192 q 257 126 292 126 "},"ą":{"ha":731,"x_min":-18,"x_max":789,"o":"m 511 -268 q 590 -245 557 -268 q 663 -182 622 -222 q 665 -139 663 -172 q 640 -156 657 -144 q 606 -177 624 -168 q 571 -186 589 -186 q 531 -165 544 -186 q 517 -117 517 -144 q 542 -42 517 -78 q 594 7 568 -7 q 701 88 653 32 q 789 249 750 143 l 731 249 q 685 154 714 190 q 618 118 657 118 q 561 178 561 118 q 567 222 561 201 l 667 694 l 467 694 l 451 621 l 451 631 q 424 682 451 663 q 339 701 396 701 q 145 623 226 701 q 23 431 64 544 q -18 215 -18 318 q 35 46 -18 100 q 167 -8 88 -8 q 284 27 235 -8 q 374 119 333 63 q 409 31 379 63 q 490 -7 439 -1 q 401 -160 401 -83 q 430 -235 401 -201 q 511 -268 458 -268 m 257 126 q 208 146 228 126 q 188 235 188 165 q 213 395 188 304 q 282 551 238 486 q 382 615 326 615 q 425 598 411 615 q 439 563 439 581 l 372 249 q 326 159 360 192 q 257 126 292 126 "},"å":{"ha":731,"x_min":-18,"x_max":789,"o":"m 422 767 q 513 800 483 767 q 543 883 543 833 q 517 960 543 931 q 443 990 492 990 q 356 949 386 990 q 325 864 325 908 q 351 794 325 822 q 422 767 378 767 m 428 815 q 381 867 381 815 q 397 921 381 897 q 446 944 413 944 q 483 926 475 944 q 492 879 492 908 q 476 832 492 849 q 428 815 460 815 m 167 -8 q 284 27 235 -8 q 374 119 333 63 q 416 24 381 57 q 510 -8 451 -8 q 662 45 586 -8 q 789 249 738 99 l 731 249 q 685 154 714 190 q 618 118 657 118 q 561 178 561 118 q 567 222 561 201 l 667 694 l 467 694 l 451 621 l 451 631 q 424 682 451 663 q 339 701 396 701 q 145 623 226 701 q 23 431 64 544 q -18 215 -18 318 q 35 46 -18 100 q 167 -8 88 -8 m 257 126 q 208 146 228 126 q 188 235 188 165 q 213 395 188 304 q 282 551 238 486 q 382 615 326 615 q 425 598 411 615 q 439 563 439 581 l 372 249 q 326 159 360 192 q 257 126 292 126 "},"ǻ":{"ha":731,"x_min":-18,"x_max":789,"o":"m 422 767 q 513 800 483 767 q 543 883 543 833 q 513 965 543 936 l 619 1124 l 493 1124 l 429 990 q 352 945 379 985 q 325 864 325 906 q 351 794 325 822 q 422 767 378 767 m 446 944 q 483 926 475 944 q 492 879 492 908 q 476 832 492 849 q 428 815 460 815 q 381 867 381 815 q 397 921 381 897 q 446 944 413 944 m 789 249 l 731 249 q 685 154 714 190 q 618 118 657 118 q 561 178 561 118 q 567 222 561 201 l 667 694 l 467 694 l 451 621 l 451 631 q 424 682 451 663 q 339 701 396 701 q 145 623 226 701 q 23 431 64 544 q -18 215 -18 318 q 35 46 -18 100 q 167 -8 88 -8 q 284 27 235 -8 q 374 119 333 63 q 416 24 381 57 q 510 -8 451 -8 q 662 45 586 -8 q 789 249 738 99 m 439 563 l 372 249 q 326 159 360 192 q 257 126 292 126 q 208 146 228 126 q 188 235 188 165 q 213 395 188 304 q 282 551 238 486 q 382 615 326 615 q 425 598 411 615 q 439 563 439 581 "},"ã":{"ha":731,"x_min":-18,"x_max":789,"o":"m 501 790 q 602 811 553 790 q 685 865 651 832 q 725 929 719 897 l 718 931 q 631 899 683 899 q 582 903 604 899 q 528 919 560 908 q 465 938 493 932 q 401 944 436 944 q 261 910 321 944 q 169 808 201 875 l 176 806 q 268 842 217 842 q 314 836 293 842 q 375 818 335 831 q 442 797 414 804 q 501 790 469 790 m 167 -8 q 284 27 235 -8 q 374 119 333 63 q 416 24 381 57 q 510 -8 451 -8 q 662 45 586 -8 q 789 249 738 99 l 731 249 q 685 154 714 190 q 618 118 657 118 q 561 178 561 118 q 567 222 561 201 l 667 694 l 467 694 l 451 621 l 451 631 q 424 682 451 663 q 339 701 396 701 q 145 623 226 701 q 23 431 64 544 q -18 215 -18 318 q 35 46 -18 100 q 167 -8 88 -8 m 257 126 q 208 146 228 126 q 188 235 188 165 q 213 395 188 304 q 282 551 238 486 q 382 615 326 615 q 425 598 411 615 q 439 563 439 581 l 372 249 q 326 159 360 192 q 257 126 292 126 "},"æ":{"ha":903,"x_min":-11,"x_max":950,"o":"m 165 -8 q 285 27 240 -8 q 363 125 329 63 q 567 -6 399 -6 q 950 249 794 -6 l 903 249 q 822 168 853 194 q 748 125 792 142 q 640 108 704 108 q 578 135 599 108 q 557 236 557 163 q 560 281 557 250 q 717 326 643 286 q 835 430 790 365 q 879 569 879 494 q 847 670 879 633 q 728 707 814 707 q 540 646 622 707 q 360 701 471 701 q 276 695 311 701 q 198 665 240 689 q 107 593 156 642 l 146 553 q 218 601 181 585 q 314 618 256 618 q 378 591 357 618 q 399 519 399 564 q 369 397 399 460 q 297 403 347 403 q 72 349 156 403 q -11 172 -11 294 q 40 32 -11 72 q 165 -8 90 -8 m 569 347 q 641 547 594 460 q 739 633 688 633 q 765 618 758 633 q 772 572 772 603 q 744 467 772 518 q 669 383 715 417 q 569 347 622 350 m 249 126 q 206 141 226 126 q 185 196 185 156 q 226 285 185 251 q 336 318 268 318 q 360 317 350 318 q 313 167 339 208 q 249 126 286 126 "},"ǽ":{"ha":903,"x_min":-11,"x_max":950,"o":"m 664 1042 l 538 779 l 640 779 l 810 1042 l 664 1042 m 165 -8 q 285 27 240 -8 q 363 125 329 63 q 567 -6 399 -6 q 950 249 794 -6 l 903 249 q 822 168 853 194 q 748 125 792 142 q 640 108 704 108 q 578 135 599 108 q 557 236 557 163 q 560 281 557 250 q 717 326 643 286 q 835 430 790 365 q 879 569 879 494 q 847 670 879 633 q 728 707 814 707 q 540 646 622 707 q 360 701 471 701 q 276 695 311 701 q 198 665 240 689 q 107 593 156 642 l 146 553 q 218 601 181 585 q 314 618 256 618 q 378 591 357 618 q 399 519 399 564 q 369 397 399 460 q 297 403 347 403 q 72 349 156 403 q -11 172 -11 294 q 40 32 -11 72 q 165 -8 90 -8 m 569 347 q 641 547 594 460 q 739 633 688 633 q 765 618 758 633 q 772 572 772 603 q 744 467 772 518 q 669 383 715 417 q 569 347 622 350 m 249 126 q 206 141 226 126 q 185 196 185 156 q 226 285 185 251 q 336 318 268 318 q 360 317 350 318 q 313 167 339 208 q 249 126 286 126 "},"b":{"ha":617,"x_min":-10,"x_max":565,"o":"m 185 -8 q 406 69 321 -8 q 528 256 492 147 q 565 461 565 365 q 401 699 565 699 q 351 691 376 699 q 288 660 326 683 l 354 972 l 149 944 l 0 249 q -10 169 -10 211 q 40 38 -10 85 q 185 -8 90 -8 m 263 126 q 189 190 189 126 q 193 222 189 206 l 269 575 q 305 594 279 588 q 351 600 331 600 q 406 561 386 600 q 425 467 425 522 q 403 313 425 393 q 343 180 381 233 q 263 126 306 126 "},"c":{"ha":533,"x_min":-18,"x_max":581,"o":"m 199 -8 q 581 249 426 -8 l 533 249 q 416 143 469 178 q 288 108 363 108 q 211 133 235 108 q 188 225 188 157 q 214 400 188 303 q 282 565 240 497 q 365 633 324 633 q 394 618 385 633 q 404 576 404 603 q 388 494 404 540 q 436 478 413 478 q 489 504 468 478 q 510 579 510 531 q 474 671 510 635 q 356 707 439 707 q 142 623 226 707 q 20 424 58 539 q -18 213 -18 308 q 39 45 -18 99 q 199 -8 96 -8 "},"ć":{"ha":533,"x_min":-18,"x_max":611,"o":"m 465 1042 l 339 779 l 443 779 l 611 1042 l 465 1042 m 199 -8 q 581 249 426 -8 l 533 249 q 416 143 469 178 q 288 108 363 108 q 211 133 235 108 q 188 225 188 157 q 214 400 188 303 q 282 565 240 497 q 365 633 324 633 q 394 618 385 633 q 404 576 404 603 q 388 494 404 540 q 436 478 413 478 q 489 504 468 478 q 510 579 510 531 q 474 671 510 635 q 356 707 439 707 q 142 623 226 707 q 20 424 58 539 q -18 213 -18 308 q 39 45 -18 99 q 199 -8 96 -8 "},"č":{"ha":533,"x_min":-18,"x_max":679,"o":"m 272 1042 l 356 779 l 385 779 l 679 1042 l 618 1042 l 400 931 l 317 1042 l 272 1042 m 199 -8 q 581 249 426 -8 l 533 249 q 416 143 469 178 q 288 108 363 108 q 211 133 235 108 q 188 225 188 157 q 214 400 188 303 q 282 565 240 497 q 365 633 324 633 q 394 618 385 633 q 404 576 404 603 q 388 494 404 540 q 436 478 413 478 q 489 504 468 478 q 510 579 510 531 q 474 671 510 635 q 356 707 439 707 q 142 623 226 707 q 20 424 58 539 q -18 213 -18 308 q 39 45 -18 99 q 199 -8 96 -8 "},"ç":{"ha":533,"x_min":-18,"x_max":581,"o":"m 257 -303 q 374 -262 324 -303 q 424 -150 424 -221 q 338 -81 424 -81 q 264 -92 311 -81 l 304 7 q 581 249 463 54 l 533 249 q 416 143 469 178 q 288 108 363 108 q 211 133 235 108 q 188 225 188 157 q 214 400 188 303 q 282 565 240 497 q 365 633 324 633 q 394 618 385 633 q 404 576 404 603 q 388 494 404 540 q 436 478 413 478 q 489 504 468 478 q 510 579 510 531 q 474 671 510 635 q 356 707 439 707 q 142 623 226 707 q 20 424 58 539 q -18 213 -18 308 q 39 45 -18 99 q 199 -8 96 -8 q 239 -6 214 -8 l 182 -165 q 215 -153 200 -157 q 254 -149 229 -149 q 295 -162 282 -149 q 308 -199 308 -176 q 296 -239 308 -221 q 267 -257 283 -257 q 224 -240 249 -257 q 197 -225 208 -231 q 164 -219 185 -219 q 108 -264 133 -219 q 178 -293 146 -283 q 257 -303 210 -303 "},"ĉ":{"ha":533,"x_min":-18,"x_max":581,"o":"m 443 1042 l 149 779 l 210 779 l 428 890 l 511 779 l 556 779 l 472 1042 l 443 1042 m 199 -8 q 581 249 426 -8 l 533 249 q 416 143 469 178 q 288 108 363 108 q 211 133 235 108 q 188 225 188 157 q 214 400 188 303 q 282 565 240 497 q 365 633 324 633 q 394 618 385 633 q 404 576 404 603 q 388 494 404 540 q 436 478 413 478 q 489 504 468 478 q 510 579 510 531 q 474 671 510 635 q 356 707 439 707 q 142 623 226 707 q 20 424 58 539 q -18 213 -18 308 q 39 45 -18 99 q 199 -8 96 -8 "},"ċ":{"ha":533,"x_min":-18,"x_max":581,"o":"m 411 831 q 490 863 457 831 q 522 940 522 894 q 490 1019 522 986 q 411 1051 457 1051 q 333 1019 365 1051 q 301 940 301 986 q 333 863 301 894 q 411 831 365 831 m 199 -8 q 581 249 426 -8 l 533 249 q 416 143 469 178 q 288 108 363 108 q 211 133 235 108 q 188 225 188 157 q 214 400 188 303 q 282 565 240 497 q 365 633 324 633 q 394 618 385 633 q 404 576 404 603 q 388 494 404 540 q 436 478 413 478 q 489 504 468 478 q 510 579 510 531 q 474 671 510 635 q 356 707 439 707 q 142 623 226 707 q 20 424 58 539 q -18 213 -18 308 q 39 45 -18 99 q 199 -8 96 -8 "},"d":{"ha":729,"x_min":-18,"x_max":788,"o":"m 167 -8 q 285 28 235 -8 q 372 119 336 64 q 416 31 381 61 q 508 0 451 0 q 788 249 703 0 l 729 249 q 684 160 713 193 q 617 126 656 126 q 573 138 586 126 q 560 178 560 150 q 565 222 560 201 l 725 972 l 519 944 l 451 625 l 451 631 q 424 682 451 663 q 339 701 396 701 q 145 623 226 701 q 23 431 64 544 q -18 215 -18 318 q 35 46 -18 100 q 167 -8 88 -8 m 257 126 q 208 146 228 126 q 188 235 188 165 q 213 395 188 304 q 282 551 238 486 q 382 615 326 615 q 439 567 426 615 l 371 249 l 371 242 q 324 157 358 188 q 257 126 290 126 "},"ð":{"ha":731,"x_min":-18,"x_max":789,"o":"m 789 249 l 731 249 q 685 160 714 193 q 618 126 657 126 q 574 138 588 126 q 561 178 561 150 q 567 222 561 201 l 638 550 q 653 686 653 624 q 619 869 653 785 l 754 906 l 736 983 l 582 940 q 494 1042 547 997 l 374 997 q 438 899 413 950 l 275 853 l 292 782 l 460 826 q 467 749 467 796 q 456 622 467 696 q 426 681 456 660 q 339 701 397 701 q 145 623 226 701 q 23 431 64 544 q -18 215 -18 318 q 35 46 -18 100 q 167 -8 88 -8 q 374 121 289 -8 q 417 31 382 61 q 510 0 453 0 q 789 249 704 0 m 439 563 l 372 249 q 326 159 360 192 q 257 126 292 126 q 208 146 228 126 q 188 235 188 165 q 213 395 188 304 q 282 551 238 486 q 382 615 326 615 q 425 597 411 615 q 439 563 439 579 "},"ď":{"ha":729,"x_min":-18,"x_max":947,"o":"m 781 790 l 811 758 q 909 857 871 797 q 947 971 947 917 q 924 1035 947 1011 q 864 1060 901 1060 q 801 1038 825 1060 q 778 983 778 1017 q 785 951 778 965 q 808 921 793 938 q 828 897 822 906 q 833 875 833 888 q 822 842 833 860 q 781 790 811 824 m 167 -8 q 285 28 235 -8 q 372 119 336 64 q 416 31 381 61 q 508 0 451 0 q 788 249 703 0 l 729 249 q 684 160 713 193 q 617 126 656 126 q 573 138 586 126 q 560 178 560 150 q 565 222 560 201 l 725 972 l 519 944 l 451 625 l 451 631 q 424 682 451 663 q 339 701 396 701 q 145 623 226 701 q 23 431 64 544 q -18 215 -18 318 q 35 46 -18 100 q 167 -8 88 -8 m 257 126 q 208 146 228 126 q 188 235 188 165 q 213 395 188 304 q 282 551 238 486 q 382 615 326 615 q 439 567 426 615 l 371 249 l 371 242 q 324 157 358 188 q 257 126 290 126 "},"đ":{"ha":729,"x_min":-18,"x_max":810,"o":"m 565 222 l 683 776 l 789 776 l 810 846 l 699 846 l 725 972 l 519 944 l 499 846 l 379 846 l 361 776 l 483 776 l 451 625 l 451 631 q 424 682 451 663 q 339 701 396 701 q 145 623 226 701 q 23 431 64 544 q -18 215 -18 318 q 35 46 -18 100 q 167 -8 88 -8 q 285 28 235 -8 q 372 119 336 64 q 416 31 381 61 q 508 0 451 0 q 788 249 703 0 l 729 249 q 684 160 713 193 q 617 126 656 126 q 573 138 586 126 q 560 178 560 150 q 565 222 560 201 m 439 567 l 371 249 l 371 242 q 324 157 358 188 q 257 126 290 126 q 208 146 228 126 q 188 235 188 165 q 213 395 188 304 q 282 551 238 486 q 382 615 326 615 q 439 567 426 615 "},"ḍ":{"ha":729,"x_min":-18,"x_max":788,"o":"m 167 -8 q 285 28 235 -8 q 372 119 336 64 q 416 31 381 61 q 508 0 451 0 q 788 249 703 0 l 729 249 q 684 160 713 193 q 617 126 656 126 q 573 138 586 126 q 560 178 560 150 q 565 222 560 201 l 725 972 l 519 944 l 451 625 l 451 631 q 424 682 451 663 q 339 701 396 701 q 145 623 226 701 q 23 431 64 544 q -18 215 -18 318 q 35 46 -18 100 q 167 -8 88 -8 m 257 126 q 208 146 228 126 q 188 235 188 165 q 213 395 188 304 q 282 551 238 486 q 382 615 326 615 q 439 567 426 615 l 371 249 l 371 242 q 324 157 358 188 q 257 126 290 126 m 232 -321 q 311 -289 278 -321 q 344 -211 344 -257 q 311 -133 344 -165 q 232 -100 278 -100 q 155 -133 188 -100 q 122 -211 122 -165 q 155 -289 122 -257 q 232 -321 188 -321 "},"e":{"ha":533,"x_min":-18,"x_max":581,"o":"m 199 -8 q 581 249 426 -8 l 533 249 q 416 143 469 178 q 288 108 363 108 q 211 133 235 108 q 188 225 188 157 q 190 281 188 239 q 347 326 274 286 q 465 431 421 365 q 510 574 510 496 q 357 707 510 707 q 142 623 226 707 q 19 424 57 539 q -18 213 -18 308 q 39 45 -18 99 q 199 -8 96 -8 m 201 347 q 270 546 222 458 q 368 633 318 633 q 403 576 403 633 q 374 468 403 519 q 299 383 346 417 q 201 347 253 350 "},"é":{"ha":533,"x_min":-18,"x_max":582,"o":"m 436 1042 l 310 779 l 414 779 l 582 1042 l 436 1042 m 199 -8 q 581 249 426 -8 l 533 249 q 416 143 469 178 q 288 108 363 108 q 211 133 235 108 q 188 225 188 157 q 190 281 188 239 q 347 326 274 286 q 465 431 421 365 q 510 574 510 496 q 357 707 510 707 q 142 623 226 707 q 19 424 57 539 q -18 213 -18 308 q 39 45 -18 99 q 199 -8 96 -8 m 201 347 q 270 546 222 458 q 368 633 318 633 q 403 576 403 633 q 374 468 403 519 q 299 383 346 417 q 201 347 253 350 "},"ĕ":{"ha":533,"x_min":-18,"x_max":606,"o":"m 313 818 q 451 844 386 818 q 557 913 515 869 q 606 1011 599 957 l 486 1011 q 435 929 479 963 q 335 896 392 896 q 253 926 282 896 q 225 1011 225 956 l 101 1011 q 156 867 101 917 q 313 818 210 818 m 199 -8 q 581 249 426 -8 l 533 249 q 416 143 469 178 q 288 108 363 108 q 211 133 235 108 q 188 225 188 157 q 190 281 188 239 q 347 326 274 286 q 465 431 421 365 q 510 574 510 496 q 357 707 510 707 q 142 623 226 707 q 19 424 57 539 q -18 213 -18 308 q 39 45 -18 99 q 199 -8 96 -8 m 201 347 q 270 546 222 458 q 368 633 318 633 q 403 576 403 633 q 374 468 403 519 q 299 383 346 417 q 201 347 253 350 "},"ě":{"ha":533,"x_min":-18,"x_max":675,"o":"m 268 1042 l 351 779 l 381 779 l 675 1042 l 614 1042 l 396 931 l 313 1042 l 268 1042 m 199 -8 q 581 249 426 -8 l 533 249 q 416 143 469 178 q 288 108 363 108 q 211 133 235 108 q 188 225 188 157 q 190 281 188 239 q 347 326 274 286 q 465 431 421 365 q 510 574 510 496 q 357 707 510 707 q 142 623 226 707 q 19 424 57 539 q -18 213 -18 308 q 39 45 -18 99 q 199 -8 96 -8 m 201 347 q 270 546 222 458 q 368 633 318 633 q 403 576 403 633 q 374 468 403 519 q 299 383 346 417 q 201 347 253 350 "},"ê":{"ha":533,"x_min":-18,"x_max":581,"o":"m 440 1042 l 146 779 l 207 779 l 425 890 l 508 779 l 553 779 l 469 1042 l 440 1042 m 199 -8 q 581 249 426 -8 l 533 249 q 416 143 469 178 q 288 108 363 108 q 211 133 235 108 q 188 225 188 157 q 190 281 188 239 q 347 326 274 286 q 465 431 421 365 q 510 574 510 496 q 357 707 510 707 q 142 623 226 707 q 19 424 57 539 q -18 213 -18 308 q 39 45 -18 99 q 199 -8 96 -8 m 201 347 q 270 546 222 458 q 368 633 318 633 q 403 576 403 633 q 374 468 403 519 q 299 383 346 417 q 201 347 253 350 "},"ế":{"ha":533,"x_min":-18,"x_max":778,"o":"m 657 1222 l 544 990 l 629 990 l 778 1222 l 657 1222 m 439 1026 l 179 796 l 233 796 l 426 894 l 500 796 l 539 796 l 464 1026 l 439 1026 m 199 -8 q 581 249 426 -8 l 533 249 q 416 143 469 178 q 288 108 363 108 q 211 133 235 108 q 188 225 188 157 q 190 281 188 239 q 347 326 274 286 q 465 431 421 365 q 510 574 510 496 q 357 707 510 707 q 142 623 226 707 q 19 424 57 539 q -18 213 -18 308 q 39 45 -18 99 q 199 -8 96 -8 m 201 347 q 270 546 222 458 q 368 633 318 633 q 403 576 403 633 q 374 468 403 519 q 299 383 346 417 q 201 347 253 350 "},"ệ":{"ha":533,"x_min":-18,"x_max":581,"o":"m 440 1042 l 146 779 l 207 779 l 425 890 l 508 779 l 553 779 l 469 1042 l 440 1042 m 199 -8 q 581 249 426 -8 l 533 249 q 416 143 469 178 q 288 108 363 108 q 211 133 235 108 q 188 225 188 157 q 190 281 188 239 q 347 326 274 286 q 465 431 421 365 q 510 574 510 496 q 357 707 510 707 q 142 623 226 707 q 19 424 57 539 q -18 213 -18 308 q 39 45 -18 99 q 199 -8 96 -8 m 201 347 q 270 546 222 458 q 368 633 318 633 q 403 576 403 633 q 374 468 403 519 q 299 383 346 417 q 201 347 253 350 m 144 -321 q 223 -289 190 -321 q 256 -211 256 -257 q 223 -133 256 -165 q 144 -100 190 -100 q 67 -133 99 -100 q 35 -211 35 -165 q 67 -289 35 -257 q 144 -321 99 -321 "},"ề":{"ha":533,"x_min":-18,"x_max":672,"o":"m 526 1174 l 600 943 l 672 943 l 636 1174 l 526 1174 m 439 1026 l 179 796 l 233 796 l 426 894 l 500 796 l 539 796 l 464 1026 l 439 1026 m 199 -8 q 581 249 426 -8 l 533 249 q 416 143 469 178 q 288 108 363 108 q 211 133 235 108 q 188 225 188 157 q 190 281 188 239 q 347 326 274 286 q 465 431 421 365 q 510 574 510 496 q 357 707 510 707 q 142 623 226 707 q 19 424 57 539 q -18 213 -18 308 q 39 45 -18 99 q 199 -8 96 -8 m 201 347 q 270 546 222 458 q 368 633 318 633 q 403 576 403 633 q 374 468 403 519 q 299 383 346 417 q 201 347 253 350 "},"ể":{"ha":533,"x_min":-18,"x_max":694,"o":"m 538 944 l 585 942 l 589 982 q 665 1008 636 985 q 694 1067 694 1032 q 665 1123 694 1101 q 592 1144 636 1144 q 540 1138 565 1144 q 497 1121 514 1132 l 522 1081 q 581 1096 549 1096 q 628 1061 628 1096 q 615 1033 628 1043 q 581 1024 603 1024 q 538 1031 563 1024 l 538 944 m 439 1026 l 179 796 l 233 796 l 426 894 l 500 796 l 539 796 l 464 1026 l 439 1026 m 199 -8 q 581 249 426 -8 l 533 249 q 416 143 469 178 q 288 108 363 108 q 211 133 235 108 q 188 225 188 157 q 190 281 188 239 q 347 326 274 286 q 465 431 421 365 q 510 574 510 496 q 357 707 510 707 q 142 623 226 707 q 19 424 57 539 q -18 213 -18 308 q 39 45 -18 99 q 199 -8 96 -8 m 201 347 q 270 546 222 458 q 368 633 318 633 q 403 576 403 633 q 374 468 403 519 q 299 383 346 417 q 201 347 253 350 "},"ễ":{"ha":533,"x_min":-18,"x_max":656,"o":"m 500 1089 q 601 1119 554 1089 q 656 1186 649 1150 l 649 1186 q 623 1170 639 1176 q 589 1164 607 1164 q 519 1179 560 1164 q 431 1196 469 1196 q 334 1172 375 1196 q 271 1101 293 1147 l 276 1100 q 340 1125 304 1125 q 413 1108 365 1125 q 500 1089 465 1089 m 439 1026 l 179 796 l 233 796 l 426 894 l 500 796 l 539 796 l 464 1026 l 439 1026 m 199 -8 q 581 249 426 -8 l 533 249 q 416 143 469 178 q 288 108 363 108 q 211 133 235 108 q 188 225 188 157 q 190 281 188 239 q 347 326 274 286 q 465 431 421 365 q 510 574 510 496 q 357 707 510 707 q 142 623 226 707 q 19 424 57 539 q -18 213 -18 308 q 39 45 -18 99 q 199 -8 96 -8 m 201 347 q 270 546 222 458 q 368 633 318 633 q 403 576 403 633 q 374 468 403 519 q 299 383 346 417 q 201 347 253 350 "},"ȅ":{"ha":533,"x_min":-18,"x_max":581,"o":"m 13 1044 l 208 782 l 285 782 l 158 1044 l 13 1044 m 238 1044 l 433 782 l 510 782 l 383 1044 l 238 1044 m 199 -8 q 581 249 426 -8 l 533 249 q 416 143 469 178 q 288 108 363 108 q 211 133 235 108 q 188 225 188 157 q 190 281 188 239 q 347 326 274 286 q 465 431 421 365 q 510 574 510 496 q 357 707 510 707 q 142 623 226 707 q 19 424 57 539 q -18 213 -18 308 q 39 45 -18 99 q 199 -8 96 -8 m 201 347 q 270 546 222 458 q 368 633 318 633 q 403 576 403 633 q 374 468 403 519 q 299 383 346 417 q 201 347 253 350 "},"ë":{"ha":533,"x_min":-18,"x_max":585,"o":"m 250 796 q 310 820 285 796 q 335 881 335 844 q 310 940 335 915 q 250 965 285 965 q 190 940 214 965 q 165 881 165 915 q 190 820 165 844 q 250 796 214 796 m 500 796 q 560 820 535 796 q 585 881 585 844 q 560 940 585 915 q 500 965 535 965 q 440 940 464 965 q 415 881 415 915 q 440 820 415 844 q 500 796 464 796 m 199 -8 q 581 249 426 -8 l 533 249 q 416 143 469 178 q 288 108 363 108 q 211 133 235 108 q 188 225 188 157 q 190 281 188 239 q 347 326 274 286 q 465 431 421 365 q 510 574 510 496 q 357 707 510 707 q 142 623 226 707 q 19 424 57 539 q -18 213 -18 308 q 39 45 -18 99 q 199 -8 96 -8 m 201 347 q 270 546 222 458 q 368 633 318 633 q 403 576 403 633 q 374 468 403 519 q 299 383 346 417 q 201 347 253 350 "},"ė":{"ha":533,"x_min":-18,"x_max":581,"o":"m 406 831 q 484 863 451 831 q 517 940 517 894 q 483 1019 517 986 q 406 1051 450 1051 q 327 1019 360 1051 q 294 940 294 986 q 327 863 294 894 q 406 831 360 831 m 199 -8 q 581 249 426 -8 l 533 249 q 416 143 469 178 q 288 108 363 108 q 211 133 235 108 q 188 225 188 157 q 190 281 188 239 q 347 326 274 286 q 465 431 421 365 q 510 574 510 496 q 357 707 510 707 q 142 623 226 707 q 19 424 57 539 q -18 213 -18 308 q 39 45 -18 99 q 199 -8 96 -8 m 201 347 q 270 546 222 458 q 368 633 318 633 q 403 576 403 633 q 374 468 403 519 q 299 383 346 417 q 201 347 253 350 "},"ẹ":{"ha":533,"x_min":-18,"x_max":581,"o":"m 199 -8 q 581 249 426 -8 l 533 249 q 416 143 469 178 q 288 108 363 108 q 211 133 235 108 q 188 225 188 157 q 190 281 188 239 q 347 326 274 286 q 465 431 421 365 q 510 574 510 496 q 357 707 510 707 q 142 623 226 707 q 19 424 57 539 q -18 213 -18 308 q 39 45 -18 99 q 199 -8 96 -8 m 201 347 q 270 546 222 458 q 368 633 318 633 q 403 576 403 633 q 374 468 403 519 q 299 383 346 417 q 201 347 253 350 m 144 -321 q 223 -289 190 -321 q 256 -211 256 -257 q 223 -133 256 -165 q 144 -100 190 -100 q 67 -133 99 -100 q 35 -211 35 -165 q 67 -289 35 -257 q 144 -321 99 -321 "},"è":{"ha":533,"x_min":-18,"x_max":581,"o":"m 219 1042 l 301 779 l 406 779 l 365 1042 l 219 1042 m 199 -8 q 581 249 426 -8 l 533 249 q 416 143 469 178 q 288 108 363 108 q 211 133 235 108 q 188 225 188 157 q 190 281 188 239 q 347 326 274 286 q 465 431 421 365 q 510 574 510 496 q 357 707 510 707 q 142 623 226 707 q 19 424 57 539 q -18 213 -18 308 q 39 45 -18 99 q 199 -8 96 -8 m 201 347 q 270 546 222 458 q 368 633 318 633 q 403 576 403 633 q 374 468 403 519 q 299 383 346 417 q 201 347 253 350 "},"ẻ":{"ha":533,"x_min":-18,"x_max":581,"o":"m 307 782 l 372 779 l 382 836 q 487 876 446 842 q 528 960 528 911 q 488 1042 528 1008 q 385 1075 447 1075 q 310 1066 347 1075 q 249 1042 272 1057 l 286 983 q 368 1006 322 1006 q 417 991 400 1006 q 433 951 433 976 q 416 913 433 928 q 368 897 399 897 q 307 904 342 897 l 307 782 m 199 -8 q 581 249 426 -8 l 533 249 q 416 143 469 178 q 288 108 363 108 q 211 133 235 108 q 188 225 188 157 q 190 281 188 239 q 347 326 274 286 q 465 431 421 365 q 510 574 510 496 q 357 707 510 707 q 142 623 226 707 q 19 424 57 539 q -18 213 -18 308 q 39 45 -18 99 q 199 -8 96 -8 m 201 347 q 270 546 222 458 q 368 633 318 633 q 403 576 403 633 q 374 468 403 519 q 299 383 346 417 q 201 347 253 350 "},"ȇ":{"ha":533,"x_min":-18,"x_max":581,"o":"m 67 785 l 186 785 q 237 867 193 833 q 339 900 281 900 q 419 870 390 900 q 447 785 447 840 l 572 785 q 517 927 572 878 q 360 976 463 976 q 222 951 286 976 q 116 882 157 926 q 67 785 75 838 m 199 -8 q 581 249 426 -8 l 533 249 q 416 143 469 178 q 288 108 363 108 q 211 133 235 108 q 188 225 188 157 q 190 281 188 239 q 347 326 274 286 q 465 431 421 365 q 510 574 510 496 q 357 707 510 707 q 142 623 226 707 q 19 424 57 539 q -18 213 -18 308 q 39 45 -18 99 q 199 -8 96 -8 m 201 347 q 270 546 222 458 q 368 633 318 633 q 403 576 403 633 q 374 468 403 519 q 299 383 346 417 q 201 347 253 350 "}}}
